<svg width="175" height="317" viewBox="0 0 175 317" fill="none" xmlns="http://www.w3.org/2000/svg">
<g clip-path="url(#clip0_529_79)">
<path d="M108.902 0.000818701C108.902 0.000818701 106.885 1.79312 107.558 4.14654C108.23 6.49914 114.28 20.2814 114.28 20.2814L115.289 25.3232L114.504 27.9003L111.354 33.2788L120.891 36.752L123.58 31.0376C123.58 31.0376 125.933 30.0293 126.493 27.9003C127.053 25.7713 127.726 21.1775 126.493 18.376C125.26 15.5745 123.916 12.4372 123.916 12.4372C123.916 12.4372 125.485 12.2135 125.821 11.6532C126.157 11.0929 125.597 9.86012 125.597 9.86012C125.597 9.86012 124.364 7.28307 123.58 7.50752C122.796 7.73115 119.883 9.41204 119.883 9.41204L119.658 7.73114L121.227 6.38692C121.227 6.38692 122.908 7.05944 123.579 6.27469C124.252 5.49077 123.915 5.04187 123.915 5.04187C123.915 5.04187 122.682 2.9129 121.563 3.02513C120.442 3.13735 118.425 4.48158 118.425 4.48158C118.425 4.48158 121.227 2.12897 120.554 1.45645C119.882 0.783927 118.647 0.448078 117.303 1.00838C115.96 1.56868 113.943 4.37017 113.943 4.37017L113.719 7.3953C113.719 7.3953 110.806 4.0335 110.581 3.02513C110.357 2.01675 110.021 0 109.461 0" fill="#DC9070"/>
<path d="M122.43 25.5296C122.333 25.5321 122.687 24.0642 122.088 21.8336C121.781 20.7327 121.204 19.4687 120.217 18.3236C119.733 17.7452 119.126 17.1514 118.782 16.3166C118.443 15.4762 118.48 14.5522 118.505 13.6749C118.531 12.8189 118.515 11.9751 118.183 11.2887C117.858 10.6203 117.179 10.1181 116.522 10.1894L116.696 10.0256C116.301 12.3298 115.951 14.2901 115.689 15.6728C115.563 16.3027 115.457 16.836 115.367 17.2832C115.285 17.656 115.231 17.8558 115.209 17.8517C115.187 17.8485 115.199 17.642 115.241 17.2628C115.299 16.8106 115.37 16.2708 115.453 15.6343C115.647 14.2409 115.943 12.2725 116.307 9.96249L116.331 9.81422L116.481 9.79784C117.365 9.70281 118.171 10.3237 118.559 11.1044C118.953 11.9096 118.956 12.8238 118.932 13.6872C118.905 14.571 118.879 15.432 119.172 16.1626C119.463 16.8941 120.028 17.4749 120.519 18.0721C121.53 19.2795 122.103 20.6131 122.38 21.7583C122.659 22.91 122.664 23.8766 122.613 24.5294C122.554 25.184 122.452 25.5337 122.43 25.5296Z" fill="#925B4C"/>
<path d="M122.942 9.88798C123.066 9.88225 123.173 10.554 123.532 11.2822C123.879 12.0161 124.338 12.5175 124.257 12.6108C124.192 12.7034 123.542 12.2938 123.148 11.4673C122.746 10.6441 122.83 9.88143 122.942 9.88798Z" fill="#925B4C"/>
<path d="M119.027 4.38741C119.036 4.45458 118.766 4.50864 118.466 4.77486C118.165 5.03208 117.851 5.52766 117.751 6.13465C117.653 6.75229 117.715 7.35028 117.723 7.78852C117.738 8.22841 117.709 8.50691 117.65 8.51101C117.591 8.51511 117.515 8.2538 117.424 7.82293C117.342 7.39451 117.22 6.77441 117.33 6.06421C117.448 5.34335 117.873 4.77486 118.289 4.52994C118.711 4.27764 119.031 4.3399 119.027 4.38741Z" fill="#925B4C"/>
<g opacity="0.3">
<path d="M62.1448 48.393C61.9147 43.1504 61.682 37.8849 60.686 32.7316C59.6907 27.5791 57.8959 22.5037 54.7971 18.2687L44.6486 46.327C44.5282 54.589 45.6218 62.8682 47.8818 70.8156C52.6558 68.6546 54.4565 77.0815 57 72.5C59.192 68.5517 62.3423 52.9048 62.1448 48.393Z" fill="#263238"/>
</g>
<path d="M17.4981 38.5C18.4657 30.044 25.0943 15.7436 30.8799 12.8845C36.9056 9.0451 45.1493 8.65928 51.1807 12.4896C55.0152 14.925 57.7724 18.8348 59.3583 23.0911C60.9442 27.3474 60.2561 30.8746 60.2193 35.4168C60.2004 37.7703 59.9006 44.0974 57.8699 45.286L7.50006 80.5C3.43876 74.6218 16.8567 45.616 17.4981 38.5Z" fill="#263238"/>
<path d="M21.5695 25.3043C22.2805 21.0742 26.4115 16.9653 29.6316 14.1311C33.3063 10.8963 33.8232 11.0421 38.7176 10.9176C43.8783 10.7865 49.5173 10.8086 53.5442 14.0385C55.7756 15.8284 57.2239 18.4087 58.3871 21.0226C61.0755 27.0614 60.6602 33.957 59.8386 40.5159C59.017 47.0749 57.6269 53.266 52.2582 57.1226L29.6938 53.6273C24.7159 51.7834 23.0563 46.0952 21.6482 40.9771C20.2408 35.8582 20.6897 30.5387 21.5695 25.3043Z" fill="#263238"/>
<path d="M59.0654 29.5132C58.7492 23.3073 52.1428 17.0343 45.9557 17.6134L25.8702 21.1833L25.8956 24.5205L25.667 66.1965C33.5784 67.9683 41.1547 69.9031 48.6631 70.5502L48.9899 61.5068C48.9899 61.5068 56.9283 60.2871 58.6944 49.9699C59.5733 44.8404 59.4169 36.408 59.0654 29.5132Z" fill="#DC9070"/>
<path d="M54.7668 37.4877C54.7832 38.188 54.2032 38.7795 53.4726 38.8098C52.7427 38.8401 52.1365 38.2986 52.1209 37.5983C52.1046 36.8979 52.6837 36.3064 53.4136 36.2753C54.1443 36.2442 54.7504 36.7873 54.7668 37.4877Z" fill="#263238"/>
<path d="M56.8268 33.8784C56.6605 34.0488 55.6653 33.2935 54.2383 33.2804C52.8138 33.2469 51.7579 33.9677 51.6055 33.7916C51.5302 33.7138 51.7014 33.4033 52.1618 33.0773C52.6148 32.7521 53.3839 32.44 54.2727 32.4547C55.1607 32.4703 55.9045 32.8061 56.3304 33.1461C56.7646 33.4869 56.9087 33.8014 56.8268 33.8784Z" fill="#263238"/>
<path d="M41.6955 37.123C41.7119 37.8234 41.132 38.4148 40.4013 38.4451C39.6714 38.4755 39.0652 37.934 39.0497 37.2336C39.0333 36.5332 39.6132 35.941 40.3423 35.9107C41.073 35.8796 41.6791 36.4227 41.6955 37.123Z" fill="#263238"/>
<path d="M42.8015 33.9752C42.6352 34.1456 41.6383 33.3911 40.213 33.3772C38.7885 33.3436 37.7326 34.0645 37.5794 33.8875C37.5049 33.8089 37.6744 33.4992 38.1356 33.1732C38.5878 32.848 39.3578 32.5359 40.2457 32.5507C41.1345 32.5662 41.8775 32.9021 42.3035 33.242C42.7376 33.5844 42.8834 33.899 42.8015 33.9752Z" fill="#263238"/>
<path d="M47.8515 44.6168C47.8457 44.5357 48.7345 44.3931 50.1738 44.2269C50.5383 44.1933 50.884 44.1253 50.9487 43.8779C51.038 43.6158 50.8897 43.2209 50.7185 42.795C50.3867 41.9095 50.0394 40.9814 49.6749 40.0082C48.2267 36.0411 47.1831 32.7809 47.3428 32.7235C47.5034 32.667 48.8074 35.8363 50.2557 39.8034C50.6038 40.7815 50.9372 41.7137 51.2542 42.6066C51.3869 43.0219 51.6188 43.4945 51.4263 44.0385C51.3247 44.3096 51.0552 44.5037 50.8209 44.5635C50.5866 44.6315 50.3818 44.6332 50.2016 44.6422C48.7534 44.7028 47.8556 44.6979 47.8515 44.6168Z" fill="#263238"/>
<path d="M48.9857 61.5346C48.9857 61.5346 41.6731 61.8738 34.834 57.6494C34.834 57.6494 38.1754 65.2339 48.8849 64.4164L48.9857 61.5346Z" fill="#925B4C"/>
<path d="M47.6949 47.6632C47.119 46.8833 46.1 46.4459 45.081 46.5434C44.3748 46.6105 43.6573 46.9423 43.2223 47.5116C42.7865 48.0809 42.6874 48.8952 43.0699 49.4481C43.5016 50.0706 44.4166 50.2238 45.1948 50.0133C45.9738 49.802 46.6472 49.299 47.2877 48.7977C47.4647 48.6584 47.6457 48.5143 47.7579 48.3226C47.8693 48.1309 47.8956 47.8786 47.7629 47.7172" fill="#F15156"/>
<path d="M43.6412 45.5529C43.8739 45.5423 43.8575 47.0905 45.1698 48.2053C46.4796 49.3243 48.1318 49.1695 48.1416 49.3865C48.1621 49.484 47.7706 49.6831 47.0735 49.6929C46.3895 49.7085 45.3942 49.4766 44.5915 48.7951C43.7911 48.1111 43.4545 47.2076 43.4086 46.5719C43.3586 45.924 43.5356 45.5431 43.6412 45.5529Z" fill="#263238"/>
<path d="M43.17 29.9507C43.0242 30.3373 41.6029 30.1358 39.927 30.3177C38.2469 30.4659 36.8912 30.9394 36.6733 30.5888C36.5766 30.4209 36.8158 30.0596 37.3663 29.6902C37.9118 29.3216 38.7793 28.9759 39.7852 28.876C40.7912 28.7785 41.7094 28.9489 42.3156 29.2044C42.9275 29.4584 43.233 29.7672 43.17 29.9507Z" fill="#263238"/>
<path d="M56.8435 28.9848C56.5887 29.3059 55.6099 28.9577 54.4286 28.9274C53.2482 28.8562 52.244 29.1183 52.0171 28.7775C51.9188 28.6121 52.0793 28.2893 52.5208 27.9879C52.955 27.6872 53.6791 27.4464 54.4909 27.4808C55.3027 27.516 56.003 27.8183 56.4093 28.155C56.823 28.4925 56.9557 28.8283 56.8435 28.9848Z" fill="#263238"/>
<path d="M52.1235 14.7341C55.931 17.3128 58.5637 21.5592 59.8408 26.212L59.2133 30.0358C58.3221 28.1853 58.2107 26.2014 56.3848 24.3026C55.1585 23.0272 52.8919 21.8271 50.482 21.2136C43.5945 19.4606 41.2747 16.9597 38.2324 12.4609C42.6935 11.3436 48.3161 12.1554 52.1235 14.7341Z" fill="#263238"/>
<path d="M22.3883 24.835C24.3067 17.9328 30.5749 12.451 37.6712 11.4689L38.2323 12.4609C39.9755 14.4989 42.043 13.8641 43.7862 15.9021C44.2211 16.4108 44.3497 19.6301 44.448 20.292C44.5799 21.1783 44.0286 22.0392 43.3356 22.6069C41.6769 23.965 39.3521 24.0486 37.2092 24.1067C35.0663 24.1649 32.7235 24.3394 31.1622 25.8081C29.2175 27.6365 29.2602 30.7427 29.9147 33.3304C30.5683 35.9181 30.8239 40.0892 30.5569 42.7449C30.3169 45.1253 27.1713 39.3429 25.1029 40.5438C24.5254 40.8788 26.081 50.2172 25.4781 49.9297C24.8875 49.6487 24.9424 46.2853 24.7466 45.6611C23.6858 42.278 22.6209 38.8818 22.0557 35.3815C21.4913 31.8821 21.4389 28.2508 22.3883 24.835Z" fill="#263238"/>
<path d="M28.2574 42.7916C28.0969 40.5439 25.614 39.0948 23.6874 40.2637C22.6298 40.9051 21.8377 42.1674 21.9868 44.5545C22.3857 50.9193 28.6932 49.2056 28.6932 49.0229C28.6932 48.909 28.4458 45.4227 28.2574 42.7916Z" fill="#DC9070"/>
<path d="M26.6065 46.7277C26.577 46.7088 26.5009 46.8129 26.319 46.9112C26.1421 47.007 25.8316 47.0856 25.4917 46.9832C24.8028 46.7809 24.1663 45.7512 24.059 44.6069C24.0041 44.0286 24.0885 43.4691 24.2638 42.9989C24.4268 42.5205 24.7061 42.1748 25.0412 42.0921C25.3721 41.9921 25.626 42.1781 25.7153 42.3526C25.8128 42.5246 25.78 42.6548 25.8153 42.663C25.8341 42.6778 25.9447 42.5475 25.8759 42.2879C25.8415 42.1633 25.7563 42.0184 25.599 41.9061C25.4384 41.7923 25.2091 41.7439 24.9748 41.7849C24.4866 41.8512 24.0746 42.3321 23.8829 42.8482C23.6642 43.3683 23.5552 43.9982 23.6166 44.647C23.7428 45.9265 24.4792 47.0832 25.4163 47.2871C25.8718 47.374 26.2363 47.2142 26.419 47.0512C26.6049 46.8825 26.6287 46.7383 26.6065 46.7277Z" fill="#925B4C"/>
<path d="M22.3786 38.8957C23.5607 38.1626 25.1367 38.8932 26.0902 39.9049C27.0445 40.9165 27.7154 42.2141 28.8573 43.007C30 43.7999 31.9209 43.7598 32.4509 42.4737C33.1963 40.6667 30.5022 38.8801 31.0166 36.9936C31.4147 35.5314 33.4552 35.1194 34.0687 33.7334C34.688 32.3335 33.5592 30.705 33.891 29.2109C34.1482 28.0518 35.2344 27.2523 36.3484 26.8411C37.4625 26.4299 38.665 26.298 39.7741 25.8736C43.3079 24.522 45.1584 19.911 43.5398 16.4911L26.6128 16.9867L20.3447 33.178L22.3786 38.8957Z" fill="#263238"/>
<path d="M31.1163 39.4929C33.0765 40.4972 33.9956 43.1431 33.0806 45.1459C32.5744 46.2542 31.5734 47.342 31.9305 48.5069C32.223 49.4612 33.3419 49.9838 33.6245 50.9422C34.0399 52.3511 32.5031 53.4742 31.6709 54.6849C30.5675 56.2913 30.7501 58.6586 32.087 60.0766C30.7698 59.8529 29.5902 58.942 29.0406 57.724C28.4917 56.5067 28.5892 55.0183 29.2929 53.8838C29.7745 53.108 30.5462 52.3995 30.5077 51.4869C30.4487 50.06 28.4344 49.2081 28.5835 47.7877C28.6711 46.9521 29.5165 46.3255 29.5411 45.4858C29.5599 44.8576 29.1151 44.3259 28.7416 43.8197C27.0894 41.5834 26.4488 38.6279 27.0279 35.9083" fill="#263238"/>
<path d="M58.7566 273.511C58.6059 274.678 55.7315 307.282 55.7315 307.282H40.7943L38.1763 273.647L58.7566 273.511Z" fill="#DC9070"/>
<path d="M57.3567 303.989L57.3919 305.058C57.3919 305.058 75.7344 311.819 76.0268 315.254L40.0161 316.106L40.2217 304.111C45.6347 306.464 51.2442 306.611 57.3567 303.989Z" fill="#F15156"/>
<g opacity="0.6">
<path d="M43.9583 309.494C43.2661 309.701 42.8033 310.496 42.9811 311.196C43.1597 311.897 43.9641 312.375 44.6603 312.179C45.3558 311.984 45.9415 311.047 45.6859 310.371C45.4304 309.696 44.4547 309.186 43.8264 309.542" fill="white"/>
</g>
<g opacity="0.6">
<path d="M40.0151 316.105L40.0651 313.22L74.5604 313.46C74.5604 313.46 76.1798 314.119 76.0258 315.253L40.0151 316.105Z" fill="white"/>
</g>
<path d="M57.5197 306.794C57.5181 306.97 56.6408 307.07 55.7889 307.657C54.9214 308.22 54.4938 308.993 54.33 308.926C54.167 308.896 54.4045 307.839 55.4481 307.147C56.486 306.447 57.5541 306.631 57.5197 306.794Z" fill="#263238"/>
<path d="M61.3344 308.266C61.3787 308.436 60.6242 308.753 60.0443 309.51C59.4422 310.251 59.3103 311.059 59.1358 311.055C58.9712 311.086 58.8254 310.06 59.5642 309.131C60.2933 308.197 61.3262 308.099 61.3344 308.266Z" fill="#263238"/>
<path d="M63.5861 312.736C63.4272 312.778 63.1618 311.905 63.5902 310.932C64.0121 309.954 64.832 309.555 64.9098 309.7C65.0122 309.842 64.4913 310.371 64.1513 311.176C63.7933 311.972 63.7606 312.715 63.5861 312.736Z" fill="#263238"/>
<path d="M129.147 245.206C129.675 246.233 145.507 274.158 145.507 274.158L133.447 282.474L112.606 256.774L129.147 245.206Z" fill="#DC9070"/>
<path d="M130.713 278.575C130.713 278.575 143.327 278.746 143.838 270.716L146.648 272.498L163.85 287.139C164.963 288.087 165.301 289.745 164.483 290.957C163.853 291.89 162.771 292.355 161.694 292.184C155.925 291.273 134.722 287.814 133.701 286.067L130.708 281.622C130.088 280.702 130.09 279.495 130.713 278.575Z" fill="#F15156"/>
<g opacity="0.6">
<path d="M164.151 291.365L132.637 284.537L133.305 285.498C133.934 286.604 134.675 286.703 135.632 287.03C138.468 287.999 145.595 289.626 161.626 292.233C162.559 292.385 163.51 292.058 164.151 291.365Z" fill="white"/>
</g>
<g opacity="0.6">
<path d="M133.319 279.833C134.16 279.83 134.943 280.56 134.98 281.4C135.017 282.241 134.282 283.044 133.44 283.061C132.6 283.078 131.632 282.23 131.69 281.391C131.747 280.553 132.662 279.656 133.483 279.842" fill="white"/>
</g>
<path d="M152.078 285.064C152.25 285.037 151.935 283.494 152.838 281.917C153.695 280.314 155.17 279.762 155.102 279.602C155.083 279.533 154.673 279.557 154.091 279.851C153.511 280.139 152.796 280.747 152.309 281.623C151.824 282.501 151.688 283.43 151.752 284.074C151.811 284.725 152.009 285.084 152.078 285.064Z" fill="#263238"/>
<path d="M155.805 286.976C155.981 286.999 156.195 285.756 157.134 284.604C158.047 283.432 159.212 282.945 159.15 282.778C159.135 282.617 157.709 282.895 156.66 284.226C155.597 285.545 155.644 286.998 155.805 286.976Z" fill="#263238"/>
<path d="M146.365 283.263C146.546 283.297 146.867 281.382 148.17 279.464C149.444 277.524 151.089 276.495 150.988 276.341C150.941 276.194 149.037 277.051 147.666 279.127C146.274 281.189 146.212 283.275 146.365 283.263Z" fill="#263238"/>
<path d="M142.191 278.074C142.346 278.167 143.235 276.773 144.824 275.58C146.397 274.366 147.977 273.881 147.928 273.706C147.913 273.551 146.149 273.796 144.456 275.098C142.752 276.383 142.046 278.018 142.191 278.074Z" fill="#263238"/>
<path d="M145.72 274.889C145.746 274.864 145.526 274.559 145.006 274.126C144.488 273.699 143.653 273.143 142.48 272.788C141.905 272.638 141.218 272.393 140.417 272.684C140.016 272.826 139.664 273.282 139.693 273.772C139.717 274.253 139.966 274.645 140.27 274.96C141.534 276.175 143.798 276.302 145.366 275.081C146.915 273.829 147.377 271.76 146.855 270.137C146.698 269.739 146.441 269.316 145.958 269.139C145.476 268.957 144.948 269.223 144.717 269.551C144.226 270.22 144.197 270.92 144.106 271.509C143.978 272.724 144.133 273.709 144.3 274.358C144.468 275.012 144.645 275.344 144.678 275.332C144.798 275.314 144.207 273.881 144.531 271.564C144.635 271.002 144.728 270.328 145.105 269.871C145.288 269.646 145.543 269.551 145.78 269.642C146.013 269.724 146.217 270.01 146.331 270.333C146.743 271.676 146.316 273.566 144.99 274.604C143.68 275.647 141.689 275.532 140.663 274.564C140.419 274.327 140.24 274.022 140.225 273.751C140.211 273.484 140.364 273.253 140.616 273.145C141.148 272.916 141.814 273.07 142.364 273.201C144.623 273.804 145.654 274.995 145.72 274.889Z" fill="#263238"/>
<path d="M108.759 88.1144C107.871 89.5864 105.995 90.3876 104.317 90.0124C104.242 88.7951 104.166 87.5787 104.09 86.3614C101.561 91.0511 94.06 91.8907 90.5556 87.8769C89.0926 86.2009 88.235 83.8802 86.2616 82.8522C83.8181 81.5792 80.8798 82.8604 78.1242 82.8899C75.0114 82.9235 72.1247 81.3236 69.56 79.5592C66.9952 77.7947 64.5173 75.7862 61.5626 74.804C58.6079 73.8219 54.9586 74.1241 52.9165 76.4743L56.5035 97.0481C55.9277 99.4343 57.9469 101.816 60.2814 102.572C62.6168 103.328 65.1464 102.906 67.5744 102.545C70.0023 102.185 72.5867 101.912 74.8222 102.925C77.8236 104.286 80.2073 107.881 83.4282 107.183C85.8873 106.651 87.1136 103.831 89.3097 102.603C91.6009 101.321 94.4335 101.993 97.0564 101.871C103.8 101.557 109.53 94.8216 108.759 88.1144Z" fill="#263238"/>
<path d="M54.2119 70.4233L66.808 68.2886L78.9773 63.5915C78.9773 63.5915 80.4714 61.8836 81.5396 60.3887C82.607 58.8945 107.373 36.9036 107.373 36.9036L111.216 31.353L122.745 36.2638L120.396 39.4667C120.396 39.4667 121.463 41.8152 120.182 44.1637C118.901 46.5122 96.4834 71.7052 90.719 77.6834C84.9546 83.6616 69.7963 92.2012 69.7963 92.2012L58.0537 87.5042L54.2119 70.4233Z" fill="#FFCD4B"/>
<path d="M63.1792 77.4688C63.1792 77.4688 73.4268 98.8191 74.0674 104.796C74.708 110.775 71.7189 121.449 71.7189 121.449L21.7597 124.011L14.7142 121.449C14.7142 121.449 8.73603 110.988 7.45488 99.4589C6.17372 87.9301 6.60132 90.4916 7.45488 81.5252C8.30925 72.5579 16.1706 68.3967 19.222 67.2523C24.2581 65.3642 54.4045 71.2817 54.4045 71.2817L63.1792 77.4688Z" fill="#FFCD4B"/>
<path d="M76.1668 131.644C76.1668 131.644 76.1881 131.777 76.2135 132.037C76.2381 132.31 76.2725 132.695 76.3175 133.197C76.3552 133.709 76.4076 134.343 76.5412 135.087C76.6608 135.832 76.764 136.7 77.0048 137.658C77.8059 141.511 79.7211 147.021 83.472 153.247C85.3282 156.365 87.5989 159.67 90.1841 163.157C92.7604 166.652 95.6913 170.304 98.6263 174.33C101.551 178.357 104.523 182.75 106.99 187.724C109.446 192.682 111.32 198.311 111.663 204.358L111.716 205.297L111.285 204.459C110.556 203.045 108.722 202.47 107.137 202.707C105.494 202.949 104.016 203.87 102.55 204.777C99.5847 206.585 96.5514 208.42 93.3895 210.15C90.2349 211.892 86.9845 213.589 83.6088 215.141C80.2486 216.725 76.7607 218.156 73.1728 219.425C63.4249 222.894 53.3182 224.66 43.8284 224.135L43.6908 224.128L43.6441 223.999C34.3999 198.164 28.6716 174.941 25.3279 158.288C23.6461 149.958 22.5108 143.269 21.7916 138.666C21.4205 136.367 21.1821 134.583 21.0035 133.381C20.9208 132.787 20.8577 132.333 20.8127 132.014C20.7717 131.706 20.7603 131.548 20.7603 131.548C20.7603 131.548 20.7963 131.702 20.8495 132.008C20.9028 132.327 20.9773 132.779 21.0756 133.37C21.2722 134.583 21.5597 136.354 21.9316 138.644C22.6943 143.239 23.8706 149.918 25.5867 158.236C29.0001 174.865 34.7759 198.056 44.0332 223.86L43.8497 223.723C53.2765 224.236 63.3217 222.479 73.0295 219.024C76.6018 217.761 80.0783 216.336 83.4278 214.758C86.7928 213.211 90.0359 211.521 93.1839 209.785C96.34 208.061 99.3693 206.231 102.331 204.429C103.797 203.527 105.318 202.567 107.076 202.308C107.952 202.182 108.851 202.272 109.672 202.588C110.488 202.901 111.236 203.48 111.639 204.279L111.26 204.381C110.928 198.403 109.084 192.823 106.652 187.891C104.21 182.943 101.259 178.559 98.3494 174.532C95.4308 170.506 92.5122 166.845 89.9433 163.336C87.3662 159.834 85.1038 156.512 83.2566 153.376C79.5237 147.113 77.6356 141.563 76.8729 137.688C76.6419 136.725 76.5494 135.853 76.4396 135.104C76.3167 134.357 76.2749 133.721 76.2479 133.207C76.2176 132.703 76.1939 132.317 76.1775 132.043C76.1652 131.778 76.1668 131.644 76.1668 131.644Z" fill="#F15156"/>
<path d="M96.2878 164.328C88.6844 155.941 75.0423 132.272 71.719 121.45L17.0136 123.82C10.5357 141.654 3.98909 159.812 2.9799 178.76C1.96088 197.891 6.64641 216.936 6.20981 236.088C5.79204 254.393 0.976259 274.077 9.84439 290.097C15.6972 284.426 24.5883 283.072 32.6905 283.943C40.7927 284.815 48.5657 287.584 56.5876 289.019C64.6095 290.452 73.3876 290.398 80.2897 286.067C86.7471 282.016 90.5201 274.941 95.1803 268.908C99.8404 262.875 106.785 257.31 114.307 258.55C120.117 259.507 124.587 264.288 130.214 266.023C138.637 268.621 147.576 263.894 154.274 258.163C160.971 252.433 166.881 245.391 175 241.96C147.343 217.576 121.052 191.645 96.2878 164.328Z" fill="#FFCD4B"/>
<path d="M80.873 69.6549C80.9778 69.7098 78.5498 74.5616 75.4517 80.4906C72.3529 86.4221 69.7562 91.1846 69.6521 91.1297C69.5481 91.0748 71.9744 86.2247 75.0741 80.2932C78.1721 74.3642 80.7689 69.6008 80.873 69.6549Z" fill="#263238"/>
<path d="M59.8622 78.7114C59.8843 78.6918 60.0891 78.8875 60.4405 79.2578C60.7936 79.6272 61.2851 80.1785 61.8765 80.874C63.0594 82.2641 64.619 84.2505 66.1942 86.5499C67.7678 88.8517 69.0547 91.0249 69.9214 92.6313C70.3556 93.434 70.6914 94.0918 70.9076 94.5546C71.1255 95.0166 71.2337 95.2779 71.2075 95.2919C71.1509 95.3214 70.5915 94.3433 69.6593 92.7803C68.7279 91.2174 67.4074 89.0811 65.842 86.7907C64.275 84.5028 62.762 82.4975 61.6422 81.064C60.5241 79.6289 59.8139 78.7532 59.8622 78.7114Z" fill="#263238"/>
<g opacity="0.3">
<path d="M58.1368 81.6087C55.9619 84.5135 52.981 87.1855 49.3645 87.4804C46.1723 87.7401 43.148 86.1018 40.4955 84.307C33.9006 79.8451 27.2401 73.5393 22.874 66.8812C23.2532 71.045 24.93 75.3209 27.4588 78.6508C29.9875 81.9806 33.1084 84.8059 36.2089 87.6107C39.5543 90.6358 43.2692 93.8239 47.7712 94.1032C50.9151 94.2982 54.1172 92.9138 56.1282 90.49C58.1392 88.0653 58.9092 84.6617 58.1368 81.6087Z" fill="black"/>
</g>
<path d="M23.0124 66.9829C26.5954 75.6315 32.9512 83.1054 40.9117 88.031C43.7583 89.7921 47.0824 91.2756 50.3639 90.6146C54.3654 89.8085 57.162 85.9225 57.9689 81.9209C58.7749 77.9194 57.9943 73.7884 57.2153 69.7819C45.9183 70.2071 33.2649 67.2958 22.0737 65.6919" fill="#F15156"/>
<path d="M54.3863 75.7051C54.3961 75.7157 54.306 75.8058 54.1233 75.9688C53.9406 76.1294 53.6474 76.3498 53.2296 76.5586C52.4096 76.9985 51.0302 77.336 49.364 77.1214C48.5334 77.0215 47.6414 76.7774 46.737 76.3891C45.8294 75.9992 44.9406 75.4389 44.0535 74.7942C42.2718 73.5098 40.5827 71.7904 38.5365 70.3798C34.4293 67.5185 29.8535 66.4986 26.6146 66.3561C24.982 66.275 23.6558 66.3635 22.7457 66.4651C21.8356 66.5707 21.3319 66.6502 21.3253 66.615C21.322 66.6002 21.4449 66.565 21.6816 66.5093C21.9192 66.4601 22.2665 66.3659 22.7236 66.3004C23.6337 66.1481 24.9714 66.0113 26.6269 66.0547C29.9108 66.121 34.5898 67.1097 38.7798 70.0292C40.8711 71.4742 42.5487 73.2009 44.2869 74.478C45.1503 75.1194 46.0153 75.6781 46.8804 76.0663C47.747 76.4546 48.6055 76.7077 49.4058 76.8232C51.0105 77.0673 52.3425 76.7896 53.1591 76.4096C53.984 76.0319 54.3568 75.6666 54.3863 75.7051Z" fill="#263238"/>
<path d="M57.2332 70.18C57.2471 70.1767 57.2848 70.2906 57.3438 70.5142C57.4126 70.7362 57.4748 71.0704 57.5224 71.5078C57.6149 72.3778 57.5756 73.6876 57.0383 75.1817C56.5017 76.6546 55.4622 78.3445 53.7043 79.5355C51.9579 80.7348 49.5397 81.2328 47.1503 80.8642C44.7502 80.516 42.6236 79.4806 40.9501 78.2552C39.2692 77.0256 37.975 75.6642 36.9518 74.4871C35.9328 73.3026 35.1726 72.2959 34.6541 71.5963C34.1372 70.8951 33.8661 70.497 33.889 70.479C33.9128 70.461 34.2282 70.8247 34.7844 71.4939C35.3422 72.1607 36.1368 73.1371 37.1771 74.2872C38.2207 75.4299 39.5215 76.7504 41.1787 77.9357C42.8251 79.1153 44.8951 80.1057 47.2101 80.4415C49.5135 80.7962 51.8162 80.3276 53.4839 79.2079C55.1698 78.0922 56.2003 76.4866 56.7548 75.0744C57.311 73.6417 57.397 72.3737 57.3561 71.5177C57.3225 70.6576 57.1832 70.1906 57.2332 70.18Z" fill="#263238"/>
<g opacity="0.3">
<path d="M87.8841 151.978L12.7197 139.156C12.5321 145.091 15.9815 150.711 20.6433 154.39C25.3051 158.068 31.0604 160.07 36.8076 161.564C42.5548 163.059 48.4371 164.119 53.9917 166.219C60.2476 168.584 66.0079 172.239 72.4554 174.017C82.0157 176.655 92.5803 174.868 100.664 169.124C95.961 163.525 89.8763 158.431 87.8841 151.978Z" fill="black"/>
</g>
<path d="M97.13 136.005C92.7173 137.681 88.8763 140.548 84.7469 142.835C80.6168 145.12 75.873 146.864 71.2375 145.978C67.5669 145.276 64.4213 143.021 61.2324 141.071C51.6827 135.231 40.7036 131.749 29.5345 131.017L7.69924 78.2322C4.71507 84.9623 2.43292 93.9672 2.83513 103.011C3.23733 112.057 2.37721 121.264 6.48443 129.332C10.8988 138.003 17.0482 146.543 26.1522 149.977C32.943 152.538 40.652 151.96 47.3248 154.816C52.7271 157.13 56.9695 161.488 62.0163 164.499C69.9989 169.263 80.0434 170.421 88.9 167.598C94.689 165.754 99.8537 162.349 105.505 160.116C111.155 157.883 117.855 156.941 123.108 159.996C126.398 153.524 129.689 147.053 132.978 140.582C121.476 136.119 108.665 131.625 97.13 136.005Z" fill="#F15156"/>
<path d="M27.2545 83.8876C29.0509 88.8558 33.6939 111.855 33.6939 111.855L34.8341 114.487L68.5168 124.011V132.979C68.5168 132.979 59.5496 135.754 46.9535 135.327C34.3566 134.9 22.1872 132.124 18.5576 129.349C14.9279 126.574 10.5275 114.293 9.08489 107.594C7.64237 100.894 6.62251 80.0425 8.83586 77.0535" fill="#FFCD4B"/>
<path d="M8.83601 77.0535C8.84666 77.06 8.75657 77.1927 8.62633 77.4696C8.50919 77.7538 8.35355 78.1863 8.23723 78.7778C7.98247 79.9549 7.80061 81.73 7.71051 84.0195C7.56224 88.5969 7.67037 95.255 8.587 103.399C8.98839 107.481 10.24 111.81 11.83 116.353C12.6402 118.619 13.5519 120.94 14.67 123.244C15.2287 124.395 15.8389 125.542 16.541 126.648C17.2643 127.734 18.0523 128.821 19.1745 129.524C21.455 130.909 24.1623 131.697 26.886 132.414C29.6285 133.113 32.4751 133.654 35.3888 134.079C41.2179 134.904 47.3312 135.361 53.5674 135.058C58.7002 134.779 63.7429 134.085 68.4546 132.778L68.3064 132.979C68.308 129.933 68.3097 126.941 68.3113 124.011L68.4612 124.21C55.8069 120.614 44.3397 117.356 34.7908 114.643L34.7171 114.621L34.6868 114.551C34.2846 113.616 33.9143 112.758 33.5523 111.917L33.5457 111.901L33.5424 111.885C31.7911 103.197 30.2855 96.1782 29.1665 91.3468C28.607 88.9311 28.1475 87.0602 27.8002 85.8028C27.6364 85.1704 27.4914 84.6953 27.3914 84.3759C27.2948 84.0556 27.2563 83.8868 27.2563 83.8868C27.2563 83.8868 27.5266 84.5208 27.8862 85.7782C28.2622 87.0307 28.7488 88.8959 29.3345 91.3067C30.5058 96.129 32.0573 103.139 33.848 111.823L33.8381 111.792C34.2043 112.632 34.577 113.489 34.9833 114.421L34.8793 114.331C44.4347 117.02 55.9102 120.249 68.5734 123.812L68.7233 123.854V124.01C68.725 126.94 68.7266 129.931 68.7283 132.977V133.137L68.58 133.178C63.8052 134.506 58.7575 135.2 53.5895 135.482C47.3156 135.787 41.1802 135.325 35.329 134.491C32.403 134.06 29.545 133.514 26.7853 132.807C24.0387 132.077 21.3289 131.294 18.9607 129.852C17.7697 129.102 16.9456 127.955 16.2174 126.855C15.5056 125.727 14.892 124.567 14.3325 123.405C13.2119 121.08 12.3035 118.747 11.4966 116.469C9.91649 111.912 8.67138 107.538 8.2872 103.433C7.40661 95.2624 7.34517 88.5994 7.54504 84.0105C7.66054 81.7169 7.87025 79.9369 8.15368 78.7573C8.28474 78.1651 8.45595 77.7309 8.58783 77.4491C8.732 77.1755 8.83601 77.0535 8.83601 77.0535Z" fill="#263238"/>
<path d="M89.3299 257.726C89.325 257.731 89.2709 257.687 89.1718 257.594C89.0555 257.483 88.9129 257.345 88.7376 257.177C88.3379 256.778 87.7899 256.232 87.0969 255.542C86.3842 254.831 85.5217 253.954 84.5469 252.91C83.5688 251.868 82.4359 250.699 81.2416 249.355C78.812 246.702 76.0113 243.458 72.9968 239.779C70.0036 236.082 66.809 231.939 63.6175 227.471C60.4417 222.99 57.5738 218.613 55.0615 214.573C52.5729 210.518 50.4267 206.809 48.7172 203.643C47.8382 202.074 47.1051 200.621 46.4416 199.356C45.774 198.093 45.2284 196.99 44.791 196.084C44.3658 195.203 44.0292 194.507 43.7842 193.999C43.6827 193.778 43.6 193.598 43.532 193.452C43.4771 193.327 43.4525 193.262 43.459 193.259C43.4656 193.256 43.5033 193.315 43.5713 193.433C43.6491 193.574 43.7441 193.747 43.8613 193.961C44.1234 194.46 44.4838 195.144 44.9384 196.01C45.398 196.903 45.9648 197.995 46.6521 199.245C47.3345 200.499 48.0856 201.94 48.9801 203.498C50.7217 206.641 52.8916 210.329 55.3941 214.366C57.9203 218.389 60.7931 222.752 63.9632 227.224C67.1489 231.684 70.328 235.827 73.2999 239.532C76.2931 243.219 79.0659 246.478 81.4636 249.154C82.6423 250.51 83.758 251.692 84.7189 252.748C85.6765 253.807 86.521 254.701 87.2148 255.428C87.8833 256.142 88.4116 256.706 88.7974 257.118C88.9604 257.299 89.0931 257.445 89.2013 257.565C89.2922 257.666 89.3356 257.721 89.3299 257.726Z" fill="#263238"/>
<path d="M139.812 251.14C139.81 251.148 139.713 251.13 139.523 251.088C139.314 251.039 139.038 250.975 138.687 250.894C138.312 250.802 137.86 250.692 137.33 250.564C136.791 250.439 136.175 250.28 135.495 250.051C132.737 249.263 128.829 247.792 124.284 245.405C119.729 243.034 114.632 239.598 109.444 235.224C104.256 230.847 99.0239 225.499 93.9533 219.541C88.9 213.563 84.3971 207.622 80.2809 202.244C76.172 196.859 72.435 192.04 69.1527 188.111C65.8769 184.176 63.1025 181.097 61.1193 179.033C60.147 177.981 59.3425 177.214 58.8257 176.665C58.5775 176.405 58.3809 176.201 58.2318 176.045C58.0999 175.904 58.0344 175.829 58.0393 175.823C58.0442 175.818 58.1196 175.882 58.2621 176.014C58.4185 176.161 58.625 176.356 58.8855 176.602C59.4228 177.132 60.2469 177.882 61.2389 178.917C63.2614 180.948 66.0743 184.002 69.3837 187.917C72.6996 191.826 76.4661 196.632 80.5922 202.004C84.7256 207.37 89.235 213.298 94.2777 219.264C99.3368 225.208 104.544 230.546 109.697 234.924C114.851 239.298 119.908 242.743 124.425 245.138C128.933 247.548 132.808 249.057 135.543 249.891C136.217 250.132 136.829 250.303 137.362 250.441C137.887 250.585 138.335 250.708 138.707 250.81C139.052 250.909 139.325 250.987 139.531 251.046C139.719 251.101 139.813 251.133 139.812 251.14Z" fill="#263238"/>
<path d="M20.52 200.79C20.5266 200.787 20.5676 200.857 20.6405 200.998C20.7224 201.161 20.8264 201.369 20.9558 201.627C21.2385 202.212 21.6324 203.028 22.1329 204.064C23.1512 206.217 24.6019 209.284 26.3884 213.061C29.9558 220.7 34.8626 231.207 40.2829 242.813C42.9967 248.621 45.5304 254.187 47.9108 259.199C49.1248 261.69 50.4035 263.998 51.8534 265.982C53.2984 267.966 54.8982 269.636 56.6004 270.838C58.2903 272.062 60.0375 272.838 61.6201 273.315C63.2134 273.773 64.6518 273.895 65.8158 273.849C68.1627 273.746 69.3497 273.075 69.3677 273.157C69.3701 273.163 69.2964 273.197 69.1498 273.257C68.9794 273.324 68.7623 273.409 68.492 273.514C67.8998 273.69 67.0101 273.958 65.824 274.015C64.6453 274.088 63.1806 273.989 61.5554 273.546C59.9417 273.083 58.1559 272.314 56.4259 271.085C54.6811 269.877 53.0428 268.19 51.5683 266.192C50.0881 264.193 48.7865 261.869 47.5578 259.373C45.1511 254.355 42.6109 248.805 39.8962 242.993C34.5201 231.367 29.6536 220.841 26.1157 213.189C24.3807 209.387 22.9718 206.302 21.9831 204.135C21.5137 203.084 21.1434 202.257 20.8788 201.664C20.765 201.398 20.6732 201.185 20.6011 201.017C20.5405 200.871 20.5135 200.794 20.52 200.79Z" fill="#263238"/>
<path d="M58.1342 120.455C58.0548 120.41 58.8026 119.251 59.5497 117.185C59.7332 116.668 59.929 116.1 60.0748 115.472C60.2599 114.853 60.3672 114.172 60.5024 113.461C60.7121 112.029 60.8169 110.436 60.7211 108.766C60.6023 107.097 60.2951 105.53 59.9036 104.136C59.6783 103.448 59.4858 102.786 59.2229 102.196C58.9976 101.591 58.7314 101.054 58.4832 100.564C57.4781 98.6103 56.5885 97.556 56.6614 97.5019C56.6843 97.4831 56.9096 97.7403 57.3003 98.2244C57.501 98.4628 57.7337 98.7643 57.9671 99.1402C58.2047 99.513 58.5028 99.9225 58.7494 100.423C59.0181 100.911 59.3056 101.451 59.5497 102.061C59.8315 102.656 60.0412 103.325 60.2804 104.024C60.7006 105.439 61.0266 107.038 61.1471 108.74C61.2454 110.443 61.1258 112.071 60.8898 113.527C60.7416 114.25 60.6195 114.942 60.4164 115.567C60.2525 116.202 60.0371 116.775 59.8323 117.293C59.6513 117.821 59.408 118.266 59.2196 118.666C59.0369 119.069 58.8436 119.397 58.6757 119.659C58.3497 120.187 58.1588 120.471 58.1342 120.455Z" fill="#263238"/>
<g opacity="0.3">
<path d="M58.6214 119.392C62.1519 117.655 64.2522 113.576 64.0204 109.648C63.7894 105.72 61.4237 102.074 58.1528 99.8856C61.6113 105.84 61.7481 113.588 58.501 119.661" fill="black"/>
</g>
<path d="M113.575 146.09C113.569 146.109 113.24 146.017 112.609 145.883C111.975 145.758 111.025 145.629 109.801 145.67C107.355 145.715 103.823 146.689 100.121 149.057C98.2597 150.221 96.3428 151.682 94.2507 153.215C92.1627 154.745 89.856 156.337 87.1635 157.525C84.4701 158.675 81.4449 159.504 78.2388 159.596C75.0548 159.707 71.6528 159.098 68.6957 157.371C65.7189 155.666 63.5113 153.142 61.0759 151.159C58.6832 149.097 55.853 147.849 53.0335 147.217C50.2124 146.568 47.4445 146.386 44.8641 146.232C42.2814 146.087 39.8599 145.979 37.6695 145.657C33.2797 145.074 29.8704 143.658 27.8807 142.178C27.3654 141.834 26.9673 141.449 26.6012 141.145C26.2694 140.802 25.9761 140.525 25.7648 140.277C25.5739 140.038 25.4216 139.848 25.302 139.7C25.1996 139.568 25.1504 139.499 25.1562 139.494C25.2168 139.43 25.9434 140.651 27.9757 142.042C29.972 143.462 33.3477 144.817 37.7097 145.358C39.8845 145.659 42.2928 145.749 44.8821 145.879C47.4674 146.018 50.2541 146.187 53.1212 146.835C55.9792 147.46 58.9085 148.744 61.3405 150.836C63.8111 152.845 66.0113 155.347 68.9078 157.002C71.7839 158.682 75.1014 159.282 78.2249 159.179C81.3688 159.095 84.3497 158.289 87.0062 157.166C89.6586 156.007 91.9489 154.445 94.0427 152.929C96.1381 151.413 98.0745 149.958 99.9619 148.801C103.72 146.442 107.318 145.498 109.796 145.504C111.037 145.489 111.994 145.646 112.627 145.799C112.944 145.869 113.178 145.957 113.338 146.003C113.497 146.054 113.578 146.083 113.575 146.09Z" fill="#263238"/>
<path d="M68.5172 124.496C68.5172 124.011 75.385 124.011 75.385 124.011L83.357 117.788L93.856 110.594C93.856 110.594 95.12 110.4 94.925 111.858C94.7309 113.316 90.3558 117.107 90.3558 117.107H93.9527L99.0077 123.819C99.0077 123.819 99.2993 124.594 97.6471 124.496C95.9948 124.399 95.6057 123.33 95.6057 123.33V130.329C95.6057 130.329 94.1476 131.204 93.6611 129.065C93.1753 126.927 93.6611 124.594 93.6611 124.594L90.8416 130.506C90.8416 130.506 89.7726 129.357 89.7726 128.676C89.7726 127.996 91.5223 125.177 91.5223 125.177L90.6474 123.819L88.9174 124.399L81.1207 130.506L67.7915 133.182V124.594" fill="#DC9070"/>
<path d="M90.5464 117.026C90.5513 117.154 89.2513 117.217 87.808 117.829C86.3564 118.422 85.3947 119.3 85.3071 119.205C85.2203 119.141 86.1009 118.069 87.6441 117.435C89.1809 116.788 90.5628 116.919 90.5464 117.026Z" fill="#925B4C"/>
<path d="M95.4653 123.643C95.403 123.666 95.1966 123.127 94.8231 122.298C94.452 121.495 93.8262 120.319 92.6138 119.748C92.0191 119.472 91.3704 119.461 90.7896 119.535C90.2055 119.611 89.6747 119.751 89.2225 119.843C88.3157 120.05 87.7218 120.028 87.7227 119.971C87.7202 119.909 88.2739 119.828 89.148 119.551C89.5879 119.422 90.1121 119.25 90.7339 119.145C91.3466 119.043 92.0978 119.037 92.7908 119.359C94.1825 120.022 94.7919 121.336 95.1024 122.182C95.412 123.064 95.5136 123.626 95.4653 123.643Z" fill="#925B4C"/>
<path d="M89.3281 121.695C89.347 121.634 89.7017 121.684 90.2833 121.564C90.5757 121.515 90.9271 121.429 91.3572 121.418C91.7758 121.388 92.3369 121.563 92.6686 121.961C92.9979 122.344 93.2166 122.7 93.4337 123.062C93.6385 123.423 93.7679 123.801 93.7851 124.128C93.8277 124.802 93.491 125.134 93.4591 125.089C93.4026 125.059 93.5975 124.721 93.4861 124.166C93.4034 123.625 92.9013 122.931 92.3565 122.25C91.811 121.603 90.9132 121.852 90.3185 121.863C89.6926 121.912 89.3052 121.747 89.3281 121.695Z" fill="#925B4C"/>
<path d="M76.4997 122.446C79.9483 121.545 82.3927 123.063 83.9294 126.279C85.4661 129.494 84.4102 133.731 81.544 135.849C80.022 136.974 78.0946 137.51 76.204 137.422C74.9449 137.364 73.6613 137.019 72.689 136.217C71.7167 135.415 71.0523 133.71 71.3103 132.476L73.604 132.015C73.604 132.015 76.0811 132.115 75.692 128.211C75.3029 124.307 73.0691 124.022 71.3103 124.097L76.4997 122.446Z" fill="#F15156"/>
<path d="M46.2895 22.568C45.8656 23.3151 45.5004 24.1462 45.215 24.9563C45.0492 25.4271 44.8015 26.1218 44.8666 26.6164C44.9317 27.111 45.094 27.4909 45.5459 27.7035C45.9971 27.9162 46.8611 27.6902 47.0926 27.2481C47.2354 26.976 47.2179 26.6507 47.1871 26.345C47.0556 25.0536 46.7533 23.7796 46.2895 22.568Z" fill="#F15156"/>
<path d="M46.2895 22.5679C46.33 22.5511 46.6462 23.1681 46.9506 24.2441C47.1017 24.7813 47.2444 25.4333 47.3353 26.1672C47.3682 26.5198 47.4703 26.9612 47.2052 27.4033C46.8981 27.8091 46.4364 27.9483 45.9691 27.9665C45.4731 27.991 45.0016 27.6412 44.8372 27.2172C44.6672 26.8108 44.649 26.3687 44.7343 25.9895C44.905 25.2431 45.1736 24.6463 45.3912 24.13C45.8487 23.1101 46.2503 22.5434 46.2895 22.5679C46.337 22.5945 46.0187 23.2003 45.6305 24.228C45.4486 24.7401 45.2023 25.3662 45.0652 26.0511C45.0365 26.2211 45.0176 26.3981 45.0358 26.5611C45.0561 26.7345 45.096 26.9178 45.1646 27.0738C45.2975 27.3844 45.6067 27.616 45.9677 27.6013C46.3293 27.5985 46.7358 27.4446 46.9086 27.2039C47.0793 26.9486 47.0373 26.5596 47.0016 26.2036C46.931 25.4837 46.8169 24.8408 46.7001 24.3049C46.4651 23.2339 46.2363 22.5875 46.2895 22.5679Z" fill="#E0E0E0"/>
<path d="M31.5376 16.3831C43.5458 23.7621 49.1273 23.9388 57.7504 19.6597C48.8238 23.0981 43.1729 22.7088 31.5376 16.3831Z" stroke="#E0E0E0" stroke-width="0.819151"/>
<path d="M46.8439 22.3133C46.8439 22.6113 46.6018 22.8533 46.3038 22.8533C46.0058 22.8533 45.7637 22.612 45.7637 22.3133C45.7637 22.0145 46.0058 21.7732 46.3038 21.7732C46.6025 21.7732 46.8439 22.0152 46.8439 22.3133Z" fill="#E0E0E0"/>
<path d="M39.5611 21.3459C39.5611 21.6439 39.319 21.8859 39.021 21.8859C38.723 21.8859 38.481 21.6439 38.481 21.3459C38.481 21.0478 38.723 20.8058 39.021 20.8058C39.319 20.8058 39.5611 21.0478 39.5611 21.3459Z" fill="#E0E0E0"/>
<path d="M42.7124 22.4259C42.7124 22.724 42.4704 22.966 42.1724 22.966C41.8744 22.966 41.6323 22.724 41.6323 22.4259C41.6323 22.1279 41.8744 21.8859 42.1724 21.8859C42.4704 21.8859 42.7124 22.1272 42.7124 22.4259Z" fill="#E0E0E0"/>
<path d="M36.4219 19.9069C36.4219 20.2049 36.1799 20.447 35.8819 20.447C35.5839 20.447 35.3418 20.2049 35.3418 19.9069C35.3418 19.6089 35.5839 19.3668 35.8819 19.3668C36.1799 19.3668 36.4219 19.6089 36.4219 19.9069Z" fill="#E0E0E0"/>
<path d="M50.2784 22.9905C50.2784 23.2885 50.0363 23.5306 49.7383 23.5306C49.4403 23.5306 49.1982 23.2892 49.1982 22.9905C49.1982 22.6918 49.4403 22.4504 49.7383 22.4504C50.0363 22.4504 50.2784 22.6925 50.2784 22.9905Z" fill="#E0E0E0"/>
<path d="M53.8604 22.1328C53.8604 22.4309 53.6184 22.6729 53.3204 22.6729C53.0223 22.6729 52.7803 22.4309 52.7803 22.1328C52.7803 21.8348 53.0223 21.5928 53.3204 21.5928C53.6184 21.5935 53.8604 21.8348 53.8604 22.1328Z" fill="#E0E0E0"/>
<path d="M57.3462 20.684C57.3462 20.982 57.1042 21.2241 56.8061 21.2241C56.5081 21.2241 56.2661 20.982 56.2661 20.684C56.2661 20.386 56.5081 20.1439 56.8061 20.1439C57.1049 20.1439 57.3462 20.3853 57.3462 20.684Z" fill="#E0E0E0"/>
<path d="M25.6539 48.33C25.1662 50.0022 24.6784 51.6756 24.2994 53.376C24.1727 53.9451 24.0606 54.5555 24.2741 55.098C24.5582 55.8209 25.3653 56.2265 26.14 56.2743C26.8012 56.3152 27.5281 56.101 27.8907 55.5466C28.2886 54.9382 28.2064 54.1176 27.9676 53.4316C27.3466 51.6449 26.488 49.9788 25.6539 48.33Z" fill="#E0E0E0"/>
<path d="M25.8533 50.4915C25.5577 51.505 25.2621 52.5193 25.0323 53.5501C24.9554 53.8951 24.8875 54.2651 25.0172 54.5938C25.1897 55.0317 25.6787 55.2779 26.1484 55.3069C26.5491 55.3318 26.9899 55.2018 27.2094 54.8657C27.4506 54.497 27.4008 53.9998 27.256 53.5836C26.8795 52.501 26.359 51.4907 25.8533 50.4915Z" fill="#F15156"/>
<path d="M26.8054 56.7609C26.8054 57.0409 26.5785 57.2679 26.2985 57.2679C26.0184 57.2679 25.7915 57.0409 25.7915 56.7609C25.7915 56.4808 26.0184 56.2539 26.2985 56.2539C26.5785 56.2539 26.8054 56.4808 26.8054 56.7609Z" fill="#E0E0E0"/>
<path d="M25.6427 56.3431C25.6427 56.4829 25.5291 56.5966 25.3892 56.5966C25.2494 56.5966 25.1357 56.4829 25.1357 56.3431C25.1357 56.2033 25.2494 56.0896 25.3892 56.0896C25.5295 56.0896 25.6427 56.2028 25.6427 56.3431Z" fill="#E0E0E0"/>
<path d="M27.3864 56.3814C27.3864 56.5212 27.2727 56.6349 27.1329 56.6349C26.9931 56.6349 26.8794 56.5217 26.8794 56.3814C26.8794 56.2416 26.9931 56.1279 27.1329 56.1279C27.2727 56.1279 27.3864 56.2416 27.3864 56.3814Z" fill="#E0E0E0"/>
<path d="M28.091 55.9582C28.091 56.098 27.9774 56.2117 27.8375 56.2117C27.6977 56.2117 27.584 56.098 27.584 55.9582C27.584 55.8184 27.6977 55.7047 27.8375 55.7047C27.9774 55.7047 28.091 55.8184 28.091 55.9582Z" fill="#E0E0E0"/>
<path d="M28.4821 55.3933C28.4821 55.5331 28.3689 55.6467 28.2286 55.6467C28.0888 55.6467 27.9751 55.5331 27.9751 55.3933C27.9751 55.2534 28.0884 55.1398 28.2286 55.1398C28.3685 55.1398 28.4821 55.2534 28.4821 55.3933Z" fill="#E0E0E0"/>
<path d="M28.653 54.7001C28.653 54.84 28.5393 54.9536 28.3995 54.9536C28.2597 54.9536 28.146 54.84 28.146 54.7001C28.146 54.5603 28.2597 54.4467 28.3995 54.4467C28.5397 54.4467 28.653 54.5603 28.653 54.7001Z" fill="#E0E0E0"/>
<path d="M24.7759 56.3036C24.9159 56.3036 25.0294 56.1901 25.0294 56.0501C25.0294 55.9101 24.9159 55.7966 24.7759 55.7966C24.6359 55.7966 24.5225 55.9101 24.5225 56.0501C24.5225 56.1901 24.6359 56.3036 24.7759 56.3036Z" fill="#E0E0E0"/>
<path d="M24.0089 55.3098C24.1489 55.3098 24.2623 55.1963 24.2623 55.0563C24.2623 54.9163 24.1489 54.8029 24.0089 54.8029C23.8689 54.8029 23.7554 54.9163 23.7554 55.0563C23.7554 55.1963 23.8689 55.3098 24.0089 55.3098Z" fill="#E0E0E0"/>
<path d="M24.5401 55.6005C24.5401 55.7404 24.4265 55.854 24.2866 55.854C24.1468 55.854 24.0332 55.7404 24.0332 55.6005C24.0332 55.4607 24.1464 55.347 24.2866 55.347C24.4265 55.347 24.5401 55.4607 24.5401 55.6005Z" fill="#E0E0E0"/>
</g>
<defs>
<clipPath id="clip0_529_79">
<rect width="175" height="317" fill="white"/>
</clipPath>
</defs>
</svg>
