<svg width="175" height="317" viewBox="0 0 175 317" fill="none" xmlns="http://www.w3.org/2000/svg">
<path d="M108.902 0.000818701C108.902 0.000818701 106.885 1.79312 107.558 4.14654C108.23 6.49914 114.28 20.2814 114.28 20.2814L115.289 25.3232L114.504 27.9003L111.354 33.2788L120.891 36.752L123.58 31.0376C123.58 31.0376 125.933 30.0293 126.493 27.9003C127.053 25.7713 127.726 21.1775 126.493 18.376C125.26 15.5745 123.916 12.4372 123.916 12.4372C123.916 12.4372 125.485 12.2135 125.821 11.6532C126.157 11.0929 125.597 9.86012 125.597 9.86012C125.597 9.86012 124.364 7.28307 123.58 7.50752C122.796 7.73115 119.883 9.41204 119.883 9.41204L119.658 7.73114L121.227 6.38692C121.227 6.38692 122.908 7.05944 123.579 6.27469C124.252 5.49077 123.915 5.04187 123.915 5.04187C123.915 5.04187 122.682 2.9129 121.563 3.02513C120.442 3.13735 118.425 4.48158 118.425 4.48158C118.425 4.48158 121.227 2.12897 120.554 1.45645C119.882 0.783927 118.647 0.448078 117.303 1.00838C115.96 1.56868 113.943 4.37017 113.943 4.37017L113.719 7.3953C113.719 7.3953 110.806 4.0335 110.581 3.02513C110.357 2.01675 110.021 0 109.461 0" fill="#DC9070"/>
<path d="M122.43 25.5296C122.333 25.5321 122.687 24.0642 122.088 21.8336C121.781 20.7327 121.204 19.4687 120.217 18.3236C119.733 17.7452 119.126 17.1514 118.782 16.3166C118.443 15.4762 118.48 14.5522 118.505 13.6749C118.531 12.8189 118.515 11.9751 118.183 11.2887C117.858 10.6203 117.179 10.1181 116.522 10.1894L116.696 10.0256C116.301 12.3298 115.951 14.2901 115.689 15.6728C115.563 16.3027 115.457 16.836 115.367 17.2832C115.285 17.656 115.231 17.8558 115.209 17.8517C115.187 17.8485 115.199 17.642 115.241 17.2628C115.299 16.8106 115.37 16.2708 115.453 15.6343C115.647 14.2409 115.943 12.2725 116.307 9.96249L116.331 9.81422L116.481 9.79784C117.365 9.70281 118.171 10.3237 118.559 11.1044C118.953 11.9096 118.956 12.8238 118.932 13.6872C118.905 14.571 118.879 15.432 119.172 16.1626C119.463 16.8941 120.028 17.4749 120.519 18.0721C121.53 19.2795 122.103 20.6131 122.38 21.7583C122.659 22.91 122.664 23.8766 122.613 24.5294C122.554 25.184 122.452 25.5337 122.43 25.5296Z" fill="#925B4C"/>
<path d="M122.942 9.88798C123.066 9.88225 123.173 10.554 123.532 11.2822C123.879 12.0161 124.338 12.5175 124.257 12.6108C124.192 12.7034 123.542 12.2938 123.148 11.4673C122.746 10.6441 122.83 9.88143 122.942 9.88798Z" fill="#925B4C"/>
<path d="M119.027 4.38741C119.036 4.45458 118.766 4.50864 118.466 4.77486C118.165 5.03208 117.851 5.52766 117.751 6.13465C117.653 6.75229 117.715 7.35028 117.723 7.78852C117.738 8.22841 117.709 8.50691 117.65 8.51101C117.591 8.51511 117.515 8.2538 117.424 7.82293C117.342 7.39451 117.22 6.77441 117.33 6.06421C117.448 5.34335 117.873 4.77486 118.289 4.52994C118.711 4.27764 119.031 4.3399 119.027 4.38741Z" fill="#925B4C"/>
<path d="M38.4099 82.0618C43.6557 69.3354 59.8126 73.1052 64.2557 60.0766C67.221 51.3821 62.9213 29.7557 60.0494 21.0301C58.7969 17.2251 56.4066 14.6686 53.4437 11.9719C47.5598 6.6163 35.9835 7.52392 29.3869 11.9719C22.7903 16.4191 19.1336 24.5033 15.0861 31.353C11.9791 36.6112 10.9838 39.642 7.8768 44.9002C5.05073 49.6832 3.7237 55.0666 1.52346 60.1675C-1.90223 68.1083 0.44957 77.6555 8.57719 78.8286L38.4099 82.0618Z" fill="#F15156"/>
<g opacity="0.3">
<path d="M62.1448 48.393C61.9147 43.1504 61.682 37.8849 60.686 32.7316C59.6907 27.5791 57.8959 22.5037 54.7971 18.2687L44.6486 46.327C44.5282 54.589 45.6218 62.8682 47.8818 70.8156C52.6558 68.6546 57.746 66.2119 60.2895 61.6304C62.4815 57.6821 62.3423 52.9048 62.1448 48.393Z" fill="black"/>
</g>
<path d="M20.4517 30.7608C21.0931 23.6448 24.8546 16.7238 30.8803 12.8845C36.906 9.0451 45.1499 8.65928 51.1813 12.4896C55.0158 14.925 57.773 18.8348 59.3589 23.0911C60.9448 27.3474 60.2567 30.8746 60.2199 35.4168C60.201 37.7703 59.9012 44.0974 57.8705 45.286L26.171 50.9717C22.1097 45.0935 19.8103 37.8768 20.4517 30.7608Z" fill="#263238"/>
<path d="M21.5697 25.3043C22.2807 21.0742 26.4117 16.9653 29.6318 14.1311C33.3065 10.8963 33.8234 11.0421 38.7178 10.9176C43.8785 10.7865 49.5175 10.8086 53.5444 14.0385C55.7758 15.8284 57.2241 18.4087 58.3873 21.0226C61.0757 27.0614 60.6604 33.957 59.8388 40.5159C59.0172 47.0749 57.6271 53.266 52.2584 57.1226L29.694 53.6273C24.7161 51.7834 23.0565 46.0952 21.6484 40.9771C20.241 35.8582 20.6899 30.5387 21.5697 25.3043Z" fill="#263238"/>
<path d="M59.0656 29.5132C58.7494 23.3073 52.143 17.0343 45.9559 17.6134L25.8704 21.1833L25.8958 24.5205L25.6672 66.1965C33.5786 67.9683 41.1549 69.9031 48.6633 70.5502L48.9901 61.5068C48.9901 61.5068 56.9285 60.2871 58.6946 49.9699C59.5735 44.8404 59.4171 36.408 59.0656 29.5132Z" fill="#DC9070"/>
<path d="M54.7668 37.4877C54.7832 38.188 54.2032 38.7795 53.4726 38.8098C52.7427 38.8401 52.1365 38.2986 52.1209 37.5983C52.1046 36.8979 52.6837 36.3064 53.4136 36.2753C54.1443 36.2442 54.7504 36.7873 54.7668 37.4877Z" fill="#263238"/>
<path d="M56.827 33.8784C56.6607 34.0488 55.6655 33.2935 54.2385 33.2804C52.814 33.2469 51.7581 33.9677 51.6057 33.7916C51.5304 33.7138 51.7016 33.4033 52.162 33.0773C52.615 32.7521 53.3841 32.44 54.2729 32.4547C55.1609 32.4703 55.9047 32.8061 56.3306 33.1461C56.7648 33.4869 56.9089 33.8014 56.827 33.8784Z" fill="#263238"/>
<path d="M41.6955 37.123C41.7119 37.8234 41.132 38.4148 40.4013 38.4451C39.6714 38.4755 39.0652 37.934 39.0497 37.2336C39.0333 36.5332 39.6132 35.941 40.3423 35.9107C41.073 35.8796 41.6791 36.4227 41.6955 37.123Z" fill="#263238"/>
<path d="M42.8015 33.9752C42.6352 34.1456 41.6383 33.3911 40.213 33.3772C38.7885 33.3436 37.7326 34.0645 37.5794 33.8875C37.5049 33.8089 37.6744 33.4992 38.1356 33.1732C38.5878 32.848 39.3578 32.5359 40.2457 32.5507C41.1345 32.5662 41.8775 32.9021 42.3035 33.242C42.7376 33.5844 42.8834 33.899 42.8015 33.9752Z" fill="#263238"/>
<path d="M47.8515 44.6168C47.8457 44.5357 48.7345 44.3931 50.1738 44.2269C50.5383 44.1933 50.884 44.1253 50.9487 43.8779C51.038 43.6158 50.8897 43.2209 50.7185 42.795C50.3867 41.9095 50.0394 40.9814 49.6749 40.0082C48.2267 36.0411 47.1831 32.7809 47.3428 32.7235C47.5034 32.667 48.8074 35.8363 50.2557 39.8034C50.6038 40.7815 50.9372 41.7137 51.2542 42.6066C51.3869 43.0219 51.6188 43.4945 51.4263 44.0385C51.3247 44.3096 51.0552 44.5037 50.8209 44.5635C50.5866 44.6315 50.3818 44.6332 50.2016 44.6422C48.7534 44.7028 47.8556 44.6979 47.8515 44.6168Z" fill="#263238"/>
<path d="M48.9859 61.5346C48.9859 61.5346 41.6733 61.8738 34.8342 57.6494C34.8342 57.6494 38.1756 65.2339 48.8851 64.4164L48.9859 61.5346Z" fill="#925B4C"/>
<path d="M47.6951 47.6632C47.1192 46.8833 46.1002 46.4459 45.0812 46.5434C44.375 46.6105 43.6575 46.9423 43.2225 47.5116C42.7867 48.0809 42.6876 48.8952 43.0701 49.4481C43.5018 50.0706 44.4168 50.2238 45.195 50.0133C45.974 49.802 46.6474 49.299 47.2879 48.7977C47.4649 48.6584 47.6459 48.5143 47.7581 48.3226C47.8695 48.1309 47.8958 47.8786 47.7631 47.7172" fill="#F15156"/>
<path d="M43.6412 45.5529C43.8739 45.5423 43.8575 47.0905 45.1698 48.2053C46.4796 49.3243 48.1318 49.1695 48.1416 49.3865C48.1621 49.484 47.7706 49.6831 47.0735 49.6929C46.3895 49.7085 45.3942 49.4766 44.5915 48.7951C43.7911 48.1111 43.4545 47.2076 43.4086 46.5719C43.3586 45.924 43.5356 45.5431 43.6412 45.5529Z" fill="#263238"/>
<path d="M43.17 29.9507C43.0242 30.3373 41.6029 30.1358 39.927 30.3177C38.2469 30.4659 36.8912 30.9394 36.6733 30.5888C36.5766 30.4209 36.8158 30.0596 37.3663 29.6902C37.9118 29.3216 38.7793 28.9759 39.7852 28.876C40.7912 28.7785 41.7094 28.9489 42.3156 29.2044C42.9275 29.4584 43.233 29.7672 43.17 29.9507Z" fill="#263238"/>
<path d="M56.8433 28.9848C56.5885 29.3059 55.6097 28.9577 54.4284 28.9274C53.248 28.8562 52.2438 29.1183 52.0169 28.7775C51.9186 28.6121 52.0791 28.2893 52.5206 27.9879C52.9548 27.6872 53.6789 27.4464 54.4907 27.4808C55.3025 27.516 56.0028 27.8183 56.4091 28.155C56.8228 28.4925 56.9555 28.8283 56.8433 28.9848Z" fill="#263238"/>
<path d="M52.1233 14.7341C55.9308 17.3128 58.5635 21.5592 59.8406 26.212L59.2131 30.0358C58.3219 28.1853 58.2105 26.2014 56.3846 24.3026C55.1583 23.0272 52.8917 21.8271 50.4818 21.2136C43.5943 19.4606 41.2745 16.9597 38.2322 12.4609C42.6933 11.3436 48.3159 12.1554 52.1233 14.7341Z" fill="#263238"/>
<path d="M22.3883 24.835C24.3067 17.9328 30.5749 12.451 37.6712 11.4689L38.2323 12.4609C39.9755 14.4989 42.043 13.8641 43.7862 15.9021C44.2211 16.4108 44.3497 19.6301 44.448 20.292C44.5799 21.1783 44.0286 22.0392 43.3356 22.6069C41.6769 23.965 39.3521 24.0486 37.2092 24.1067C35.0663 24.1649 32.7235 24.3394 31.1622 25.8081C29.2175 27.6365 29.2602 30.7427 29.9147 33.3304C30.5683 35.9181 30.8239 40.0892 30.5569 42.7449C30.3169 45.1253 27.1713 39.3429 25.1029 40.5438C24.5254 40.8788 26.081 50.2172 25.4781 49.9297C24.8875 49.6487 24.9424 46.2853 24.7466 45.6611C23.6858 42.278 22.6209 38.8818 22.0557 35.3815C21.4913 31.8821 21.4389 28.2508 22.3883 24.835Z" fill="#263238"/>
<path d="M28.2574 42.7916C28.0969 40.5439 25.614 39.0948 23.6874 40.2637C22.6298 40.9051 21.8377 42.1674 21.9868 44.5545C22.3857 50.9193 28.6932 49.2056 28.6932 49.0229C28.6932 48.909 28.4458 45.4227 28.2574 42.7916Z" fill="#DC9070"/>
<path d="M26.6067 46.7277C26.5772 46.7088 26.5011 46.8129 26.3192 46.9112C26.1423 47.007 25.8318 47.0856 25.4919 46.9832C24.803 46.7809 24.1665 45.7512 24.0592 44.6069C24.0043 44.0286 24.0887 43.4691 24.264 42.9989C24.427 42.5205 24.7063 42.1748 25.0414 42.0921C25.3723 41.9921 25.6262 42.1781 25.7155 42.3526C25.813 42.5246 25.7802 42.6548 25.8155 42.663C25.8343 42.6778 25.9449 42.5475 25.8761 42.2879C25.8417 42.1633 25.7565 42.0184 25.5992 41.9061C25.4386 41.7923 25.2093 41.7439 24.975 41.7849C24.4868 41.8512 24.0748 42.3321 23.8831 42.8482C23.6644 43.3683 23.5554 43.9982 23.6168 44.647C23.743 45.9265 24.4794 47.0832 25.4165 47.2871C25.872 47.374 26.2365 47.2142 26.4192 47.0512C26.6051 46.8825 26.6289 46.7383 26.6067 46.7277Z" fill="#925B4C"/>
<path d="M22.3784 38.8957C23.5605 38.1626 25.1365 38.8932 26.09 39.9049C27.0443 40.9165 27.7152 42.2141 28.8571 43.007C29.9998 43.7999 31.9207 43.7598 32.4507 42.4737C33.1961 40.6667 30.502 38.8801 31.0164 36.9936C31.4145 35.5314 33.455 35.1194 34.0685 33.7334C34.6878 32.3335 33.559 30.705 33.8908 29.2109C34.148 28.0518 35.2342 27.2523 36.3482 26.8411C37.4623 26.4299 38.6648 26.298 39.7739 25.8736C43.3077 24.522 45.1582 19.911 43.5396 16.4911L26.6126 16.9867L20.3445 33.178L22.3784 38.8957Z" fill="#263238"/>
<path d="M31.1161 39.4929C33.0763 40.4972 33.9954 43.1431 33.0804 45.1459C32.5742 46.2542 31.5732 47.342 31.9303 48.5069C32.2228 49.4612 33.3417 49.9838 33.6243 50.9422C34.0397 52.3511 32.5029 53.4742 31.6707 54.6849C30.5673 56.2913 30.7499 58.6586 32.0868 60.0766C30.7696 59.8529 29.59 58.942 29.0404 57.724C28.4915 56.5067 28.589 55.0183 29.2927 53.8838C29.7743 53.108 30.546 52.3995 30.5075 51.4869C30.4485 50.06 28.4342 49.2081 28.5833 47.7877C28.6709 46.9521 29.5163 46.3255 29.5409 45.4858C29.5597 44.8576 29.1149 44.3259 28.7414 43.8197C27.0892 41.5834 26.4486 38.6279 27.0277 35.9083" fill="#263238"/>
<path d="M49.5085 71.1581C32.1696 63.0346 26.8058 58.2499 23.027 50.9734C22.3144 49.6013 21.9752 46.1011 21.9867 44.5554C22.0006 42.7164 21.3297 38.99 21.6492 37.1789C25.106 17.5774 32.5849 15.6442 41.6955 9.80533C41.6955 9.80533 55.6112 13.0918 58.2022 19.5696C60.4598 25.2144 61.582 32.7244 61.582 32.7244C61.582 32.7244 61.555 22.5505 58.6003 17.8592C55.6456 13.1679 52.3567 9.97407 45.7716 9.23029C39.1864 8.4865 32.3031 10.2477 28.6931 13.7364C25.0831 17.2252 19.1787 26.1032 17.8369 29.7828C16.4951 33.4624 15.3975 61.778 15.3975 61.778L26.2479 66.6339C29.1625 67.9388 32.249 68.8186 35.4134 69.2478L49.5085 71.1581Z" fill="#F15156"/>
<path d="M56.2027 56.5919C56.2027 56.5919 57.5576 60.2789 59.449 60.6754C61.3404 61.0719 63.281 60.4706 65.1265 59.898C66.9721 59.3246 68.938 58.7692 70.809 59.2533C72.1786 59.608 73.3664 60.4927 74.7376 60.8433C76.1089 61.1939 77.911 60.709 78.2247 59.3287C78.5426 60.5583 77.6407 61.8476 76.4832 62.3694C75.3258 62.892 73.9946 62.8207 72.7348 62.661C71.4749 62.5013 70.1962 62.2613 68.9454 62.48C66.7533 62.8625 65.0569 64.5557 63.0745 65.5665C60.7416 66.7559 57.9303 66.9706 55.4433 66.1506C52.9564 65.3306 50.5325 63.7726 49.3652 61.4282C49.3652 61.4282 53.8271 60.0528 56.2027 56.5919Z" fill="#263238"/>
<path d="M25.7179 64.0109C25.7089 64.0224 25.5229 63.8881 25.1764 63.6202C24.8193 63.3638 24.3344 62.937 23.7241 62.3685C22.5199 61.2209 20.9357 59.3541 19.5431 56.7049C18.1629 54.0615 17.0292 50.6088 16.7572 46.6556C16.5147 42.7032 17.0619 38.3519 18.2145 33.9538C19.3973 29.5673 21.1339 25.5027 23.5414 22.3407C24.7554 20.7729 26.0865 19.4459 27.3595 18.2458C28.6382 17.049 29.8784 15.9915 31.0285 15.0487C33.3311 13.1662 35.2717 11.7442 36.6265 10.7817C37.3048 10.3017 37.8381 9.93796 38.2034 9.69795C38.5663 9.45958 38.7727 9.33671 38.7702 9.35718C38.7891 9.36046 38.5999 9.50709 38.2525 9.7684C37.8716 10.0543 37.363 10.436 36.724 10.916C35.4019 11.9179 33.4917 13.3751 31.221 15.2813C30.0873 16.2356 28.8634 17.3029 27.6028 18.5038C26.3478 19.7072 25.0364 21.035 23.8543 22.5807C21.5083 25.6952 19.7979 29.7196 18.6265 34.0652C17.4838 38.4207 16.9309 42.74 17.1488 46.6318C17.3953 50.5269 18.4823 53.9411 19.811 56.569C21.152 59.2017 22.6821 61.0784 23.8404 62.2522C25.0036 63.4285 25.7523 63.9684 25.7179 64.0109Z" fill="#263238"/>
<path d="M58.7566 273.511C58.6059 274.678 55.7315 307.282 55.7315 307.282H40.7943L38.1763 273.647L58.7566 273.511Z" fill="#DC9070"/>
<path d="M57.3567 303.989L57.3919 305.058C57.3919 305.058 75.7344 311.819 76.0268 315.254L40.0161 316.106L40.2217 304.111C45.6347 306.464 51.2442 306.611 57.3567 303.989Z" fill="#F15156"/>
<g opacity="0.6">
<path d="M43.9585 309.494C43.2663 309.701 42.8035 310.496 42.9813 311.196C43.1599 311.897 43.9643 312.375 44.6605 312.179C45.356 311.984 45.9417 311.047 45.6861 310.371C45.4306 309.696 44.4549 309.186 43.8266 309.542" fill="white"/>
</g>
<g opacity="0.6">
<path d="M40.0151 316.105L40.0651 313.22L74.5604 313.46C74.5604 313.46 76.1798 314.119 76.0258 315.253L40.0151 316.105Z" fill="white"/>
</g>
<path d="M57.5197 306.794C57.5181 306.97 56.6408 307.07 55.7889 307.657C54.9214 308.22 54.4938 308.993 54.33 308.926C54.167 308.896 54.4045 307.839 55.4481 307.147C56.486 306.447 57.5541 306.631 57.5197 306.794Z" fill="#263238"/>
<path d="M61.3344 308.266C61.3787 308.436 60.6242 308.753 60.0443 309.51C59.4422 310.251 59.3103 311.059 59.1358 311.055C58.9712 311.086 58.8254 310.06 59.5642 309.131C60.2933 308.197 61.3262 308.099 61.3344 308.266Z" fill="#263238"/>
<path d="M63.5861 312.736C63.4272 312.778 63.1618 311.905 63.5902 310.932C64.0121 309.954 64.832 309.555 64.9098 309.7C65.0122 309.842 64.4913 310.371 64.1513 311.176C63.7933 311.972 63.7606 312.715 63.5861 312.736Z" fill="#263238"/>
<path d="M129.147 245.206C129.675 246.233 145.507 274.158 145.507 274.158L133.447 282.474L112.606 256.774L129.147 245.206Z" fill="#DC9070"/>
<path d="M130.713 278.575C130.713 278.575 143.327 278.746 143.838 270.716L146.648 272.498L163.85 287.139C164.963 288.087 165.301 289.745 164.483 290.957C163.853 291.89 162.771 292.355 161.694 292.184C155.925 291.273 134.722 287.814 133.701 286.067L130.708 281.622C130.088 280.702 130.09 279.495 130.713 278.575Z" fill="#F15156"/>
<g opacity="0.6">
<path d="M164.151 291.365L132.637 284.537L133.305 285.498C133.934 286.604 134.675 286.703 135.632 287.03C138.468 287.999 145.595 289.626 161.626 292.233C162.559 292.385 163.51 292.058 164.151 291.365Z" fill="white"/>
</g>
<g opacity="0.6">
<path d="M133.319 279.833C134.16 279.83 134.943 280.56 134.98 281.4C135.017 282.241 134.282 283.044 133.44 283.061C132.6 283.078 131.632 282.23 131.69 281.391C131.747 280.553 132.662 279.656 133.483 279.842" fill="white"/>
</g>
<path d="M152.078 285.064C152.25 285.037 151.935 283.494 152.838 281.917C153.695 280.314 155.17 279.762 155.102 279.602C155.083 279.533 154.673 279.557 154.091 279.851C153.511 280.139 152.796 280.747 152.309 281.623C151.824 282.501 151.688 283.43 151.752 284.074C151.811 284.725 152.009 285.084 152.078 285.064Z" fill="#263238"/>
<path d="M155.805 286.976C155.981 286.999 156.195 285.756 157.134 284.604C158.047 283.432 159.212 282.945 159.15 282.778C159.135 282.617 157.709 282.895 156.66 284.226C155.597 285.545 155.644 286.998 155.805 286.976Z" fill="#263238"/>
<path d="M146.365 283.263C146.546 283.297 146.867 281.382 148.17 279.464C149.444 277.524 151.089 276.495 150.988 276.341C150.941 276.194 149.037 277.051 147.666 279.127C146.274 281.189 146.212 283.275 146.365 283.263Z" fill="#263238"/>
<path d="M142.191 278.074C142.346 278.167 143.235 276.773 144.824 275.58C146.397 274.366 147.977 273.881 147.928 273.706C147.913 273.551 146.149 273.796 144.456 275.098C142.752 276.383 142.046 278.018 142.191 278.074Z" fill="#263238"/>
<path d="M145.72 274.889C145.746 274.864 145.526 274.559 145.006 274.126C144.488 273.699 143.653 273.143 142.48 272.788C141.905 272.638 141.218 272.393 140.417 272.684C140.016 272.826 139.664 273.282 139.693 273.772C139.717 274.253 139.966 274.645 140.27 274.96C141.534 276.175 143.798 276.302 145.366 275.081C146.915 273.829 147.377 271.76 146.855 270.137C146.698 269.739 146.441 269.316 145.958 269.139C145.476 268.957 144.948 269.223 144.717 269.551C144.226 270.22 144.197 270.92 144.106 271.509C143.978 272.724 144.133 273.709 144.3 274.358C144.468 275.012 144.645 275.344 144.678 275.332C144.798 275.314 144.207 273.881 144.531 271.564C144.635 271.002 144.728 270.328 145.105 269.871C145.288 269.646 145.543 269.551 145.78 269.642C146.013 269.724 146.217 270.01 146.331 270.333C146.743 271.676 146.316 273.566 144.99 274.604C143.68 275.647 141.689 275.532 140.663 274.564C140.419 274.327 140.24 274.022 140.225 273.751C140.211 273.484 140.364 273.253 140.616 273.145C141.148 272.916 141.814 273.07 142.364 273.201C144.623 273.804 145.654 274.995 145.72 274.889Z" fill="#263238"/>
<path d="M108.759 88.1144C107.871 89.5864 105.995 90.3876 104.317 90.0124C104.242 88.7951 104.166 87.5787 104.09 86.3614C101.561 91.0511 94.0598 91.8907 90.5554 87.8769C89.0924 86.2009 88.2348 83.8802 86.2614 82.8522C83.8179 81.5792 80.8796 82.8604 78.124 82.8899C75.0112 82.9235 72.1245 81.3236 69.5598 79.5592C66.995 77.7947 64.5171 75.7862 61.5624 74.804C58.6077 73.8219 54.9584 74.1241 52.9163 76.4743L56.5033 97.0481C55.9275 99.4343 57.9467 101.816 60.2812 102.572C62.6166 103.328 65.1462 102.906 67.5742 102.545C70.0021 102.185 72.5865 101.912 74.822 102.925C77.8234 104.286 80.2071 107.881 83.428 107.183C85.8871 106.651 87.1134 103.831 89.3095 102.603C91.6007 101.321 94.4333 101.993 97.0562 101.871C103.8 101.557 109.53 94.8216 108.759 88.1144Z" fill="#263238"/>
<path d="M54.2119 70.4233L66.808 68.2886L78.9773 63.5915C78.9773 63.5915 80.4714 61.8836 81.5396 60.3887C82.607 58.8945 107.373 36.9036 107.373 36.9036L111.216 31.353L122.745 36.2638L120.396 39.4667C120.396 39.4667 121.463 41.8152 120.182 44.1637C118.901 46.5122 96.4834 71.7052 90.719 77.6834C84.9546 83.6616 69.7963 92.2012 69.7963 92.2012L58.0537 87.5042L54.2119 70.4233Z" fill="#FFCD4B"/>
<path d="M63.1792 77.4688C63.1792 77.4688 73.4268 98.8191 74.0674 104.796C74.708 110.775 71.7189 121.449 71.7189 121.449L21.7597 124.011L14.7142 121.449C14.7142 121.449 8.73603 110.988 7.45488 99.4589C6.17372 87.9301 6.60132 90.4916 7.45488 81.5252C8.30925 72.5579 16.1706 68.3967 19.222 67.2523C24.2581 65.3642 54.4045 71.2817 54.4045 71.2817L63.1792 77.4688Z" fill="#FFCD4B"/>
<path d="M76.1668 131.644C76.1668 131.644 76.1881 131.777 76.2135 132.037C76.2381 132.31 76.2725 132.695 76.3175 133.197C76.3552 133.709 76.4076 134.343 76.5412 135.087C76.6608 135.832 76.764 136.7 77.0048 137.658C77.8059 141.511 79.7211 147.021 83.472 153.247C85.3282 156.365 87.5989 159.67 90.1841 163.157C92.7604 166.652 95.6913 170.304 98.6263 174.33C101.551 178.357 104.523 182.75 106.99 187.724C109.446 192.682 111.32 198.311 111.663 204.358L111.716 205.297L111.285 204.459C110.556 203.045 108.722 202.47 107.137 202.707C105.494 202.949 104.016 203.87 102.55 204.777C99.5847 206.585 96.5514 208.42 93.3895 210.15C90.2349 211.892 86.9845 213.589 83.6088 215.141C80.2486 216.725 76.7607 218.156 73.1728 219.425C63.4249 222.894 53.3182 224.66 43.8284 224.135L43.6908 224.128L43.6441 223.999C34.3999 198.164 28.6716 174.941 25.3279 158.288C23.6461 149.958 22.5108 143.269 21.7916 138.666C21.4205 136.367 21.1821 134.583 21.0035 133.381C20.9208 132.787 20.8577 132.333 20.8127 132.014C20.7717 131.706 20.7603 131.548 20.7603 131.548C20.7603 131.548 20.7963 131.702 20.8495 132.008C20.9028 132.327 20.9773 132.779 21.0756 133.37C21.2722 134.583 21.5597 136.354 21.9316 138.644C22.6943 143.239 23.8706 149.918 25.5867 158.236C29.0001 174.865 34.7759 198.056 44.0332 223.86L43.8497 223.723C53.2765 224.236 63.3217 222.479 73.0295 219.024C76.6018 217.761 80.0783 216.336 83.4278 214.758C86.7928 213.211 90.0359 211.521 93.1839 209.785C96.34 208.061 99.3693 206.231 102.331 204.429C103.797 203.527 105.318 202.567 107.076 202.308C107.952 202.182 108.851 202.272 109.672 202.588C110.488 202.901 111.236 203.48 111.639 204.279L111.26 204.381C110.928 198.403 109.084 192.823 106.652 187.891C104.21 182.943 101.259 178.559 98.3494 174.532C95.4308 170.506 92.5122 166.845 89.9433 163.336C87.3662 159.834 85.1038 156.512 83.2566 153.376C79.5237 147.113 77.6356 141.563 76.8729 137.688C76.6419 136.725 76.5494 135.853 76.4396 135.104C76.3167 134.357 76.2749 133.721 76.2479 133.207C76.2176 132.703 76.1939 132.317 76.1775 132.043C76.1652 131.778 76.1668 131.644 76.1668 131.644Z" fill="#F15156"/>
<path d="M96.2878 164.328C88.6844 155.941 75.0423 132.272 71.719 121.45L17.0136 123.82C10.5357 141.654 3.98909 159.812 2.9799 178.76C1.96088 197.891 6.64641 216.936 6.20981 236.088C5.79204 254.393 0.97626 274.077 9.84439 290.097C15.6972 284.426 24.5883 283.072 32.6905 283.943C40.7927 284.815 48.5657 287.584 56.5876 289.019C64.6095 290.452 73.3876 290.398 80.2897 286.067C86.7471 282.016 90.5201 274.941 95.1803 268.908C99.8404 262.875 106.785 257.31 114.307 258.55C120.117 259.507 124.587 264.288 130.214 266.023C138.637 268.621 147.576 263.894 154.274 258.163C160.971 252.433 166.881 245.391 175 241.96C147.343 217.576 121.052 191.645 96.2878 164.328Z" fill="#FFCD4B"/>
<path d="M80.8729 69.6549C80.9777 69.7098 78.5498 74.5616 75.4517 80.4906C72.3529 86.4221 69.7562 91.1846 69.6521 91.1297C69.5481 91.0748 71.9744 86.2247 75.0741 80.2932C78.1721 74.3642 80.7688 69.6008 80.8729 69.6549Z" fill="#263238"/>
<path d="M59.8624 78.7114C59.8845 78.6918 60.0893 78.8875 60.4407 79.2578C60.7938 79.6272 61.2853 80.1785 61.8767 80.874C63.0596 82.2641 64.6192 84.2505 66.1944 86.5499C67.768 88.8517 69.0549 91.0249 69.9216 92.6313C70.3558 93.434 70.6916 94.0918 70.9078 94.5546C71.1257 95.0166 71.2339 95.2779 71.2077 95.2919C71.1511 95.3214 70.5917 94.3433 69.6595 92.7803C68.7281 91.2174 67.4076 89.0811 65.8422 86.7907C64.2752 84.5028 62.7622 82.4975 61.6424 81.064C60.5243 79.6289 59.8141 78.7532 59.8624 78.7114Z" fill="#263238"/>
<g opacity="0.3">
<path d="M58.1366 81.6087C55.9617 84.5135 52.9808 87.1855 49.3643 87.4804C46.1721 87.7401 43.1478 86.1018 40.4953 84.307C33.9004 79.8451 27.2399 73.5393 22.8738 66.8812C23.253 71.045 24.9298 75.3209 27.4586 78.6508C29.9873 81.9806 33.1082 84.8059 36.2087 87.6107C39.5541 90.6358 43.269 93.8239 47.771 94.1032C50.9149 94.2982 54.117 92.9138 56.128 90.49C58.139 88.0653 58.909 84.6617 58.1366 81.6087Z" fill="black"/>
</g>
<path d="M23.0122 66.9829C26.5952 75.6315 32.951 83.1054 40.9115 88.031C43.7581 89.7921 47.0822 91.2756 50.3637 90.6146C54.3652 89.8085 57.1618 85.9225 57.9687 81.9209C58.7747 77.9194 57.9941 73.7884 57.2151 69.7819C45.9181 70.2071 33.2647 67.2958 22.0735 65.6919" fill="#F15156"/>
<path d="M54.3865 75.7051C54.3963 75.7157 54.3062 75.8058 54.1235 75.9688C53.9408 76.1294 53.6476 76.3498 53.2298 76.5586C52.4098 76.9985 51.0304 77.336 49.3642 77.1214C48.5336 77.0215 47.6416 76.7774 46.7372 76.3891C45.8296 75.9992 44.9408 75.4389 44.0537 74.7942C42.272 73.5098 40.5829 71.7904 38.5367 70.3798C34.4295 67.5185 29.8537 66.4986 26.6148 66.3561C24.9822 66.275 23.656 66.3635 22.7459 66.4651C21.8358 66.5707 21.3321 66.6502 21.3255 66.615C21.3222 66.6002 21.4451 66.565 21.6818 66.5093C21.9194 66.4601 22.2667 66.3659 22.7238 66.3004C23.6339 66.1481 24.9716 66.0113 26.6271 66.0547C29.911 66.121 34.59 67.1097 38.78 70.0292C40.8713 71.4742 42.5489 73.2009 44.2871 74.478C45.1505 75.1194 46.0155 75.6781 46.8806 76.0663C47.7472 76.4546 48.6057 76.7077 49.406 76.8232C51.0107 77.0673 52.3427 76.7896 53.1593 76.4096C53.9842 76.0319 54.357 75.6666 54.3865 75.7051Z" fill="#263238"/>
<path d="M57.2332 70.18C57.2471 70.1767 57.2848 70.2906 57.3438 70.5142C57.4126 70.7362 57.4748 71.0704 57.5224 71.5078C57.6149 72.3778 57.5756 73.6876 57.0383 75.1817C56.5017 76.6546 55.4622 78.3445 53.7043 79.5355C51.9579 80.7348 49.5397 81.2328 47.1503 80.8642C44.7502 80.516 42.6236 79.4806 40.9501 78.2552C39.2692 77.0256 37.975 75.6642 36.9518 74.4871C35.9328 73.3026 35.1726 72.2959 34.6541 71.5963C34.1372 70.8951 33.8661 70.497 33.889 70.479C33.9128 70.461 34.2282 70.8247 34.7844 71.4939C35.3422 72.1607 36.1368 73.1371 37.1771 74.2872C38.2207 75.4299 39.5215 76.7504 41.1787 77.9357C42.8251 79.1153 44.8951 80.1057 47.2101 80.4415C49.5135 80.7962 51.8162 80.3276 53.4839 79.2079C55.1698 78.0922 56.2003 76.4866 56.7548 75.0744C57.311 73.6417 57.397 72.3737 57.3561 71.5177C57.3225 70.6576 57.1832 70.1906 57.2332 70.18Z" fill="#263238"/>
<g opacity="0.3">
<path d="M87.8839 151.978L12.7195 139.156C12.5319 145.091 15.9813 150.711 20.6431 154.39C25.3049 158.068 31.0602 160.07 36.8074 161.564C42.5546 163.059 48.4369 164.119 53.9915 166.219C60.2474 168.584 66.0077 172.239 72.4552 174.017C82.0155 176.655 92.5801 174.868 100.664 169.124C95.9608 163.525 89.8761 158.431 87.8839 151.978Z" fill="black"/>
</g>
<path d="M97.1298 136.005C92.7171 137.681 88.8761 140.548 84.7467 142.835C80.6166 145.12 75.8728 146.864 71.2373 145.978C67.5667 145.276 64.4211 143.021 61.2322 141.071C51.6825 135.231 40.7034 131.749 29.5343 131.017L7.699 78.2322C4.71483 84.9623 2.43268 93.9672 2.83489 103.011C3.23709 112.057 2.37697 121.264 6.48419 129.332C10.8986 138.003 17.048 146.543 26.152 149.977C32.9428 152.538 40.6518 151.96 47.3246 154.816C52.7269 157.13 56.9693 161.488 62.0161 164.499C69.9987 169.263 80.0432 170.421 88.8998 167.598C94.6888 165.754 99.8535 162.349 105.505 160.116C111.155 157.883 117.855 156.941 123.108 159.996C126.398 153.524 129.689 147.053 132.978 140.582C121.476 136.119 108.665 131.625 97.1298 136.005Z" fill="#F15156"/>
<path d="M27.2547 83.8876C29.0511 88.8558 33.6941 111.855 33.6941 111.855L34.8343 114.487L68.517 124.011V132.979C68.517 132.979 59.5498 135.754 46.9537 135.327C34.3568 134.9 22.1874 132.124 18.5578 129.349C14.9281 126.574 10.5277 114.293 9.08513 107.594C7.64261 100.894 6.62275 80.0425 8.8361 77.0535" fill="#FFCD4B"/>
<path d="M8.83601 77.0535C8.84666 77.06 8.75657 77.1927 8.62633 77.4696C8.50919 77.7538 8.35355 78.1863 8.23723 78.7778C7.98247 79.9549 7.80061 81.73 7.71051 84.0195C7.56224 88.5969 7.67037 95.255 8.587 103.399C8.98839 107.481 10.24 111.81 11.83 116.353C12.6402 118.619 13.5519 120.94 14.67 123.244C15.2287 124.395 15.8389 125.542 16.541 126.648C17.2643 127.734 18.0523 128.821 19.1745 129.524C21.455 130.909 24.1623 131.697 26.886 132.414C29.6285 133.113 32.4751 133.654 35.3888 134.079C41.2179 134.904 47.3312 135.361 53.5674 135.058C58.7002 134.779 63.7429 134.085 68.4546 132.778L68.3064 132.979C68.308 129.933 68.3097 126.941 68.3113 124.011L68.4612 124.21C55.8069 120.614 44.3397 117.356 34.7908 114.643L34.7171 114.621L34.6868 114.551C34.2846 113.616 33.9143 112.758 33.5523 111.917L33.5457 111.901L33.5424 111.885C31.7911 103.197 30.2855 96.1782 29.1665 91.3468C28.607 88.9311 28.1475 87.0602 27.8002 85.8028C27.6364 85.1704 27.4914 84.6953 27.3914 84.3759C27.2948 84.0556 27.2563 83.8868 27.2563 83.8868C27.2563 83.8868 27.5266 84.5208 27.8862 85.7782C28.2622 87.0307 28.7488 88.8959 29.3345 91.3067C30.5058 96.129 32.0573 103.139 33.848 111.823L33.8381 111.792C34.2043 112.632 34.577 113.489 34.9833 114.421L34.8793 114.331C44.4347 117.02 55.9102 120.249 68.5734 123.812L68.7233 123.854V124.01C68.725 126.94 68.7266 129.931 68.7283 132.977V133.137L68.58 133.178C63.8052 134.506 58.7575 135.2 53.5895 135.482C47.3156 135.787 41.1802 135.325 35.329 134.491C32.403 134.06 29.545 133.514 26.7853 132.807C24.0387 132.077 21.3289 131.294 18.9607 129.852C17.7697 129.102 16.9456 127.955 16.2174 126.855C15.5056 125.727 14.892 124.567 14.3325 123.405C13.2119 121.08 12.3035 118.747 11.4966 116.469C9.91649 111.912 8.67138 107.538 8.2872 103.433C7.40661 95.2624 7.34517 88.5994 7.54504 84.0105C7.66054 81.7169 7.87025 79.9369 8.15368 78.7573C8.28474 78.1651 8.45595 77.7309 8.58783 77.4491C8.732 77.1755 8.83601 77.0535 8.83601 77.0535Z" fill="#263238"/>
<path d="M89.3299 257.726C89.325 257.731 89.2709 257.687 89.1718 257.594C89.0555 257.483 88.9129 257.345 88.7376 257.177C88.3379 256.778 87.7899 256.232 87.0969 255.542C86.3842 254.831 85.5217 253.954 84.5469 252.91C83.5688 251.868 82.4359 250.699 81.2416 249.355C78.812 246.702 76.0113 243.458 72.9968 239.779C70.0036 236.082 66.809 231.939 63.6175 227.471C60.4417 222.99 57.5738 218.613 55.0615 214.573C52.5729 210.518 50.4267 206.809 48.7172 203.643C47.8382 202.074 47.1051 200.621 46.4416 199.356C45.774 198.093 45.2284 196.99 44.791 196.084C44.3658 195.203 44.0292 194.507 43.7842 193.999C43.6827 193.778 43.6 193.598 43.532 193.452C43.4771 193.327 43.4525 193.262 43.459 193.259C43.4656 193.256 43.5033 193.315 43.5713 193.433C43.6491 193.574 43.7441 193.747 43.8613 193.961C44.1234 194.46 44.4838 195.144 44.9384 196.01C45.398 196.903 45.9648 197.995 46.6521 199.245C47.3345 200.499 48.0856 201.94 48.9801 203.498C50.7217 206.641 52.8916 210.329 55.3941 214.366C57.9203 218.389 60.7931 222.752 63.9632 227.224C67.1489 231.684 70.328 235.827 73.2999 239.532C76.2931 243.219 79.0659 246.478 81.4636 249.154C82.6423 250.51 83.758 251.692 84.7189 252.748C85.6765 253.807 86.521 254.701 87.2148 255.428C87.8833 256.142 88.4116 256.706 88.7974 257.118C88.9604 257.299 89.0931 257.445 89.2013 257.565C89.2922 257.666 89.3356 257.721 89.3299 257.726Z" fill="#263238"/>
<path d="M139.812 251.14C139.81 251.148 139.713 251.13 139.523 251.088C139.314 251.039 139.038 250.975 138.687 250.894C138.312 250.802 137.86 250.692 137.33 250.564C136.791 250.439 136.175 250.28 135.495 250.051C132.737 249.263 128.829 247.792 124.284 245.405C119.729 243.034 114.632 239.598 109.444 235.224C104.256 230.847 99.0237 225.499 93.9531 219.541C88.8998 213.563 84.3969 207.622 80.2807 202.244C76.1718 196.859 72.4348 192.04 69.1525 188.111C65.8767 184.176 63.1023 181.097 61.1191 179.033C60.1468 177.981 59.3423 177.214 58.8255 176.665C58.5773 176.405 58.3807 176.201 58.2316 176.045C58.0997 175.904 58.0342 175.829 58.0391 175.823C58.044 175.818 58.1194 175.882 58.2619 176.014C58.4183 176.161 58.6248 176.356 58.8853 176.602C59.4226 177.132 60.2467 177.882 61.2387 178.917C63.2612 180.948 66.0741 184.002 69.3835 187.917C72.6994 191.826 76.4659 196.632 80.592 202.004C84.7254 207.37 89.2348 213.298 94.2775 219.264C99.3366 225.208 104.544 230.546 109.697 234.924C114.851 239.298 119.908 242.743 124.425 245.138C128.933 247.548 132.808 249.057 135.543 249.891C136.217 250.132 136.829 250.303 137.362 250.441C137.887 250.585 138.335 250.708 138.707 250.81C139.052 250.909 139.325 250.987 139.531 251.046C139.719 251.101 139.813 251.133 139.812 251.14Z" fill="#263238"/>
<path d="M20.5202 200.79C20.5268 200.787 20.5678 200.857 20.6407 200.998C20.7226 201.161 20.8266 201.369 20.956 201.627C21.2387 202.212 21.6326 203.028 22.1331 204.064C23.1514 206.217 24.6021 209.284 26.3886 213.061C29.956 220.7 34.8628 231.207 40.2831 242.813C42.9969 248.621 45.5306 254.187 47.911 259.199C49.125 261.69 50.4037 263.998 51.8536 265.982C53.2986 267.966 54.8984 269.636 56.6006 270.838C58.2905 272.062 60.0377 272.838 61.6203 273.315C63.2136 273.773 64.652 273.895 65.816 273.849C68.1629 273.746 69.3499 273.075 69.3679 273.157C69.3703 273.163 69.2966 273.197 69.15 273.257C68.9796 273.324 68.7625 273.409 68.4922 273.514C67.9 273.69 67.0103 273.958 65.8242 274.015C64.6455 274.088 63.1808 273.989 61.5556 273.546C59.9419 273.083 58.1561 272.314 56.4261 271.085C54.6813 269.877 53.043 268.19 51.5685 266.192C50.0883 264.193 48.7867 261.869 47.558 259.373C45.1513 254.355 42.6111 248.805 39.8964 242.993C34.5203 231.367 29.6538 220.841 26.1159 213.189C24.3809 209.387 22.972 206.302 21.9833 204.135C21.5139 203.084 21.1436 202.257 20.879 201.664C20.7652 201.398 20.6734 201.185 20.6013 201.017C20.5407 200.871 20.5137 200.794 20.5202 200.79Z" fill="#263238"/>
<path d="M58.134 120.455C58.0546 120.41 58.8024 119.251 59.5495 117.185C59.733 116.668 59.9288 116.1 60.0746 115.472C60.2597 114.853 60.367 114.172 60.5022 113.461C60.7119 112.029 60.8167 110.436 60.7209 108.766C60.6021 107.097 60.2949 105.53 59.9034 104.136C59.6781 103.448 59.4856 102.786 59.2227 102.196C58.9974 101.591 58.7312 101.054 58.483 100.564C57.4779 98.6103 56.5883 97.556 56.6612 97.5019C56.6841 97.4831 56.9094 97.7403 57.3001 98.2244C57.5008 98.4628 57.7335 98.7643 57.9669 99.1402C58.2045 99.513 58.5026 99.9225 58.7492 100.423C59.0179 100.911 59.3054 101.451 59.5495 102.061C59.8313 102.656 60.041 103.325 60.2802 104.024C60.7004 105.439 61.0264 107.038 61.1469 108.74C61.2452 110.443 61.1256 112.071 60.8896 113.527C60.7414 114.25 60.6193 114.942 60.4162 115.567C60.2523 116.202 60.0369 116.775 59.8321 117.293C59.6511 117.821 59.4078 118.266 59.2194 118.666C59.0367 119.069 58.8434 119.397 58.6755 119.659C58.3495 120.187 58.1586 120.471 58.134 120.455Z" fill="#263238"/>
<g opacity="0.3">
<path d="M58.6214 119.392C62.1519 117.655 64.2522 113.576 64.0204 109.648C63.7894 105.72 61.4237 102.074 58.1528 99.8856C61.6113 105.84 61.7481 113.588 58.501 119.661" fill="black"/>
</g>
<path d="M113.575 146.09C113.569 146.109 113.24 146.017 112.609 145.883C111.975 145.758 111.025 145.629 109.801 145.67C107.355 145.715 103.823 146.689 100.121 149.057C98.2595 150.221 96.3426 151.682 94.2505 153.215C92.1625 154.745 89.8558 156.337 87.1633 157.525C84.4699 158.675 81.4447 159.504 78.2386 159.596C75.0546 159.707 71.6526 159.098 68.6955 157.371C65.7187 155.666 63.5111 153.142 61.0757 151.159C58.683 149.097 55.8528 147.849 53.0333 147.217C50.2122 146.568 47.4443 146.386 44.8639 146.232C42.2812 146.087 39.8597 145.979 37.6693 145.657C33.2795 145.074 29.8702 143.658 27.8805 142.178C27.3652 141.834 26.9671 141.449 26.601 141.145C26.2692 140.802 25.9759 140.525 25.7646 140.277C25.5737 140.038 25.4214 139.848 25.3018 139.7C25.1994 139.568 25.1502 139.499 25.156 139.494C25.2166 139.43 25.9432 140.651 27.9755 142.042C29.9718 143.462 33.3475 144.817 37.7095 145.358C39.8843 145.659 42.2926 145.749 44.8819 145.879C47.4672 146.018 50.2539 146.187 53.121 146.835C55.979 147.46 58.9083 148.744 61.3403 150.836C63.8109 152.845 66.0111 155.347 68.9076 157.002C71.7837 158.682 75.1012 159.282 78.2247 159.179C81.3686 159.095 84.3495 158.289 87.006 157.166C89.6584 156.007 91.9487 154.445 94.0425 152.929C96.1379 151.413 98.0743 149.958 99.9617 148.801C103.72 146.442 107.318 145.498 109.796 145.504C111.037 145.489 111.994 145.646 112.627 145.799C112.944 145.869 113.178 145.957 113.338 146.003C113.497 146.054 113.578 146.083 113.575 146.09Z" fill="#263238"/>
<path d="M68.517 124.496C68.517 124.011 75.3848 124.011 75.3848 124.011L83.3568 117.788L93.8558 110.594C93.8558 110.594 95.1198 110.4 94.9248 111.858C94.7307 113.316 90.3556 117.107 90.3556 117.107H93.9525L99.0075 123.819C99.0075 123.819 99.2991 124.594 97.6469 124.496C95.9946 124.399 95.6055 123.33 95.6055 123.33V130.329C95.6055 130.329 94.1474 131.204 93.6609 129.065C93.1751 126.927 93.6609 124.594 93.6609 124.594L90.8414 130.506C90.8414 130.506 89.7724 129.357 89.7724 128.676C89.7724 127.996 91.5221 125.177 91.5221 125.177L90.6472 123.819L88.9172 124.399L81.1205 130.506L67.7913 133.182V124.594" fill="#DC9070"/>
<path d="M90.5462 117.026C90.5511 117.154 89.2511 117.217 87.8078 117.829C86.3562 118.422 85.3945 119.3 85.3069 119.205C85.2201 119.141 86.1007 118.069 87.6439 117.435C89.1807 116.788 90.5626 116.919 90.5462 117.026Z" fill="#925B4C"/>
<path d="M95.4653 123.643C95.403 123.666 95.1966 123.127 94.8231 122.298C94.452 121.495 93.8262 120.319 92.6138 119.748C92.0191 119.472 91.3704 119.461 90.7896 119.535C90.2055 119.611 89.6747 119.751 89.2225 119.843C88.3157 120.05 87.7218 120.028 87.7227 119.971C87.7202 119.909 88.2739 119.828 89.148 119.551C89.5879 119.422 90.1121 119.25 90.7339 119.145C91.3466 119.043 92.0978 119.037 92.7908 119.359C94.1825 120.022 94.7919 121.336 95.1024 122.182C95.412 123.064 95.5136 123.626 95.4653 123.643Z" fill="#925B4C"/>
<path d="M89.3281 121.695C89.347 121.634 89.7017 121.684 90.2833 121.564C90.5757 121.515 90.9271 121.429 91.3572 121.418C91.7758 121.388 92.3369 121.563 92.6686 121.961C92.9979 122.344 93.2166 122.7 93.4337 123.062C93.6385 123.423 93.7679 123.801 93.7851 124.128C93.8277 124.802 93.491 125.134 93.4591 125.089C93.4026 125.059 93.5975 124.721 93.4861 124.166C93.4034 123.625 92.9013 122.931 92.3565 122.25C91.811 121.603 90.9132 121.852 90.3185 121.863C89.6926 121.912 89.3052 121.747 89.3281 121.695Z" fill="#925B4C"/>
<path d="M76.4997 122.446C79.9483 121.545 82.3927 123.063 83.9294 126.279C85.4661 129.494 84.4102 133.731 81.544 135.849C80.022 136.974 78.0946 137.51 76.204 137.422C74.9449 137.364 73.6613 137.019 72.689 136.217C71.7167 135.415 71.0523 133.71 71.3103 132.476L73.604 132.015C73.604 132.015 76.0811 132.115 75.692 128.211C75.3029 124.307 73.0691 124.022 71.3103 124.097L76.4997 122.446Z" fill="#F15156"/>
<path d="M46.2895 22.568C45.8656 23.3151 45.5004 24.1462 45.215 24.9563C45.0492 25.4271 44.8015 26.1218 44.8666 26.6164C44.9317 27.111 45.094 27.4909 45.5459 27.7035C45.9971 27.9162 46.8611 27.6902 47.0926 27.2481C47.2354 26.976 47.2179 26.6507 47.1871 26.345C47.0556 25.0536 46.7533 23.7796 46.2895 22.568Z" fill="#F15156"/>
<path d="M46.2893 22.5679C46.3298 22.5511 46.646 23.1681 46.9504 24.2441C47.1015 24.7813 47.2442 25.4333 47.3351 26.1672C47.368 26.5198 47.4701 26.9612 47.205 27.4033C46.8979 27.8091 46.4362 27.9483 45.9689 27.9665C45.4729 27.991 45.0014 27.6412 44.837 27.2172C44.667 26.8108 44.6488 26.3687 44.7341 25.9895C44.9048 25.2431 45.1734 24.6463 45.391 24.13C45.8485 23.1101 46.2501 22.5434 46.2893 22.5679C46.3368 22.5945 46.0185 23.2003 45.6303 24.228C45.4484 24.7401 45.2021 25.3662 45.065 26.0511C45.0363 26.2211 45.0174 26.3981 45.0356 26.5611C45.0559 26.7345 45.0958 26.9178 45.1644 27.0738C45.2973 27.3844 45.6065 27.616 45.9675 27.6013C46.3291 27.5985 46.7356 27.4446 46.9084 27.2039C47.0791 26.9486 47.0371 26.5596 47.0014 26.2036C46.9308 25.4837 46.8167 24.8408 46.6999 24.3049C46.4649 23.2339 46.2361 22.5875 46.2893 22.5679Z" fill="#E0E0E0"/>
<path d="M31.5374 16.3831C43.5456 23.7621 49.1271 23.9388 57.7502 19.6597C48.8236 23.0981 43.1727 22.7088 31.5374 16.3831Z" stroke="#E0E0E0" stroke-width="0.819151"/>
<path d="M46.8441 22.3133C46.8441 22.6113 46.602 22.8533 46.304 22.8533C46.006 22.8533 45.7639 22.612 45.7639 22.3133C45.7639 22.0145 46.006 21.7732 46.304 21.7732C46.6027 21.7732 46.8441 22.0152 46.8441 22.3133Z" fill="#E0E0E0"/>
<path d="M39.5611 21.3459C39.5611 21.6439 39.319 21.8859 39.021 21.8859C38.723 21.8859 38.481 21.6439 38.481 21.3459C38.481 21.0478 38.723 20.8058 39.021 20.8058C39.319 20.8058 39.5611 21.0478 39.5611 21.3459Z" fill="#E0E0E0"/>
<path d="M42.7124 22.4259C42.7124 22.724 42.4704 22.966 42.1724 22.966C41.8744 22.966 41.6323 22.724 41.6323 22.4259C41.6323 22.1279 41.8744 21.8859 42.1724 21.8859C42.4704 21.8859 42.7124 22.1272 42.7124 22.4259Z" fill="#E0E0E0"/>
<path d="M36.4219 19.9069C36.4219 20.2049 36.1799 20.447 35.8819 20.447C35.5839 20.447 35.3418 20.2049 35.3418 19.9069C35.3418 19.6089 35.5839 19.3668 35.8819 19.3668C36.1799 19.3668 36.4219 19.6089 36.4219 19.9069Z" fill="#E0E0E0"/>
<path d="M50.2784 22.9905C50.2784 23.2885 50.0363 23.5306 49.7383 23.5306C49.4403 23.5306 49.1982 23.2892 49.1982 22.9905C49.1982 22.6918 49.4403 22.4504 49.7383 22.4504C50.0363 22.4504 50.2784 22.6925 50.2784 22.9905Z" fill="#E0E0E0"/>
<path d="M53.8606 22.1328C53.8606 22.4309 53.6186 22.6729 53.3206 22.6729C53.0225 22.6729 52.7805 22.4309 52.7805 22.1328C52.7805 21.8348 53.0225 21.5928 53.3206 21.5928C53.6186 21.5935 53.8606 21.8348 53.8606 22.1328Z" fill="#E0E0E0"/>
<path d="M57.346 20.684C57.346 20.982 57.104 21.2241 56.8059 21.2241C56.5079 21.2241 56.2659 20.982 56.2659 20.684C56.2659 20.386 56.5079 20.1439 56.8059 20.1439C57.1047 20.1439 57.346 20.3853 57.346 20.684Z" fill="#E0E0E0"/>
<path d="M25.6537 48.33C25.166 50.0022 24.6782 51.6756 24.2992 53.376C24.1725 53.9451 24.0604 54.5555 24.2739 55.098C24.558 55.8209 25.3651 56.2265 26.1398 56.2743C26.801 56.3152 27.5279 56.101 27.8905 55.5466C28.2884 54.9382 28.2062 54.1176 27.9674 53.4316C27.3464 51.6449 26.4878 49.9788 25.6537 48.33Z" fill="#E0E0E0"/>
<path d="M25.8533 50.4915C25.5577 51.505 25.2621 52.5193 25.0323 53.5501C24.9554 53.8951 24.8875 54.2651 25.0172 54.5938C25.1897 55.0317 25.6787 55.2779 26.1484 55.3069C26.5491 55.3318 26.9899 55.2018 27.2094 54.8657C27.4506 54.497 27.4008 53.9998 27.256 53.5836C26.8795 52.501 26.359 51.4907 25.8533 50.4915Z" fill="#F15156"/>
<path d="M26.8054 56.7609C26.8054 57.0409 26.5785 57.2679 26.2985 57.2679C26.0184 57.2679 25.7915 57.0409 25.7915 56.7609C25.7915 56.4808 26.0184 56.2539 26.2985 56.2539C26.5785 56.2539 26.8054 56.4808 26.8054 56.7609Z" fill="#E0E0E0"/>
<path d="M25.6427 56.3431C25.6427 56.4829 25.5291 56.5966 25.3892 56.5966C25.2494 56.5966 25.1357 56.4829 25.1357 56.3431C25.1357 56.2033 25.2494 56.0896 25.3892 56.0896C25.5295 56.0896 25.6427 56.2028 25.6427 56.3431Z" fill="#E0E0E0"/>
<path d="M27.3864 56.3814C27.3864 56.5212 27.2727 56.6349 27.1329 56.6349C26.9931 56.6349 26.8794 56.5217 26.8794 56.3814C26.8794 56.2416 26.9931 56.1279 27.1329 56.1279C27.2727 56.1279 27.3864 56.2416 27.3864 56.3814Z" fill="#E0E0E0"/>
<path d="M28.0912 55.9582C28.0912 56.098 27.9776 56.2117 27.8377 56.2117C27.6979 56.2117 27.5842 56.098 27.5842 55.9582C27.5842 55.8184 27.6979 55.7047 27.8377 55.7047C27.9776 55.7047 28.0912 55.8184 28.0912 55.9582Z" fill="#E0E0E0"/>
<path d="M28.4823 55.3933C28.4823 55.5331 28.3691 55.6467 28.2288 55.6467C28.089 55.6467 27.9753 55.5331 27.9753 55.3933C27.9753 55.2534 28.0886 55.1398 28.2288 55.1398C28.3687 55.1398 28.4823 55.2534 28.4823 55.3933Z" fill="#E0E0E0"/>
<path d="M28.653 54.7001C28.653 54.84 28.5393 54.9536 28.3995 54.9536C28.2597 54.9536 28.146 54.84 28.146 54.7001C28.146 54.5603 28.2597 54.4467 28.3995 54.4467C28.5397 54.4467 28.653 54.5603 28.653 54.7001Z" fill="#E0E0E0"/>
<path d="M24.7759 56.3036C24.9159 56.3036 25.0294 56.1901 25.0294 56.0501C25.0294 55.9101 24.9159 55.7966 24.7759 55.7966C24.6359 55.7966 24.5225 55.9101 24.5225 56.0501C24.5225 56.1901 24.6359 56.3036 24.7759 56.3036Z" fill="#E0E0E0"/>
<path d="M24.0089 55.3098C24.1489 55.3098 24.2623 55.1963 24.2623 55.0563C24.2623 54.9163 24.1489 54.8029 24.0089 54.8029C23.8689 54.8029 23.7554 54.9163 23.7554 55.0563C23.7554 55.1963 23.8689 55.3098 24.0089 55.3098Z" fill="#E0E0E0"/>
<path d="M24.5399 55.6005C24.5399 55.7404 24.4263 55.854 24.2864 55.854C24.1466 55.854 24.033 55.7404 24.033 55.6005C24.033 55.4607 24.1462 55.347 24.2864 55.347C24.4263 55.347 24.5399 55.4607 24.5399 55.6005Z" fill="#E0E0E0"/>
</svg>
