<svg width="570" height="804" viewBox="0 0 570 804" fill="none" xmlns="http://www.w3.org/2000/svg">
<path d="M64.7526 725.038H28.7881V266.168C28.7881 140.086 131.364 37.51 257.446 37.51H311.41C437.492 37.51 540.066 140.086 540.066 266.168V696.728H504.104V266.168C504.104 159.918 417.662 73.4764 311.41 73.4764H257.446C151.194 73.4764 64.7526 159.918 64.7526 266.168V725.038Z" fill="#FFF8F5"/>
<path d="M86.0199 635.144H9.54541V804H86.0199V635.144Z" fill="#FFF8F5"/>
<path d="M95.5649 626.977H0V635.144H95.5649V626.977Z" fill="#FFF8F5"/>
<path d="M86.8616 626.977L78.8854 619.719H14.5252L9.48535 627.101L86.8616 626.977Z" fill="#FFF8F5"/>
<path d="M79.0142 609.923H14.5249V619.719H79.0142V609.923Z" fill="#FCEBE3"/>
<path d="M86.0199 635.144H9.54541V645.486H86.0199V635.144Z" fill="#FCEBE3"/>
<path d="M85.3995 626.168H10.4995V627.788H85.3995V626.168Z" fill="#FCEBE3"/>
<path d="M65.0915 784.575H28.4487V665.501H65.0915V784.575ZM31.6886 781.337H61.8515V668.743H31.6886V781.337Z" fill="#FCEBE3"/>
<path d="M560.32 635.144H483.846V804H560.32V635.144Z" fill="#FFF8F5"/>
<path d="M569.868 626.977H474.303V635.144H569.868V626.977Z" fill="#FFF8F5"/>
<path d="M561.162 626.977L553.186 619.719H488.826L483.786 627.101L561.162 626.977Z" fill="#FFF8F5"/>
<path d="M553.315 609.923H488.826V619.719H553.315V609.923Z" fill="#FCEBE3"/>
<path d="M560.32 635.144H483.846V645.486H560.32V635.144Z" fill="#FCEBE3"/>
<path d="M559.7 626.168H484.8V627.788H559.7V626.168Z" fill="#FCEBE3"/>
<path d="M539.392 784.575H502.749V665.501H539.392V784.575ZM505.991 781.337H536.154V668.743H505.991V781.337Z" fill="#FCEBE3"/>
<path d="M366.144 4.47459C365.984 4.44005 365.524 5.6582 364.979 7.94542C364.446 10.229 363.821 13.6035 363.777 17.8615C363.757 19.9888 363.93 22.3341 364.408 24.8177C364.886 27.3031 365.735 29.8958 366.917 32.4684C369.27 37.641 372.971 42.6282 376.92 47.6026C380.871 52.577 384.571 57.2951 387.038 62.0695C388.284 64.444 389.229 66.8076 389.833 69.0839C390.422 71.3693 390.7 73.5692 390.733 75.5783C390.798 79.6091 389.853 82.8126 388.898 84.8562C387.947 86.9162 387.147 87.9452 387.309 88.078C387.404 88.1689 388.473 87.3507 389.753 85.3126C391.033 83.2981 392.331 79.9254 392.493 75.6001C392.576 73.4456 392.383 71.0748 391.84 68.5966C391.278 66.1167 390.338 63.5586 389.084 61.0295C386.593 55.9333 382.816 51.0262 378.875 46.059C374.933 41.0991 371.32 36.3193 368.991 31.4885C366.602 26.6886 365.708 21.9014 365.539 17.8252C365.359 13.7471 365.699 10.409 365.935 8.10723C366.181 5.80183 366.321 4.51277 366.144 4.47459Z" fill="#69B398"/>
<path d="M334.323 19.6978C334.354 20.1069 337.349 19.8342 341.903 20.7851C344.178 21.2559 346.807 22.1341 349.601 23.4359C352.385 24.7468 355.408 26.4358 358.376 28.3885C364.326 32.3102 368.412 37.4592 371.673 40.99C374.901 44.5481 377.121 46.559 377.371 46.3335C377.633 46.0971 375.899 43.6972 373.03 39.8664C371.584 37.9592 369.864 35.6701 367.71 33.2647C365.577 30.8448 362.872 28.423 359.766 26.3213C356.63 24.2613 353.521 22.605 350.525 21.3341C347.529 20.0796 344.647 19.3178 342.189 19.0469C337.247 18.5015 334.271 19.4324 334.323 19.6978Z" fill="#69B398"/>
<path d="M342.165 31.2574C342.13 31.6029 343.915 32.0792 346.808 32.6138C349.699 33.1556 353.692 33.7465 358.01 34.6537C362.326 35.5664 366.18 36.63 368.762 37.7482C371.364 38.8481 372.767 39.9863 373.031 39.7281C373.275 39.5245 372.224 37.8264 369.582 36.1882C366.955 34.541 362.986 33.1592 358.524 32.2156C354.052 31.2792 349.952 30.9593 346.997 30.8629C344.037 30.7738 342.199 30.9193 342.165 31.2574Z" fill="#69B398"/>
<path d="M362.924 3.0963C362.812 4.91444 364.193 6.47985 366.013 6.5944C367.832 6.70712 369.397 5.32534 369.511 3.50538C369.624 1.68725 368.242 0.120014 366.422 0.00728907C364.603 -0.105435 363.037 1.27635 362.924 3.0963Z" fill="#F5DA7F"/>
<path d="M330.99 20.1031C330.878 21.9212 332.259 23.4867 334.079 23.6012C335.897 23.7139 337.465 22.3321 337.577 20.5122C337.69 18.694 336.308 17.1286 334.488 17.0141C332.67 16.9014 331.103 18.285 330.99 20.1031Z" fill="#F5DA7F"/>
<path d="M338.87 31.0537C338.757 32.8719 340.139 34.4391 341.959 34.5518C343.779 34.6645 345.345 33.2828 345.457 31.4628C345.57 29.6447 344.188 28.0793 342.368 27.9647C340.55 27.852 338.985 29.2356 338.87 31.0537Z" fill="#F5DA7F"/>
<path d="M203.186 4.47438C203.346 4.43983 203.806 5.65799 204.352 7.9452C204.885 10.2288 205.51 13.6032 205.554 17.8613C205.574 19.9885 205.401 22.3339 204.923 24.8175C204.446 27.3029 203.595 29.8956 202.414 32.4682C200.061 37.6408 196.359 42.628 192.41 47.6024C188.459 52.5768 184.76 57.2949 182.292 62.0693C181.047 64.4438 180.101 66.8074 179.498 69.0837C178.909 71.3691 178.631 73.569 178.598 75.5781C178.532 79.6089 179.478 82.8124 180.432 84.856C181.383 86.916 182.183 87.945 182.02 88.0777C181.925 88.1687 180.856 87.3505 179.576 85.3124C178.296 83.2979 176.998 79.9252 176.836 75.5999C176.752 73.4454 176.945 71.0745 177.489 68.5964C178.051 66.1165 178.991 63.5584 180.243 61.0293C182.734 55.9331 186.512 51.0259 190.452 46.0588C194.394 41.0989 198.007 36.319 200.336 31.4883C202.725 26.6884 203.619 21.9012 203.788 17.825C203.968 13.7469 203.628 10.4088 203.392 8.10702C203.15 5.80162 203.01 4.51256 203.186 4.47438Z" fill="#69B398"/>
<path d="M235.007 19.6975C234.976 20.1066 231.982 19.8339 227.427 20.7848C225.153 21.2557 222.524 22.1338 219.729 23.4356C216.946 24.7465 213.922 26.4355 210.955 28.3882C205.004 32.3099 200.919 37.4589 197.657 40.9897C194.43 44.5478 192.208 46.5587 191.959 46.3332C191.697 46.0969 193.434 43.6969 196.301 39.8661C197.746 37.9589 199.468 35.6699 201.621 33.2645C203.753 30.8445 206.459 28.4228 209.564 26.321C212.7 24.261 215.809 22.6047 218.806 21.3339C221.802 20.0793 224.684 19.3175 227.142 19.0466C232.084 18.5012 235.06 19.4321 235.007 19.6975Z" fill="#69B398"/>
<path d="M227.167 31.2575C227.202 31.6029 225.416 32.0793 222.524 32.6138C219.633 33.1556 215.64 33.7465 211.322 34.6538C207.006 35.5665 203.151 36.6301 200.57 37.7482C197.968 38.8482 196.564 39.9864 196.301 39.7282C196.057 39.5246 197.108 37.8264 199.75 36.1883C202.377 34.541 206.348 33.1593 210.809 32.2156C215.282 31.2793 219.38 30.9593 222.336 30.863C225.295 30.7739 227.133 30.9193 227.167 31.2575Z" fill="#69B398"/>
<path d="M203.113 6.59984C204.936 6.59984 206.413 5.12241 206.413 3.29992C206.413 1.47742 204.936 0 203.113 0C201.291 0 199.813 1.47742 199.813 3.29992C199.813 5.12241 201.291 6.59984 203.113 6.59984Z" fill="#F5DA7F"/>
<path d="M238.34 20.1032C238.453 21.9214 237.071 23.4868 235.251 23.6013C233.433 23.714 231.868 22.3323 231.753 20.5123C231.64 18.6942 233.024 17.1288 234.842 17.0142C236.662 16.9015 238.227 18.2851 238.34 20.1032Z" fill="#F5DA7F"/>
<path d="M230.46 31.0538C230.572 32.8719 229.191 34.4392 227.371 34.5519C225.553 34.6646 223.985 33.2828 223.873 31.4629C223.76 29.6447 225.142 28.0793 226.962 27.9648C228.78 27.852 230.347 29.2356 230.46 31.0538Z" fill="#F5DA7F"/>
<path d="M137.947 103.794C137.945 103.797 137.941 103.799 137.937 103.803C137.605 104.132 104.018 136.66 50.4524 139.826C50.0178 139.851 49.6451 139.52 49.6197 139.086C49.5979 138.649 49.9269 138.278 50.3597 138.253C103.311 135.122 136.501 103.005 136.83 102.681C137.141 102.374 137.639 102.379 137.945 102.69C138.248 102.996 138.248 103.488 137.947 103.794Z" fill="#A8D4E5"/>
<path d="M72.7567 135.517C72.7567 135.517 79.022 150.943 62.326 163.463C62.326 163.463 57.0807 148.24 72.7567 135.517Z" fill="#A8D4E5"/>
<path d="M55.5228 138.253C55.5228 138.253 48.8121 153.491 28.2017 150.223C28.2017 150.223 35.476 135.858 55.5228 138.253Z" fill="#A8D4E5"/>
<path d="M73.5171 136.691C73.5171 136.691 71.5971 120.151 50.9395 117.197C50.9395 117.197 53.6539 133.067 73.5171 136.691Z" fill="#A8D4E5"/>
<path d="M91.5693 130.004C91.5693 130.004 98.0128 145.356 81.4641 158.069C81.4641 158.069 76.0424 142.907 91.5693 130.004Z" fill="#A8D4E5"/>
<path d="M92.3417 131.169C92.3417 131.169 90.2308 114.653 69.5386 111.939C69.5386 111.939 72.4403 127.777 92.3417 131.169Z" fill="#A8D4E5"/>
<path d="M111.225 121.084C111.225 121.084 118.621 136.002 102.905 149.729C102.905 149.729 96.5399 134.938 111.225 121.084Z" fill="#A8D4E5"/>
<path d="M112.07 122.199C112.07 122.199 108.925 105.848 88.1035 104.439C88.1035 104.439 91.9943 120.064 112.07 122.199Z" fill="#A8D4E5"/>
<path d="M175.191 53.6697C175.191 53.6697 175.44 35.9828 183.898 40.5463C191.847 44.8371 176.58 55.8132 176.58 55.8132L175.191 53.6697Z" fill="#F5DA7F"/>
<path d="M175.774 56.3807C175.774 56.3807 158.218 47.27 165.947 41.561C173.212 36.1939 176.647 54.6825 176.647 54.6825L175.774 56.3807Z" fill="#F5DA7F"/>
<path d="M175.774 56.3806C175.774 56.3806 175.525 74.0675 167.067 69.5039C159.118 65.2131 174.385 54.2352 174.385 54.2352L175.774 56.3806Z" fill="#F5DA7F"/>
<path d="M176.849 55.0242C176.849 55.0242 192.746 62.7785 185.018 68.4875C177.752 73.8546 174.318 55.366 174.318 55.366L176.849 55.0242Z" fill="#F5DA7F"/>
<path d="M174.523 56.2423C174.523 56.2423 159.245 65.1584 158.789 55.5587C158.36 46.5353 175.643 53.946 175.643 53.946L174.523 56.2423Z" fill="#F5DA7F"/>
<path d="M177.316 56.2423C177.316 56.2423 192.594 65.1584 193.05 55.5587C193.479 46.5353 176.196 53.946 176.196 53.946L177.316 56.2423Z" fill="#F5DA7F"/>
<path d="M178.93 54.8734C178.93 56.6897 177.458 58.1606 175.643 58.1606C173.827 58.1606 172.356 56.6897 172.356 54.8734C172.356 53.0571 173.827 51.5862 175.643 51.5862C177.458 51.5862 178.93 53.0571 178.93 54.8734Z" fill="#612223"/>
<path d="M138.067 90.1067C138.067 90.1067 170.068 82.4615 203.898 100.272" stroke="#69B398" stroke-width="1.11652" stroke-miterlimit="10" stroke-linecap="round" stroke-linejoin="round"/>
<path d="M189.061 94.2195C189.061 94.2195 190.914 82.5744 205.619 81.1035C205.619 81.1035 203.223 92.2505 189.061 94.2195Z" fill="#69B398"/>
<path d="M200.509 98.8756C200.509 98.8756 210.158 92.0976 221.454 101.628C221.454 101.628 211.782 107.67 200.509 98.8756Z" fill="#69B398"/>
<path d="M189.032 93.2302C189.032 93.2302 184.135 103.957 195.575 113.315C195.575 113.315 199.742 102.701 189.032 93.2302Z" fill="#69B398"/>
<path d="M175.639 90.6706C175.639 90.6706 177.357 79.0054 192.044 77.3618C192.044 77.3618 189.777 88.5361 175.639 90.6706Z" fill="#69B398"/>
<path d="M175.597 89.6814C175.597 89.6814 170.826 100.465 182.373 109.69C182.373 109.69 186.417 99.0266 175.597 89.6814Z" fill="#69B398"/>
<path d="M160.459 88.876C160.459 88.876 161.441 77.1254 175.995 74.5618C175.995 74.5618 174.434 85.8579 160.459 88.876Z" fill="#69B398"/>
<path d="M160.354 87.8906C160.354 87.8906 156.27 98.954 168.374 107.434C168.374 107.434 171.741 96.5395 160.354 87.8906Z" fill="#69B398"/>
<path d="M96.1763 162.576C96.1763 162.576 95.5999 172.998 109.42 176.03C109.42 176.03 107.994 166.567 96.1763 162.576Z" fill="#A8D4E5"/>
<path d="M116.503 147.16C116.503 147.16 122.091 155.976 135.101 150.411C135.101 150.411 128.439 143.54 116.503 147.16Z" fill="#A8D4E5"/>
<path d="M7.86035 311.007C7.86035 311.007 9.04578 321.378 23.18 322.041C23.18 322.041 20.1819 312.954 7.86035 311.007Z" fill="#A8D4E5"/>
<path d="M44.3918 311.705C44.3918 311.705 34.3611 308.818 28.3213 321.612C28.3213 321.612 37.8629 322.334 44.3918 311.705Z" fill="#A8D4E5"/>
<path d="M21.4331 348.811C21.4331 348.811 26.9693 357.66 40.0108 352.171C40.0108 352.171 33.391 345.261 21.4331 348.811Z" fill="#A8D4E5"/>
<path d="M52.0372 336.792C52.0372 336.792 41.741 338.506 41.801 352.655C41.801 352.655 50.7226 349.197 52.0372 336.792Z" fill="#A8D4E5"/>
<path d="M12.0781 433.924C12.0781 433.924 17.998 442.52 30.7849 436.464C30.7849 436.464 23.8687 429.851 12.0781 433.924Z" fill="#A8D4E5"/>
<path d="M40.334 417.45C40.334 417.45 30.1233 419.615 30.8051 433.747C30.8051 433.747 39.5667 429.9 40.334 417.45Z" fill="#A8D4E5"/>
<path d="M36.6646 452.456C36.6646 452.456 45.6043 457.843 54.7532 447.049C54.7532 447.049 45.7243 443.88 36.6646 452.456Z" fill="#A8D4E5"/>
<path d="M55.6043 425.79C55.6043 425.79 47.1972 431.975 53.6516 444.567C53.6516 444.567 60.0442 437.447 55.6043 425.79Z" fill="#A8D4E5"/>
<path d="M66.6771 372.287C66.3462 372.794 64.1681 372.093 60.5355 370.291C56.9138 368.469 51.7975 365.591 45.874 361.229C42.9214 359.038 39.776 356.46 36.6488 353.32C33.5089 350.22 30.4562 346.362 27.8763 342.041C25.3018 337.688 23.1073 332.745 21.7619 327.274C20.451 321.814 19.9729 315.794 21.0292 309.749C22.051 303.658 24.4691 298.227 27.3054 293.522C30.149 288.809 33.3416 284.691 36.5215 281.053C42.8923 273.762 48.9067 267.879 53.4866 262.61C58.0737 257.372 61.3064 252.834 63.2463 249.476C64.3627 247.854 64.9517 246.469 65.5972 245.594C66.2008 244.705 66.6644 244.261 66.959 244.343C67.2535 244.425 67.3644 245.029 67.2971 246.134C67.188 247.221 67.0899 248.898 66.4026 250.856C65.3245 254.908 62.6263 260.419 58.4228 266.459C54.2466 272.506 48.5431 279.011 42.8123 286.246C39.9378 289.86 37.1797 293.731 34.8034 297.88C32.4307 302.011 30.5344 306.534 29.7562 311.229C28.1108 320.73 30.869 330.326 34.9743 338.028C39.0451 345.804 44.7813 351.637 49.8648 356.411C54.9793 361.149 59.4664 364.766 62.4554 367.435C65.4644 370.089 67.0135 371.771 66.6771 372.287Z" fill="#69B398"/>
<path d="M120.001 132.004C120.628 131.953 121.453 133.293 121.801 135.993C122.146 138.666 121.855 142.722 120.059 147.28C118.314 151.813 114.946 156.843 110.186 161.078C105.452 165.361 99.4813 168.879 93.156 171.745C86.838 174.627 80.4708 176.81 74.4528 178.067C68.4402 179.345 62.7967 179.652 58.1132 179.239C53.4224 178.852 49.7298 177.743 47.3535 176.639C46.7371 176.354 46.2826 176.114 45.7517 175.83C44.559 175.205 44.5408 174.467 44.4499 173.959C44.4317 173.69 44.4517 173.438 44.5463 173.148C44.5899 173.023 44.6717 172.832 44.8208 172.69C44.9899 172.516 45.2008 172.474 45.3681 172.485C45.6299 172.55 45.6917 172.685 45.7081 172.778C45.7317 172.876 45.7135 172.958 45.6753 173.03C45.6372 173.103 45.579 173.168 45.5263 173.236L45.4535 173.336C45.4554 173.394 45.4881 173.223 45.4644 173.174C45.4263 173.052 45.4554 173.232 45.8226 173.241L46.0644 173.236C46.0862 173.239 46.1008 173.23 46.1244 173.238L46.2608 173.278C46.3553 173.307 46.4626 173.343 46.5535 173.33C46.7571 173.178 46.3681 173.561 46.3699 173.701L46.3662 173.719L46.3644 173.725C46.6899 172.439 46.459 173.368 46.5317 173.081L46.5426 173.079L46.5881 173.076L46.6808 173.067L46.8717 173.05C47.0008 173.041 47.1335 173.032 47.2699 173.023C47.5444 173.012 47.8335 173.001 48.1353 172.988C50.5589 172.927 53.9533 172.932 58.0714 172.454C66.313 171.649 77.3909 168.487 89.1743 163.014C95.0687 160.343 100.325 157.491 104.525 154.287C108.754 151.104 111.834 147.602 113.988 144.249C118.315 137.558 118.577 132.097 120.001 132.004Z" fill="#69B398"/>
<path d="M66.6588 459.565C66.1224 459.24 66.0588 458.309 65.6061 457.26C65.1861 456.238 64.3243 454.827 62.8989 453.894C61.4207 452.867 59.1171 452.129 55.7645 451.178C52.43 450.184 48.8138 448.98 45.0502 447.589C41.2703 446.196 37.4268 444.56 34.1759 442.289C30.9124 440.071 28.3506 437.128 26.9979 434.357C25.5889 431.57 25.2562 428.948 25.498 427.224C25.7362 425.479 26.398 424.639 26.9852 424.65C28.2561 424.702 29.0615 427.742 32.1833 430.846C33.7469 432.44 35.7504 433.964 38.4413 435.333C41.1085 436.722 44.3993 437.917 48.1301 439.286C51.8791 440.673 55.4191 442.113 58.5953 443.526C61.7425 444.886 65.3497 446.711 67.4679 449.611C69.6533 452.567 69.7387 455.691 69.0442 457.549C68.3006 459.452 67.1206 459.88 66.6588 459.565Z" fill="#69B398"/>
<path d="M28.5233 265.901C28.5233 265.901 24.0161 255.337 4.8584 254.861C4.8584 254.861 9.931 273.211 32.6068 272.888L28.5233 265.901Z" fill="#69B398"/>
<path d="M25.1835 281.509C25.1835 281.509 11.1093 281.937 2.00586 303.598C2.00586 303.598 25.2235 306.005 34.9869 279.968L25.1835 281.509Z" fill="#69B398"/>
<path d="M39.2529 273.928C39.2529 273.928 39.7929 249.999 51.1835 256.272C61.8906 262.168 41.1056 276.846 41.1056 276.846L39.2529 273.928Z" fill="#FCA2C8"/>
<path d="M40.0109 277.604C40.0109 277.604 16.3606 265.077 26.884 257.441C36.7765 250.263 41.2127 275.317 41.2127 275.317L40.0109 277.604Z" fill="#FCA2C8"/>
<path d="M40.0106 277.604C40.0106 277.604 39.4706 301.532 28.08 295.26C17.373 289.364 38.1579 274.686 38.1579 274.686L40.0106 277.604Z" fill="#FCA2C8"/>
<path d="M41.4801 275.78C41.4801 275.78 62.9014 286.455 52.378 294.091C42.4856 301.269 38.0493 276.215 38.0493 276.215L41.4801 275.78Z" fill="#FCA2C8"/>
<path d="M38.3179 277.402C38.3179 277.402 17.5457 289.291 17.0385 276.299C16.5621 264.086 39.8615 274.31 39.8615 274.31L38.3179 277.402Z" fill="#FCA2C8"/>
<path d="M42.0978 277.433C42.0978 277.433 62.6664 289.671 63.3936 276.689C64.0773 264.486 40.6069 274.313 40.6069 274.313L42.0978 277.433Z" fill="#FCA2C8"/>
<path d="M44.2978 275.599C44.2778 278.055 42.2688 280.029 39.8125 280.008C37.3562 279.988 35.3817 277.978 35.4035 275.522C35.4235 273.066 37.4325 271.091 39.8888 271.113C42.3451 271.135 44.3178 273.142 44.2978 275.599Z" fill="#CC608C"/>
<path d="M51.401 186.724C51.401 186.724 45.5939 197.555 58.0136 213.873C58.0136 213.873 69.946 197.362 54.5064 178.639L51.401 186.724Z" fill="#69B398"/>
<path d="M66.67 179.072C66.67 179.072 76.4406 190.541 100.622 183.652C100.622 183.652 87.1004 162.652 58.8247 171.916L66.67 179.072Z" fill="#69B398"/>
<path d="M50.9265 172.394C50.9265 172.394 30.5816 187.95 28.1998 174.241C25.9617 161.356 52.1228 168.894 52.1228 168.894L50.9265 172.394Z" fill="#F5DA7F"/>
<path d="M53.49 169.303C53.49 169.303 58.8499 197.435 45.4303 193.755C32.8178 190.297 50.7738 169.83 50.7738 169.83L53.49 169.303Z" fill="#F5DA7F"/>
<path d="M53.4898 169.303C53.4898 169.303 73.8347 153.747 76.2165 167.456C78.4546 180.341 52.2935 172.803 52.2935 172.803L53.4898 169.303Z" fill="#F5DA7F"/>
<path d="M50.9845 169.294C50.9845 169.294 45.5683 144.264 58.9862 147.944C71.5986 151.404 53.6426 171.869 53.6426 171.869L50.9845 169.294Z" fill="#F5DA7F"/>
<path d="M54.4533 170.85C54.4533 170.85 78.2782 180.245 67.7675 189.361C57.886 197.93 50.8389 171.632 50.8389 171.632L54.4533 170.85Z" fill="#F5DA7F"/>
<path d="M51.9502 167.672C51.9502 167.672 48.4121 142.307 37.0833 150.385C26.4345 157.978 50.343 171.005 50.343 171.005L51.9502 167.672Z" fill="#F5DA7F"/>
<path d="M48.9482 167.061C51.0136 165.436 54.0062 165.792 55.6316 167.858C57.2571 169.923 56.9007 172.916 54.8353 174.541C52.7699 176.166 49.7772 175.81 48.1518 173.745C46.5264 171.679 46.8828 168.688 48.9482 167.061Z" fill="#612223"/>
<path d="M77.42 160.751C77.2309 160.716 77.2909 159.189 77.7491 156.471C78.2181 153.762 79.0872 149.835 80.9872 145.216C81.9381 142.913 83.198 140.458 84.8489 137.997C86.4997 135.533 88.6052 133.122 91.056 130.886C95.9613 126.379 102.238 122.688 108.776 119.124C115.315 115.561 121.468 112.159 126.313 108.136C128.744 106.141 130.844 104.023 132.539 101.841C134.22 99.643 135.528 97.3958 136.48 95.2413C138.395 90.9196 138.838 87.0306 138.744 84.387C138.66 81.7271 138.268 80.2526 138.502 80.1835C138.646 80.129 139.426 81.5017 139.877 84.2871C140.337 87.047 140.197 91.2832 138.393 96.0249C137.497 98.3885 136.206 100.859 134.484 103.287C132.744 105.707 130.559 108.037 128.048 110.194C123.028 114.555 116.706 118.126 110.179 121.684C103.656 125.237 97.5704 128.742 92.8469 132.893C88.0724 136.982 84.918 141.74 82.8708 146.062C80.8108 150.382 79.6527 154.142 78.8545 156.733C78.0672 159.334 77.6291 160.791 77.42 160.751Z" fill="#69B398"/>
<path d="M50.0334 129.764C50.2534 129.337 53.3606 131 58.7132 132.057C61.3841 132.588 64.6222 132.844 68.2348 132.717C71.8383 132.573 75.8746 132.133 79.9727 131.382C88.1907 129.871 94.9541 126.181 100.092 123.861C105.203 121.495 108.519 120.341 108.687 120.699C108.861 121.073 105.89 122.872 101.043 125.695C98.6104 127.093 95.705 128.777 92.2797 130.39C88.8707 132.026 84.8435 133.404 80.5309 134.251C76.2037 135.042 72.0893 135.406 68.2748 135.408C64.4658 135.391 61.0077 134.895 58.2314 134.064C52.6406 132.393 49.8553 130.028 50.0334 129.764Z" fill="#69B398"/>
<path d="M63.7845 120.872C63.9045 120.482 66.0517 120.786 69.417 121.532C72.786 122.268 77.3659 123.457 82.4422 124.453C87.5184 125.444 92.1674 126.057 95.4655 126.031C98.7781 126.033 100.813 125.448 100.978 125.846C101.147 126.177 99.2363 127.53 95.6364 128.09C92.0474 128.666 87.1293 128.342 81.8822 127.32C76.6259 126.286 72.0552 124.757 68.8207 123.508C65.5844 122.251 63.6663 121.252 63.7845 120.872Z" fill="#69B398"/>
<path d="M73.3146 160.767C74.0237 158.752 76.2327 157.694 78.249 158.403C80.2635 159.112 81.3217 161.321 80.6108 163.336C79.9017 165.35 77.6926 166.409 75.6782 165.7C73.6618 164.99 72.6037 162.781 73.3146 160.767Z" fill="#F5DA7F"/>
<path d="M46.6213 127.804C47.3304 125.79 49.5394 124.731 51.5539 125.44C53.5684 126.15 54.6266 128.359 53.9175 130.373C53.2084 132.388 50.9994 133.446 48.9849 132.737C46.9704 132.028 45.9122 129.819 46.6213 127.804Z" fill="#F5DA7F"/>
<path d="M60.1369 119.586C60.8478 117.572 63.055 116.513 65.0713 117.224C67.0858 117.933 68.1439 120.142 67.4349 122.157C66.7258 124.171 64.5168 125.23 62.5004 124.52C60.4841 123.81 59.426 121.601 60.1369 119.586Z" fill="#F5DA7F"/>
<path d="M248.136 32.0227C248.31 32.1027 247.881 33.5681 246.776 36.0935C245.661 38.608 243.863 42.2061 240.896 46.2205C239.412 48.2241 237.594 50.2968 235.392 52.284C233.191 54.2712 230.562 56.0984 227.642 57.6711C221.787 60.8492 214.8 62.9019 207.591 64.7673C200.381 66.6327 193.586 68.4327 187.906 71.1563C185.063 72.4999 182.51 74.0416 180.336 75.7452C178.168 77.4688 176.356 79.3288 174.907 81.1869C171.998 84.9123 170.62 88.5776 170.069 91.163C169.503 93.763 169.525 95.2902 169.28 95.2993C169.125 95.3175 168.705 93.7957 168.945 90.9849C169.17 88.1958 170.338 84.1214 173.241 79.9615C174.685 77.887 176.539 75.8052 178.799 73.8689C181.077 71.9453 183.763 70.2163 186.723 68.7345C192.654 65.7273 199.653 63.8019 206.85 61.9383C214.04 60.0802 220.796 58.1602 226.389 55.2857C232.016 52.4822 236.232 48.635 239.271 44.9405C242.32 41.2534 244.36 37.888 245.763 35.5681C247.165 33.2372 247.945 31.9336 248.136 32.0227Z" fill="#69B398"/>
<path d="M267.159 68.7418C266.842 69.1036 264.232 66.7328 259.297 64.4056C256.835 63.2401 253.757 62.2038 250.223 61.4475C246.692 60.7093 242.67 60.153 238.514 59.8839C230.176 59.3493 222.716 61.282 217.169 62.2838C211.636 63.3347 208.138 63.6456 208.064 63.2583C207.986 62.8529 211.306 61.8329 216.695 60.2729C219.394 59.5093 222.622 58.5821 226.336 57.853C230.04 57.0948 234.283 56.7385 238.672 56.9658C243.061 57.253 247.141 57.9003 250.841 58.8257C254.53 59.7693 257.764 61.0911 260.255 62.5729C265.27 65.5583 267.397 68.5309 267.159 68.7418Z" fill="#69B398"/>
<path d="M251.657 74.0216C251.447 74.3707 249.439 73.5525 246.354 72.0108C243.267 70.4762 239.112 68.209 234.432 66.0055C229.749 63.8091 225.391 62.0837 222.185 61.3056C218.973 60.4965 216.858 60.571 216.793 60.1438C216.709 59.782 218.891 58.9347 222.52 59.2674C226.142 59.582 230.832 61.0928 235.674 63.3619C240.521 65.6436 244.581 68.2399 247.416 70.2381C250.247 72.2453 251.865 73.6798 251.657 74.0216Z" fill="#69B398"/>
<path d="M252.124 33.0063C250.946 34.7881 248.546 35.2772 246.765 34.0972C244.983 32.9191 244.494 30.5191 245.674 28.7373C246.852 26.9556 249.252 26.4683 251.034 27.6465C252.815 28.8246 253.303 31.2246 252.124 33.0063Z" fill="#F5DA7F"/>
<path d="M269.992 71.4746C268.813 73.2563 266.413 73.7454 264.632 72.5655C262.85 71.3873 262.361 68.9874 263.541 67.2056C264.719 65.4238 267.119 64.9347 268.901 66.1147C270.681 67.2929 271.17 69.6928 269.992 71.4746Z" fill="#F5DA7F"/>
<path d="M254.883 76.1562C253.705 77.938 251.305 78.4271 249.523 77.2471C247.741 76.069 247.254 73.669 248.432 71.8873C249.61 70.1055 252.01 69.6164 253.792 70.7964C255.574 71.9745 256.061 74.3745 254.883 76.1562Z" fill="#F5DA7F"/>
<path d="M323.181 32.0227C323.007 32.1027 323.436 33.5681 324.541 36.0935C325.656 38.608 327.454 42.2061 330.421 46.2205C331.905 48.2241 333.723 50.2968 335.925 52.284C338.126 54.2712 340.755 56.0984 343.675 57.6711C349.53 60.8492 356.517 62.9019 363.726 64.7673C370.936 66.6327 377.731 68.4327 383.411 71.1563C386.254 72.4999 388.807 74.0416 390.981 75.7452C393.149 77.4688 394.961 79.3288 396.41 81.1869C399.319 84.9123 400.697 88.5776 401.248 91.163C401.814 93.763 401.792 95.2902 402.037 95.2993C402.19 95.3175 402.612 93.7957 402.372 90.9849C402.147 88.1958 400.979 84.1214 398.076 79.9615C396.632 77.887 394.778 75.8052 392.518 73.8689C390.24 71.9453 387.554 70.2163 384.594 68.7345C378.663 65.7273 371.664 63.8019 364.467 61.9383C357.277 60.0802 350.521 58.1602 344.928 55.2857C339.301 52.4822 335.085 48.635 332.046 44.9405C328.997 41.2534 326.957 37.888 325.554 35.5681C324.154 33.2372 323.374 31.9336 323.181 32.0227Z" fill="#69B398"/>
<path d="M304.16 68.7418C304.476 69.1036 307.087 66.7328 312.022 64.4056C314.483 63.2401 317.561 62.2038 321.096 61.4475C324.627 60.7093 328.649 60.153 332.805 59.8839C341.143 59.3493 348.603 61.282 354.15 62.2838C359.682 63.3347 363.18 63.6456 363.255 63.2583C363.333 62.8529 360.013 61.8329 354.624 60.2729C351.924 59.5093 348.697 58.5821 344.983 57.853C341.279 57.0948 337.036 56.7385 332.647 56.9658C328.258 57.253 324.178 57.9003 320.478 58.8257C316.789 59.7693 313.554 61.0911 311.063 62.5729C306.049 65.5583 303.922 68.5309 304.16 68.7418Z" fill="#69B398"/>
<path d="M319.661 74.0216C319.872 74.3707 321.879 73.5525 324.965 72.0108C328.052 70.4762 332.206 68.209 336.886 66.0055C341.57 63.8091 345.928 62.0837 349.133 61.3056C352.346 60.4965 354.46 60.571 354.526 60.1438C354.61 59.782 352.426 58.9347 348.799 59.2674C345.177 59.582 340.486 61.0928 335.645 63.3619C330.797 65.6436 326.738 68.2399 323.903 70.2381C321.07 72.2453 319.454 73.6798 319.661 74.0216Z" fill="#69B398"/>
<path d="M319.193 33.0063C320.371 34.7881 322.771 35.2772 324.553 34.0972C326.335 32.9191 326.824 30.5191 325.644 28.7373C324.466 26.9556 322.066 26.4683 320.284 27.6465C318.502 28.8246 318.015 31.2246 319.193 33.0063Z" fill="#F5DA7F"/>
<path d="M301.327 71.4746C302.505 73.2563 304.905 73.7454 306.687 72.5655C308.469 71.3873 308.958 68.9874 307.778 67.2056C306.6 65.4238 304.2 64.9347 302.418 66.1147C300.636 67.2929 300.149 69.6928 301.327 71.4746Z" fill="#F5DA7F"/>
<path d="M316.435 76.1562C317.613 77.938 320.013 78.4271 321.795 77.2471C323.577 76.069 324.064 73.669 322.886 71.8873C321.708 70.1055 319.308 69.6164 317.526 70.7964C315.744 71.9745 315.255 74.3745 316.435 76.1562Z" fill="#F5DA7F"/>
<path d="M157.562 95.0469C157.562 95.0469 179.82 104.239 209.194 76.8165C209.194 76.8165 174.654 56.8006 141.188 90.5852L157.562 95.0469Z" fill="#82CEAF"/>
<path d="M131.083 72.0874C131.083 72.0874 130.495 55.3624 104.698 44.6681C104.698 44.6681 101.971 72.2765 132.972 83.7308L131.083 72.0874Z" fill="#69B398"/>
<path d="M118.356 91.556C118.356 91.556 98.996 84.7544 75.2603 109.432C75.2603 109.432 105.565 124.881 132.492 94.6014L118.356 91.556Z" fill="#69B398"/>
<path d="M125.155 106.567C125.155 106.567 102.101 113.519 96.6831 153.336C96.6831 153.336 136.097 147.004 140.662 99.6685L125.155 106.567Z" fill="#82CEAF"/>
<path d="M141.458 88.627C141.458 88.627 154.742 56.3787 166.938 70.8783C178.403 84.5089 142.448 93.5669 142.448 93.5669L141.458 88.627Z" fill="#FCA2C8"/>
<path d="M140.562 94.0214C140.562 94.0214 114.977 64.5876 133.292 59.7223C150.506 55.1497 143.397 91.5397 143.397 91.5397L140.562 94.0214Z" fill="#FCA2C8"/>
<path d="M140.562 94.0214C140.562 94.0214 127.279 126.27 115.083 111.77C103.617 98.1395 139.573 89.0815 139.573 89.0815L140.562 94.0214Z" fill="#FCA2C8"/>
<path d="M143.515 92.3142C143.515 92.3142 167.041 118.061 148.729 122.924C131.515 127.497 138.624 91.107 138.624 91.107L143.515 92.3142Z" fill="#FCA2C8"/>
<path d="M138.368 92.8598C138.368 92.8598 103.89 98.1287 110.014 80.1983C115.77 63.3423 142.088 89.4635 142.088 89.4635L138.368 92.8598Z" fill="#FCA2C8"/>
<path d="M143.49 94.885C143.49 94.885 165.036 122.312 172.832 105.041C180.161 88.8088 143.099 89.8615 143.099 89.8615L143.49 94.885Z" fill="#FCA2C8"/>
<path d="M147.442 93.5451C146.126 96.8741 142.36 98.505 139.031 97.1887C135.702 95.8723 134.071 92.107 135.388 88.778C136.704 85.449 140.469 83.8181 143.798 85.1344C147.127 86.4507 148.758 90.2161 147.442 93.5451Z" fill="#CC608C"/>
<path d="M106.662 111.757C106.662 111.757 106.911 94.0705 115.369 98.634C123.318 102.925 108.051 113.903 108.051 113.903L106.662 111.757Z" fill="#F5DA7F"/>
<path d="M107.245 114.468C107.245 114.468 89.689 105.359 97.4179 99.6485C104.683 94.2813 108.118 112.77 108.118 112.77L107.245 114.468Z" fill="#F5DA7F"/>
<path d="M107.244 114.468C107.244 114.468 106.995 132.155 98.5374 127.591C90.5885 123.301 105.855 112.323 105.855 112.323L107.244 114.468Z" fill="#F5DA7F"/>
<path d="M108.32 113.113C108.32 113.113 124.218 120.868 116.489 126.579C109.224 131.946 105.789 113.457 105.789 113.457L108.32 113.113Z" fill="#F5DA7F"/>
<path d="M105.994 114.33C105.994 114.33 90.7162 123.246 90.2598 113.646C89.8307 104.623 107.114 112.034 107.114 112.034L105.994 114.33Z" fill="#F5DA7F"/>
<path d="M108.787 114.33C108.787 114.33 124.065 123.246 124.521 113.646C124.95 104.623 107.667 112.034 107.667 112.034L108.787 114.33Z" fill="#F5DA7F"/>
<path d="M110.402 112.961C110.402 114.775 108.931 116.248 107.114 116.248C105.298 116.248 103.827 114.775 103.827 112.961C103.827 111.146 105.298 109.674 107.114 109.674C108.931 109.674 110.402 111.146 110.402 112.961Z" fill="#612223"/>
<path d="M431.384 103.794C431.386 103.797 431.39 103.799 431.393 103.803C431.726 104.132 465.312 136.66 518.878 139.826C519.313 139.851 519.686 139.52 519.711 139.086C519.733 138.649 519.404 138.278 518.971 138.253C466.02 135.122 432.83 103.005 432.5 102.681C432.19 102.374 431.691 102.379 431.386 102.69C431.082 102.996 431.084 103.488 431.384 103.794Z" fill="#A8D4E5"/>
<path d="M496.576 135.517C496.576 135.517 490.31 150.943 507.006 163.463C507.006 163.463 512.251 148.24 496.576 135.517Z" fill="#A8D4E5"/>
<path d="M513.81 138.253C513.81 138.253 520.52 153.491 541.131 150.223C541.131 150.223 533.856 135.858 513.81 138.253Z" fill="#A8D4E5"/>
<path d="M495.815 136.691C495.815 136.691 497.735 120.151 518.393 117.197C518.393 117.197 515.677 133.067 495.815 136.691Z" fill="#A8D4E5"/>
<path d="M477.763 130.004C477.763 130.004 471.318 145.356 487.869 158.069C487.869 158.069 493.29 142.907 477.763 130.004Z" fill="#A8D4E5"/>
<path d="M476.988 131.169C476.988 131.169 479.099 114.653 499.791 111.939C499.791 111.939 496.891 127.777 476.988 131.169Z" fill="#A8D4E5"/>
<path d="M458.105 121.084C458.105 121.084 450.709 136.002 466.425 149.729C466.425 149.729 472.791 134.938 458.105 121.084Z" fill="#A8D4E5"/>
<path d="M457.26 122.199C457.26 122.199 460.405 105.848 481.226 104.439C481.226 104.439 477.337 120.064 457.26 122.199Z" fill="#A8D4E5"/>
<path d="M394.14 53.6697C394.14 53.6697 393.891 35.9828 385.433 40.5463C377.484 44.8371 392.751 55.8132 392.751 55.8132L394.14 53.6697Z" fill="#F5DA7F"/>
<path d="M393.556 56.3807C393.556 56.3807 411.112 47.27 403.383 41.561C396.118 36.1939 392.684 54.6825 392.684 54.6825L393.556 56.3807Z" fill="#F5DA7F"/>
<path d="M393.557 56.3806C393.557 56.3806 393.806 74.0675 402.264 69.5039C410.213 65.2131 394.946 54.2352 394.946 54.2352L393.557 56.3806Z" fill="#F5DA7F"/>
<path d="M392.482 55.0242C392.482 55.0242 376.585 62.7785 384.314 68.4875C391.579 73.8546 395.013 55.366 395.013 55.366L392.482 55.0242Z" fill="#F5DA7F"/>
<path d="M394.809 56.2423C394.809 56.2423 410.087 65.1584 410.544 55.5587C410.973 46.5353 393.689 53.946 393.689 53.946L394.809 56.2423Z" fill="#F5DA7F"/>
<path d="M392.014 56.2423C392.014 56.2423 376.737 65.1584 376.28 55.5587C375.851 46.5353 393.134 53.946 393.134 53.946L392.014 56.2423Z" fill="#F5DA7F"/>
<path d="M393.687 58.1606C395.502 58.1606 396.974 56.6888 396.974 54.8734C396.974 53.0579 395.502 51.5862 393.687 51.5862C391.871 51.5862 390.399 53.0579 390.399 54.8734C390.399 56.6888 391.871 58.1606 393.687 58.1606Z" fill="#612223"/>
<path d="M431.264 91.9503C431.264 91.9503 399.263 84.3051 365.433 102.116" stroke="#69B398" stroke-width="1.11652" stroke-miterlimit="10" stroke-linecap="round" stroke-linejoin="round"/>
<path d="M380.269 96.0632C380.269 96.0632 378.417 84.418 363.711 82.9453C363.711 82.9453 366.108 94.0941 380.269 96.0632Z" fill="#69B398"/>
<path d="M368.822 100.717C368.822 100.717 359.174 93.9394 347.877 103.47C347.877 103.47 357.548 109.512 368.822 100.717Z" fill="#69B398"/>
<path d="M380.3 95.0721C380.3 95.0721 385.194 105.799 373.757 115.157C373.757 115.157 369.589 104.545 380.3 95.0721Z" fill="#69B398"/>
<path d="M393.691 92.5141C393.691 92.5141 391.973 80.849 377.286 79.2054C377.286 79.2054 379.553 90.3797 393.691 92.5141Z" fill="#69B398"/>
<path d="M393.733 91.523C393.733 91.523 398.504 102.306 386.957 111.532C386.957 111.532 382.913 100.87 393.733 91.523Z" fill="#69B398"/>
<path d="M408.872 90.7195C408.872 90.7195 407.89 78.9689 393.336 76.4054C393.336 76.4054 394.896 87.6996 408.872 90.7195Z" fill="#69B398"/>
<path d="M408.976 89.7342C408.976 89.7342 413.06 100.798 400.956 109.277C400.956 109.277 397.589 98.3813 408.976 89.7342Z" fill="#69B398"/>
<path d="M473.154 162.576C473.154 162.576 473.73 172.998 459.909 176.03C459.909 176.03 461.336 166.567 473.154 162.576Z" fill="#A8D4E5"/>
<path d="M452.829 147.16C452.829 147.16 447.242 155.976 434.231 150.411C434.231 150.411 440.891 143.54 452.829 147.16Z" fill="#A8D4E5"/>
<path d="M561.47 311.007C561.47 311.007 560.285 321.378 546.151 322.041C546.151 322.041 549.149 312.954 561.47 311.007Z" fill="#A8D4E5"/>
<path d="M524.938 311.705C524.938 311.705 534.969 308.818 541.009 321.612C541.009 321.612 531.467 322.334 524.938 311.705Z" fill="#A8D4E5"/>
<path d="M547.899 348.811C547.899 348.811 542.363 357.66 529.322 352.171C529.322 352.171 535.94 345.261 547.899 348.811Z" fill="#A8D4E5"/>
<path d="M517.293 336.792C517.293 336.792 527.589 338.506 527.529 352.655C527.529 352.655 518.607 349.197 517.293 336.792Z" fill="#A8D4E5"/>
<path d="M557.251 433.924C557.251 433.924 551.331 442.52 538.544 436.464C538.544 436.464 545.461 429.851 557.251 433.924Z" fill="#A8D4E5"/>
<path d="M528.996 417.45C528.996 417.45 539.206 419.615 538.525 433.747C538.525 433.747 529.763 429.9 528.996 417.45Z" fill="#A8D4E5"/>
<path d="M532.665 452.456C532.665 452.456 523.725 457.843 514.576 447.049C514.576 447.049 523.607 443.88 532.665 452.456Z" fill="#A8D4E5"/>
<path d="M513.727 425.79C513.727 425.79 522.134 431.975 515.68 444.567C515.68 444.567 509.287 437.447 513.727 425.79Z" fill="#A8D4E5"/>
<path d="M502.655 372.287C502.986 372.794 505.164 372.093 508.796 370.291C512.418 368.469 517.534 365.591 523.458 361.229C526.41 359.038 529.556 356.46 532.683 353.32C535.823 350.22 538.876 346.362 541.455 342.041C544.03 337.688 546.224 332.745 547.57 327.274C548.881 321.814 549.359 315.794 548.303 309.749C547.281 303.658 544.863 298.227 542.026 293.522C539.183 288.809 535.99 284.691 532.81 281.053C526.439 273.762 520.425 267.879 515.845 262.61C511.258 257.372 508.025 252.834 506.085 249.476C504.969 247.854 504.38 246.469 503.735 245.594C503.131 244.705 502.667 244.261 502.373 244.343C502.078 244.425 501.967 245.029 502.035 246.134C502.144 247.221 502.242 248.898 502.929 250.856C504.009 254.908 506.705 260.419 510.909 266.459C515.085 272.506 520.789 279.011 526.519 286.246C529.394 289.86 532.152 293.731 534.528 297.88C536.901 302.011 538.797 306.534 539.575 311.229C541.221 320.73 538.463 330.326 534.357 338.028C530.287 345.804 524.55 351.637 519.467 356.411C514.352 361.149 509.865 364.766 506.876 367.435C503.865 370.089 502.316 371.771 502.655 372.287Z" fill="#69B398"/>
<path d="M449.329 132.004C448.701 131.953 447.876 133.293 447.529 135.993C447.183 138.666 447.474 142.722 449.27 147.28C451.016 151.813 454.383 156.843 459.143 161.078C463.877 165.361 469.848 168.879 476.172 171.745C482.49 174.627 488.857 176.81 494.875 178.067C500.887 179.345 506.531 179.652 511.214 179.239C515.905 178.852 519.598 177.743 521.974 176.639C522.59 176.354 523.045 176.114 523.576 175.83C524.769 175.205 524.787 174.467 524.88 173.959C524.898 173.69 524.878 173.438 524.783 173.148C524.739 173.023 524.658 172.832 524.509 172.69C524.34 172.516 524.129 172.474 523.961 172.485C523.7 172.55 523.638 172.685 523.621 172.778C523.598 172.876 523.616 172.958 523.654 173.03C523.692 173.103 523.75 173.168 523.803 173.236L523.876 173.336C523.874 173.394 523.841 173.223 523.865 173.174C523.903 173.052 523.874 173.232 523.507 173.241L523.265 173.236C523.243 173.239 523.229 173.23 523.205 173.238L523.07 173.278C522.976 173.307 522.869 173.343 522.778 173.33C522.574 173.178 522.963 173.561 522.96 173.701L522.963 173.719V173.725C522.638 172.439 522.87 173.368 522.796 173.081L522.785 173.079L522.74 173.076L522.647 173.067L522.456 173.05C522.327 173.041 522.194 173.032 522.058 173.023C521.783 173.012 521.494 173.001 521.192 172.988C518.771 172.927 515.376 172.932 511.256 172.454C503.015 171.649 491.937 168.487 480.153 163.014C474.259 160.343 469.003 157.491 464.803 154.287C460.574 151.104 457.494 147.602 455.339 144.249C451.014 137.558 450.754 132.097 449.329 132.004Z" fill="#69B398"/>
<path d="M502.671 459.565C503.207 459.24 503.271 458.309 503.724 457.26C504.146 456.238 505.006 454.827 506.431 453.894C507.909 452.867 510.213 452.129 513.565 451.178C516.9 450.184 520.516 448.98 524.28 447.589C528.06 446.196 531.903 444.56 535.154 442.289C538.416 440.071 540.979 437.128 542.332 434.357C543.741 431.57 544.074 428.948 543.832 427.224C543.594 425.479 542.932 424.639 542.345 424.65C541.074 424.702 540.268 427.742 537.147 430.846C535.583 432.44 533.579 433.964 530.889 435.333C528.221 436.722 524.931 437.917 521.202 439.286C517.453 440.673 513.913 442.113 510.736 443.526C507.589 444.886 503.982 446.711 501.864 449.611C499.678 452.567 499.593 455.691 500.289 457.549C501.029 459.452 502.209 459.88 502.671 459.565Z" fill="#69B398"/>
<path d="M540.806 265.901C540.806 265.901 545.313 255.337 564.471 254.861C564.471 254.861 559.398 273.211 536.723 272.888L540.806 265.901Z" fill="#69B398"/>
<path d="M544.146 281.509C544.146 281.509 558.22 281.937 567.324 303.598C567.324 303.598 544.106 306.005 534.343 279.968L544.146 281.509Z" fill="#69B398"/>
<path d="M530.077 273.928C530.077 273.928 529.537 249.999 518.147 256.272C507.44 262.168 528.225 276.846 528.225 276.846L530.077 273.928Z" fill="#FCA2C8"/>
<path d="M529.321 277.604C529.321 277.604 552.971 265.077 542.448 257.441C532.555 250.263 528.119 275.317 528.119 275.317L529.321 277.604Z" fill="#FCA2C8"/>
<path d="M529.322 277.604C529.322 277.604 529.862 301.532 541.252 295.26C551.959 289.364 531.174 274.686 531.174 274.686L529.322 277.604Z" fill="#FCA2C8"/>
<path d="M527.85 275.78C527.85 275.78 506.429 286.455 516.952 294.091C526.845 301.269 531.281 276.215 531.281 276.215L527.85 275.78Z" fill="#FCA2C8"/>
<path d="M531.013 277.402C531.013 277.402 551.785 289.291 552.292 276.299C552.769 264.086 529.469 274.31 529.469 274.31L531.013 277.402Z" fill="#FCA2C8"/>
<path d="M527.232 277.433C527.232 277.433 506.664 289.671 505.937 276.689C505.253 264.486 528.723 274.313 528.723 274.313L527.232 277.433Z" fill="#FCA2C8"/>
<path d="M525.032 275.599C525.052 278.055 527.061 280.029 529.518 280.008C531.974 279.986 533.949 277.978 533.927 275.522C533.907 273.066 531.898 271.091 529.441 271.113C526.987 271.135 525.012 273.142 525.032 275.599Z" fill="#CC608C"/>
<path d="M517.93 186.724C517.93 186.724 523.737 197.555 511.318 213.873C511.318 213.873 499.385 197.362 514.825 178.639L517.93 186.724Z" fill="#69B398"/>
<path d="M502.66 179.072C502.66 179.072 492.887 190.541 468.708 183.652C468.708 183.652 482.23 162.652 510.505 171.916L502.66 179.072Z" fill="#69B398"/>
<path d="M518.403 172.394C518.403 172.394 538.748 187.95 541.13 174.241C543.368 161.356 517.207 168.894 517.207 168.894L518.403 172.394Z" fill="#F5DA7F"/>
<path d="M515.841 169.303C515.841 169.303 510.481 197.435 523.899 193.755C536.512 190.297 518.556 169.83 518.556 169.83L515.841 169.303Z" fill="#F5DA7F"/>
<path d="M515.842 169.303C515.842 169.303 495.497 153.747 493.115 167.456C490.877 180.341 517.038 172.803 517.038 172.803L515.842 169.303Z" fill="#F5DA7F"/>
<path d="M518.345 169.294C518.345 169.294 523.762 144.264 510.344 147.944C497.731 151.404 515.687 171.868 515.687 171.868L518.345 169.294Z" fill="#F5DA7F"/>
<path d="M514.878 170.85C514.878 170.85 491.053 180.245 501.564 189.361C511.444 197.93 518.492 171.632 518.492 171.632L514.878 170.85Z" fill="#F5DA7F"/>
<path d="M517.379 167.672C517.379 167.672 520.917 142.307 532.246 150.385C542.895 157.978 518.987 171.005 518.987 171.005L517.379 167.672Z" fill="#F5DA7F"/>
<path d="M520.383 167.061C518.318 165.436 515.325 165.792 513.7 167.857C512.074 169.923 512.431 172.916 514.496 174.541C516.561 176.166 519.554 175.81 521.18 173.745C522.805 171.679 522.449 168.688 520.383 167.061Z" fill="#612223"/>
<path d="M491.91 160.751C492.099 160.716 492.039 159.189 491.581 156.471C491.112 153.762 490.243 149.835 488.343 145.217C487.392 142.913 486.132 140.458 484.481 137.997C482.83 135.533 480.725 133.122 478.274 130.886C473.369 126.379 467.092 122.688 460.554 119.124C454.015 115.561 447.862 112.159 443.017 108.136C440.586 106.141 438.486 104.023 436.791 101.841C435.11 99.6431 433.802 97.3959 432.85 95.2414C430.935 90.9197 430.49 87.0307 430.586 84.3871C430.67 81.7272 431.062 80.2527 430.826 80.1836C430.682 80.1291 429.902 81.5018 429.453 84.2871C428.993 87.0471 429.133 91.2833 430.937 96.025C431.831 98.3886 433.124 100.859 434.846 103.287C436.586 105.707 438.771 108.037 441.28 110.194C446.3 114.555 452.622 118.126 459.149 121.684C465.672 125.237 471.758 128.742 476.483 132.893C481.257 136.982 484.412 141.74 486.459 146.062C488.519 150.382 489.677 154.142 490.475 156.733C491.263 159.334 491.703 160.791 491.91 160.751Z" fill="#69B398"/>
<path d="M519.297 129.764C519.077 129.337 515.969 131 510.617 132.057C507.946 132.588 504.708 132.844 501.095 132.717C497.492 132.573 493.455 132.133 489.357 131.382C481.139 129.871 474.376 126.181 469.238 123.861C464.127 121.495 460.811 120.341 460.644 120.699C460.469 121.073 463.44 122.872 468.287 125.695C470.72 127.093 473.623 128.777 477.05 130.39C480.459 132.026 484.487 133.404 488.799 134.251C493.126 135.042 497.241 135.406 501.055 135.408C504.864 135.391 508.322 134.895 511.099 134.064C516.689 132.393 519.477 130.028 519.297 129.764Z" fill="#69B398"/>
<path d="M505.546 120.872C505.426 120.482 503.279 120.786 499.913 121.532C496.544 122.268 491.964 123.457 486.888 124.453C481.812 125.444 477.163 126.057 473.865 126.031C470.552 126.033 468.518 125.448 468.352 125.846C468.181 126.177 470.094 127.53 473.694 128.09C477.283 128.666 482.201 128.342 487.448 127.32C492.704 126.286 497.275 124.757 500.51 123.508C503.746 122.251 505.664 121.252 505.546 120.872Z" fill="#69B398"/>
<path d="M496.017 160.767C495.308 158.752 493.099 157.694 491.084 158.403C489.07 159.112 488.012 161.321 488.721 163.336C489.43 165.35 491.639 166.409 493.653 165.7C495.668 164.99 496.726 162.781 496.017 160.767Z" fill="#F5DA7F"/>
<path d="M522.709 127.804C522 125.79 519.791 124.731 517.776 125.44C515.762 126.15 514.704 128.359 515.413 130.373C516.122 132.388 518.331 133.446 520.347 132.737C522.36 132.028 523.418 129.819 522.709 127.804Z" fill="#F5DA7F"/>
<path d="M509.195 119.586C508.486 117.572 506.277 116.513 504.261 117.224C502.246 117.933 501.188 120.142 501.899 122.157C502.608 124.171 504.817 125.23 506.832 124.52C508.846 123.81 509.904 121.601 509.195 119.586Z" fill="#F5DA7F"/>
<path d="M411.768 95.0469C411.768 95.0469 389.511 104.239 360.137 76.8165C360.137 76.8165 394.676 56.8006 428.142 90.5852L411.768 95.0469Z" fill="#82CEAF"/>
<path d="M438.248 72.0874C438.248 72.0874 438.835 55.3624 464.633 44.6681C464.633 44.6681 467.36 72.2765 436.359 83.7308L438.248 72.0874Z" fill="#69B398"/>
<path d="M450.975 91.556C450.975 91.556 470.334 84.7544 494.07 109.432C494.07 109.432 463.765 124.881 436.839 94.6014L450.975 91.556Z" fill="#69B398"/>
<path d="M444.175 106.567C444.175 106.567 467.229 113.519 472.647 153.336C472.647 153.336 433.233 147.004 428.668 99.6685L444.175 106.567Z" fill="#82CEAF"/>
<path d="M427.871 88.627C427.871 88.627 414.588 56.3787 402.392 70.8783C390.927 84.5089 426.882 93.5669 426.882 93.5669L427.871 88.627Z" fill="#FCA2C8"/>
<path d="M428.77 94.0214C428.77 94.0214 454.355 64.5876 436.043 59.7223C418.829 55.1497 425.937 91.5397 425.937 91.5397L428.77 94.0214Z" fill="#FCA2C8"/>
<path d="M428.77 94.0214C428.77 94.0214 442.053 126.27 454.249 111.77C465.715 98.1395 429.759 89.0815 429.759 89.0815L428.77 94.0214Z" fill="#FCA2C8"/>
<path d="M425.816 92.3142C425.816 92.3142 402.289 118.061 420.601 122.924C437.815 127.497 430.706 91.107 430.706 91.107L425.816 92.3142Z" fill="#FCA2C8"/>
<path d="M430.964 92.8598C430.964 92.8598 465.441 98.1287 459.318 80.1983C453.562 63.3423 427.244 89.4635 427.244 89.4635L430.964 92.8598Z" fill="#FCA2C8"/>
<path d="M425.841 94.885C425.841 94.885 404.294 122.312 396.498 105.041C389.169 88.8088 426.232 89.8615 426.232 89.8615L425.841 94.885Z" fill="#FCA2C8"/>
<path d="M421.888 93.5451C423.204 96.8741 426.97 98.505 430.299 97.1887C433.628 95.8723 435.259 92.107 433.942 88.778C432.626 85.449 428.861 83.8181 425.532 85.1344C422.203 86.4507 420.572 90.2161 421.888 93.5451Z" fill="#CC608C"/>
<path d="M462.669 111.757C462.669 111.757 462.42 94.0705 453.962 98.634C446.013 102.925 461.28 113.903 461.28 113.903L462.669 111.757Z" fill="#F5DA7F"/>
<path d="M462.086 114.468C462.086 114.468 479.642 105.359 471.913 99.6485C464.648 94.2813 461.213 112.77 461.213 112.77L462.086 114.468Z" fill="#F5DA7F"/>
<path d="M462.085 114.468C462.085 114.468 462.334 132.155 470.792 127.591C478.741 123.301 463.474 112.323 463.474 112.323L462.085 114.468Z" fill="#F5DA7F"/>
<path d="M461.011 113.113C461.011 113.113 445.114 120.868 452.842 126.579C460.108 131.946 463.542 113.457 463.542 113.457L461.011 113.113Z" fill="#F5DA7F"/>
<path d="M463.338 114.33C463.338 114.33 478.616 123.246 479.072 113.646C479.501 104.623 462.218 112.034 462.218 112.034L463.338 114.33Z" fill="#F5DA7F"/>
<path d="M460.544 114.33C460.544 114.33 445.266 123.246 444.81 113.646C444.381 104.623 461.664 112.034 461.664 112.034L460.544 114.33Z" fill="#F5DA7F"/>
<path d="M458.929 112.961C458.929 114.775 460.4 116.248 462.216 116.248C464.033 116.248 465.504 114.775 465.504 112.961C465.504 111.146 464.033 109.674 462.216 109.674C460.4 109.674 458.929 111.146 458.929 112.961Z" fill="#612223"/>
<path d="M272.299 71.4583C272.299 71.4583 260.258 90.5542 222.924 85.5016C222.924 85.5016 238.493 51.4679 282.405 59.1695L272.299 71.4583Z" fill="#82CEAF"/>
<path d="M280.107 39.5428C280.107 39.5428 271.491 26.4322 285.425 4.26727C285.425 4.26727 302.478 23.9068 284.974 49.4716L280.107 39.5428Z" fill="#69B398"/>
<path d="M288.462 76.8781C288.462 76.8781 297.078 89.9886 283.144 112.154C283.144 112.154 266.092 92.514 283.597 66.9492L288.462 76.8781Z" fill="#69B398"/>
<path d="M300.396 47.5371C300.396 47.5371 311.518 31.8412 343.05 37.8501C343.05 37.8501 328.245 66.093 291.233 57.5296L300.396 47.5371Z" fill="#69B398"/>
<path d="M270.868 47.5371C270.868 47.5371 259.746 31.8412 228.214 37.8501C228.214 37.8501 243.019 66.093 280.031 57.5296L270.868 47.5371Z" fill="#69B398"/>
<path d="M301.489 62.704C301.489 62.704 322.892 55.526 348.621 83.0453C348.621 83.0453 315.04 99.5667 285.89 65.8348L301.489 62.704Z" fill="#82CEAF"/>
<path d="M281.137 57.8188C281.137 57.8188 253.496 40.352 252.027 58.0552C250.647 74.6966 283.059 62.1333 283.059 62.1333L281.137 57.8188Z" fill="#FCA2C8"/>
<path d="M284.748 61.4588C284.748 61.4588 288.362 25.076 271.717 31.2813C256.072 37.1157 281.235 61.097 281.235 61.097L284.748 61.4588Z" fill="#FCA2C8"/>
<path d="M284.748 61.4588C284.748 61.4588 312.389 78.9256 313.858 61.2224C315.238 44.581 282.828 57.1444 282.828 57.1444L284.748 61.4588Z" fill="#FCA2C8"/>
<path d="M281.562 61.7551C281.562 61.7551 277.522 94.2015 294.167 87.9962C309.812 82.1618 284.649 58.1806 284.649 58.1806L281.562 61.7551Z" fill="#FCA2C8"/>
<path d="M285.797 59.3807C285.797 59.3807 315.025 44.7229 300.62 34.3268C287.081 24.5543 281.11 58.7989 281.11 58.7989L285.797 59.3807Z" fill="#FCA2C8"/>
<path d="M282.977 63.7076C282.977 63.7076 281.362 96.3649 266.037 87.3833C251.632 78.9399 280.551 59.6549 280.551 59.6549L282.977 63.7076Z" fill="#FCA2C8"/>
<path d="M279.226 64.8239C282.037 66.6566 285.803 65.8621 287.635 63.0513C289.468 60.2404 288.675 56.4751 285.863 54.6424C283.052 52.8097 279.286 53.6042 277.454 56.4151C275.621 59.2277 276.416 62.9913 279.226 64.8239Z" fill="#CC608C"/>
</svg>
