<svg width="162" height="321" viewBox="0 0 162 321" fill="none" xmlns="http://www.w3.org/2000/svg">
<g clip-path="url(#clip0_529_281)">
<path d="M106.86 263.242C106.717 264.353 105.71 296.692 105.71 296.692H91.4872L88.9932 264.663L106.86 263.242Z" fill="#DC9070"/>
<path d="M91.4511 292.068C91.4511 292.068 101.438 299.157 106.273 293.021L107.537 295.994L113.216 317.178C113.584 318.55 112.941 320.061 111.618 320.579C110.601 320.977 109.479 320.753 108.712 320.023C104.604 316.115 89.5631 301.664 89.7091 299.704L89.7671 294.502C89.7801 293.424 90.4461 292.461 91.4511 292.068Z" fill="#EAC696"/>
<g opacity="0.6">
<path d="M111.128 320.722L89.702 297.895L89.707 299.032C89.6 300.263 90.138 300.75 90.722 301.539C92.455 303.876 97.254 309.106 108.631 320.025C109.293 320.66 110.234 320.923 111.128 320.722Z" fill="white"/>
</g>
<g opacity="0.6">
<path d="M92.8409 294.511C93.5149 294.973 93.7379 295.988 93.3049 296.68C92.8709 297.372 91.8409 297.608 91.1589 297.158C90.4779 296.708 90.1709 295.498 90.6799 294.859C91.1879 294.22 92.4129 294.009 92.9669 294.609" fill="white"/>
</g>
<path d="M104.952 309.031C105.104 309.104 105.703 307.698 107.295 306.936C108.864 306.127 110.346 306.498 110.38 306.333C110.403 306.267 110.063 306.06 109.435 305.974C108.812 305.884 107.906 305.976 107.033 306.408C106.162 306.844 105.541 307.511 105.237 308.061C104.925 308.613 104.885 309.009 104.952 309.031Z" fill="#263238"/>
<path d="M106.877 312.614C107.005 312.729 107.862 311.854 109.247 311.451C110.624 311.017 111.822 311.27 111.864 311.103C111.941 310.966 110.648 310.402 109.076 310.888C107.499 311.356 106.736 312.542 106.877 312.614Z" fill="#263238"/>
<path d="M101.378 304.443C101.504 304.569 102.815 303.217 104.915 302.401C107.002 301.552 108.884 301.636 108.889 301.457C108.932 301.314 106.938 300.949 104.698 301.853C102.448 302.734 101.248 304.369 101.378 304.443Z" fill="#263238"/>
<path d="M100.901 297.994C100.974 298.155 102.452 297.53 104.38 297.452C106.306 297.348 107.837 297.831 107.894 297.665C107.967 297.533 106.423 296.757 104.352 296.863C102.281 296.953 100.817 297.87 100.901 297.994Z" fill="#263238"/>
<path d="M105.478 297.394C105.512 297.389 105.505 297.023 105.327 296.39C105.149 295.763 104.788 294.858 104.046 293.928C103.67 293.491 103.255 292.917 102.455 292.708C102.056 292.601 101.524 292.771 101.277 293.179C101.03 293.576 101.013 294.027 101.083 294.447C101.424 296.115 103.164 297.464 105.09 297.352C107.018 297.206 108.528 295.806 109.006 294.222C109.1 293.817 109.127 293.337 108.838 292.931C108.553 292.518 107.984 292.441 107.619 292.575C106.858 292.839 106.448 293.382 106.051 293.804C105.28 294.703 104.862 295.576 104.636 296.188C104.41 296.804 104.369 297.166 104.402 297.174C104.507 297.226 104.826 295.755 106.36 294.082C106.753 293.69 107.2 293.203 107.753 293.045C108.022 292.966 108.279 293.031 108.418 293.234C108.559 293.428 108.566 293.769 108.479 294.089C108.067 295.39 106.685 296.666 105.053 296.765C103.43 296.876 101.903 295.687 101.616 294.348C101.552 294.024 101.576 293.682 101.714 293.457C101.848 293.235 102.099 293.135 102.36 293.188C102.912 293.299 103.359 293.788 103.727 294.196C105.199 295.922 105.366 297.442 105.478 297.394Z" fill="#263238"/>
<path d="M85.2398 241.593C84.9448 242.477 90.2768 281.15 90.2768 281.15H106.86L112.394 221.953L85.2398 241.593Z" fill="#263238"/>
<path d="M15.7138 96.877C16.0374 96.676 24.0823 96.415 24.0823 96.415L23.3726 105.68L9.13298 108.148L6.86768 99.939L15.7138 96.877Z" fill="#DC9070"/>
<path d="M13.5193 92.619C12.5492 91.912 11.4266 91.428 10.2608 91.143C8.0194 90.594 5.4429 90.691 3.7323 89.142C3.3263 88.774 2.7969 88.29 2.3215 88.562C2.0311 88.728 1.9471 89.105 1.9255 89.438C1.8153 91.153 2.6729 92.898 4.0975 93.858L9.723 102.932C12.6763 102.016 15.4694 100.588 17.9427 98.732C16.7931 96.467 15.5719 94.114 13.5193 92.619Z" fill="#DC9070"/>
<path d="M6.97163 69.3943C6.86683 68.6847 6.02853 68.3395 5.46993 68.7887C4.64553 69.4513 3.70853 70.5223 3.61683 72.0063C3.44963 74.7046 2.37793 95.04 7.41163 103.768C12.4453 112.496 16.69 118.653 16.69 118.653C16.69 118.653 20.5949 118.388 21.3292 116.089C21.3292 116.089 10.6816 102.508 9.05273 94.298C7.42393 86.087 7.28523 72.6751 7.22743 71.6172C7.19273 70.9893 7.08033 70.124 6.97163 69.3943Z" fill="#263238"/>
<path d="M4.35102 93.637C4.35102 93.637 2.05262 93.995 1.43782 94.745C0.823724 95.497 0.686523 97.613 0.686523 97.613L2.05192 99.456C2.05192 99.456 1.30062 100.275 1.84692 101.777C1.84692 101.777 0.959325 103.825 2.18822 104.986C3.41722 106.147 2.46102 105.396 2.46102 105.396C2.46102 105.396 1.57342 107.718 3.69002 108.468C5.80652 109.219 9.56122 109.492 10.5174 108.468C11.4728 107.444 10.5174 105.533 10.5174 105.533C10.5174 105.533 12.4976 104.781 12.3604 103.689C12.2233 102.598 11.4042 102.324 11.4042 102.324C11.4042 102.324 12.0183 99.935 10.2439 100.003C10.2439 100.003 11.6092 98.296 10.3124 98.022C9.01492 97.75 6.89912 97.681 6.89912 97.681L4.50982 94.813L4.35102 93.637Z" fill="#DC9070"/>
<path d="M9.74403 100.119C9.78033 100.211 8.02203 100.775 5.79063 100.579C3.55693 100.4 1.91803 99.55 1.96893 99.466C2.01283 99.351 3.66783 100.009 5.82373 100.179C7.97803 100.371 9.72023 99.997 9.74403 100.119Z" fill="#925B4C"/>
<path d="M11.4051 102.503C11.422 102.546 10.9266 102.803 10.059 103.038C9.19447 103.275 7.94707 103.452 6.57247 103.354C5.19787 103.253 3.98897 102.897 3.16757 102.538C2.34237 102.18 1.88927 101.855 1.91247 101.814C1.96247 101.694 3.92117 102.778 6.60097 102.954C9.27767 103.167 11.3727 102.377 11.4051 102.503Z" fill="#925B4C"/>
<path d="M10.3435 105.636C10.3774 105.729 8.5782 106.302 6.2814 106.202C3.9829 106.119 2.2354 105.405 2.2771 105.315C2.3117 105.197 4.0669 105.722 6.2975 105.801C8.5266 105.899 10.318 105.516 10.3435 105.636Z" fill="#925B4C"/>
<path d="M86.5379 18.5172C87.3979 9.87833 94.7469 3.34913 103.427 3.51163L104.289 3.52783C113.578 4.24523 118.16 12.535 117.186 21.8011L114.81 58.981L93.2389 72.3084L93.7899 50.255C93.7899 50.255 84.8759 48.6978 84.9319 39.7569C84.9599 35.439 85.7389 26.552 86.5379 18.5172Z" fill="#DC9070"/>
<path d="M93.7159 50.2405C93.7159 50.2405 99.4169 50.6904 105.492 47.0312C105.492 47.0312 102.617 53.4127 93.7129 52.4411L93.7159 50.2405Z" fill="#925B4C"/>
<path d="M89.8519 26.2978C89.8149 26.9712 90.3559 27.5575 91.0589 27.6084C91.7609 27.6593 92.3599 27.1561 92.3969 26.4819C92.4329 25.8085 91.8929 25.2214 91.1919 25.1705C90.4889 25.1197 89.8889 25.6243 89.8519 26.2978Z" fill="#263238"/>
<path d="M88.3778 22.9261C88.5328 23.0956 89.5128 22.3975 90.8868 22.4268C92.2588 22.436 93.2548 23.1618 93.4068 22.9962C93.4808 22.923 93.3258 22.6194 92.8928 22.2919C92.4668 21.9653 91.7348 21.6424 90.8788 21.6301C90.0228 21.6185 89.2978 21.9206 88.8778 22.2349C88.4498 22.5524 88.3008 22.8506 88.3778 22.9261Z" fill="#263238"/>
<path d="M102.371 26.5574C102.335 27.2308 102.875 27.8172 103.577 27.868C104.279 27.9189 104.879 27.4158 104.915 26.7416C104.951 26.0681 104.411 25.481 103.709 25.4302C103.007 25.3793 102.407 25.884 102.371 26.5574Z" fill="#263238"/>
<path d="M101.875 23.4346C102.031 23.6041 103.013 22.9068 104.385 22.9361C105.757 22.9453 106.752 23.6711 106.904 23.5055C106.979 23.4323 106.825 23.1287 106.39 22.8012C105.964 22.4745 105.233 22.1517 104.378 22.1394C103.522 22.1278 102.797 22.4298 102.377 22.7442C101.948 23.0601 101.799 23.3591 101.875 23.4346Z" fill="#263238"/>
<path d="M96.6999 33.529C96.7079 33.4511 95.8569 33.287 94.4759 33.0844C94.1269 33.042 93.7959 32.9657 93.7409 32.7253C93.6629 32.4703 93.8179 32.0951 93.9949 31.6898C94.3409 30.8476 94.7019 29.9638 95.0819 29.0385C96.5939 25.263 97.6949 22.1556 97.5419 22.0955C97.3899 22.0361 96.0399 25.048 94.5289 28.8243C94.1639 29.7558 93.8159 30.6434 93.4849 31.4925C93.3439 31.8886 93.1079 32.3362 93.2769 32.8656C93.3659 33.1291 93.6199 33.3248 93.8439 33.3895C94.0669 33.4619 94.2639 33.4696 94.4379 33.4835C95.8299 33.5844 96.6929 33.6068 96.6999 33.529Z" fill="#263238"/>
<path d="M100.725 34.5545C100.502 34.5375 100.471 36.0284 99.1748 37.0625C97.8818 38.1003 96.2948 37.9031 96.2798 38.1111C96.2568 38.2043 96.6278 38.407 97.2988 38.4378C97.9558 38.4725 98.9218 38.2791 99.7148 37.6465C100.505 37.0116 100.857 36.1525 100.918 35.5415C100.986 34.9197 100.826 34.5475 100.725 34.5545Z" fill="#263238"/>
<path d="M101.621 18.0448C101.75 18.4208 103.124 18.2698 104.732 18.494C106.345 18.6859 107.636 19.1821 107.856 18.8516C107.955 18.6928 107.734 18.3376 107.216 17.9663C106.702 17.5956 105.877 17.2366 104.911 17.111C103.946 16.9869 103.057 17.1241 102.466 17.3522C101.869 17.5787 101.566 17.8669 101.621 18.0448Z" fill="#263238"/>
<path d="M88.9571 18.9602C89.1931 19.2769 90.1451 18.9702 91.2831 18.9764C92.4211 18.9425 93.3801 19.2253 93.6081 18.9032C93.7091 18.7468 93.5631 18.4309 93.1481 18.1281C92.7391 17.826 92.0491 17.5725 91.2661 17.5818C90.4841 17.5918 89.8011 17.8622 89.3991 18.1743C88.9921 18.4871 88.8541 18.8061 88.9571 18.9602Z" fill="#263238"/>
<path d="M87.4741 14.4335C87.4741 14.4335 89.9371 8.8797 92.6601 7.6238C95.9571 6.1036 97.2971 9.7165 100.427 8.9043C103.558 8.0922 106.705 6.6329 109.843 9.0993C113.277 11.7991 111.61 13.6175 111.751 17.5872C112.323 33.683 115.175 38.2852 116.152 30.7266C116.259 29.8983 118.574 29.2819 118.981 25.7822C119.509 21.2447 119.786 15.7279 118.832 12.4826C118.028 9.7473 116.513 7.8395 113.771 5.7168C109.443 2.3651 103.416 2.1825 99.3151 2.5176C95.2131 2.8543 87.2321 7.4173 87.4741 14.4335Z" fill="#263238"/>
<path d="M115.587 30.474C115.67 29.0955 116.878 28.0284 118.251 28.1848C119.915 28.3743 121.752 29.356 121.578 32.7986C121.269 38.9064 115.2 37.3353 115.199 37.1596C115.198 37.0402 115.435 33.0282 115.587 30.474Z" fill="#DC9070"/>
<path d="M116.644 34.9289C116.672 34.9104 116.747 35.009 116.923 35.1007C117.094 35.1893 117.393 35.2602 117.717 35.157C118.374 34.9528 118.969 33.9565 119.055 32.857C119.099 32.3023 119.008 31.7668 118.834 31.3191C118.67 30.863 118.397 30.5363 118.075 30.4623C117.756 30.3714 117.516 30.554 117.433 30.722C117.343 30.8884 117.375 31.0124 117.342 31.0217C117.324 31.0363 117.216 30.9123 117.278 30.6626C117.309 30.5424 117.388 30.4022 117.537 30.292C117.69 30.1803 117.909 30.1302 118.134 30.1664C118.603 30.2227 119.005 30.6773 119.197 31.1696C119.415 31.665 119.529 32.2676 119.48 32.8909C119.378 34.1199 118.69 35.2394 117.794 35.4498C117.359 35.5399 117.007 35.392 116.829 35.2394C116.648 35.0776 116.623 34.9389 116.644 34.9289Z" fill="#925B4C"/>
<path d="M115.689 18.6311C114.885 19.1582 114.036 19.7014 113.078 19.7777C112.121 19.8547 111.037 19.2845 110.893 18.3345C110.829 17.9076 110.942 17.4161 110.668 17.0824C110.342 16.6841 109.724 16.795 109.211 16.8405C107.431 16.9954 105.635 15.7048 105.214 13.9681C104.749 14.6384 103.691 14.5891 103.014 14.1337C102.337 13.6791 101.908 12.9471 101.384 12.3223C100.858 11.6974 100.116 11.1341 99.3059 11.2335C98.8529 11.289 98.4249 11.5502 97.9709 11.5017C97.1699 11.4154 96.7959 10.4684 96.6889 9.66943C96.5829 8.87043 96.5049 7.93963 95.8339 7.49353C95.2109 7.08053 94.3909 7.29703 93.6499 7.39263C92.9099 7.48733 91.9589 7.29633 91.7829 6.57043C91.6909 6.18983 91.8609 5.79383 92.0779 5.46713C93.0569 3.98693 95.1449 3.35983 96.7779 4.05633C97.4129 2.04763 99.3309 0.512029 101.43 0.330129C103.529 0.148329 105.682 1.33183 106.654 3.20103C107.968 2.05303 109.853 1.59683 111.547 2.01603C113.24 2.43593 114.694 3.72043 115.32 5.34843C116.814 4.98553 118.497 5.59193 119.417 6.82393C120.336 8.05673 120.437 9.84283 119.662 11.1711C120.749 11.8191 121.669 12.9286 121.668 14.1938C121.667 15.459 120.411 16.6964 119.197 16.3404C119.672 17.3344 119.246 18.6635 118.281 19.1959C117.316 19.7283 115.965 19.3808 115.376 18.4493" fill="#263238"/>
<path d="M96.289 5.84626C96.284 5.84696 96.284 5.88476 96.288 5.95876C96.295 6.03196 96.298 6.14366 96.321 6.28546C96.372 6.56896 96.478 6.98886 96.743 7.47126C97.009 7.94666 97.427 8.49757 98.071 8.94137C98.702 9.38976 99.571 9.73726 100.561 9.70186L100.46 9.56466C100.26 10.084 100.3 10.712 100.551 11.2544C100.787 11.8053 101.166 12.2969 101.569 12.7769C101.775 13.0073 101.952 13.277 102.24 13.4912C102.519 13.6962 102.855 13.8187 103.201 13.8688C103.889 13.9697 104.671 13.7709 105.181 13.2007L104.954 13.1314C105.087 14.3488 105.755 15.5777 106.839 16.339C107.412 16.7697 108.126 17.0394 108.834 17.034C109.541 17.0401 110.202 16.8452 110.819 16.6372L110.657 16.5624C110.972 17.3283 111.464 17.9856 112.068 18.4756C112.661 18.9641 113.457 19.26 114.186 19.0951C115.634 18.8169 116.613 17.635 116.828 16.5093L116.688 16.5709C117.396 16.9739 118.164 17.0263 118.782 16.9184C119.41 16.8159 119.905 16.554 120.259 16.2928C120.615 16.0262 120.828 15.7503 120.956 15.5585C121.074 15.3589 121.123 15.2487 121.117 15.2449C121.087 15.2194 120.906 15.7056 120.199 16.2088C119.847 16.4484 119.363 16.6873 118.76 16.772C118.165 16.8622 117.439 16.7959 116.784 16.4099L116.671 16.3428L116.645 16.4715C116.432 17.5217 115.489 18.6235 114.147 18.8662C113.487 19.008 112.786 18.7445 112.225 18.2814C111.661 17.8199 111.191 17.1858 110.899 16.4661L110.853 16.3521L110.737 16.3906C110.13 16.594 109.491 16.7766 108.837 16.7682C108.183 16.7705 107.542 16.5301 106.996 16.1217C105.972 15.4013 105.345 14.2517 105.213 13.099L105.18 12.8093L104.986 13.0297C104.554 13.5182 103.855 13.7085 103.237 13.6191C102.926 13.576 102.627 13.4689 102.385 13.2916C102.147 13.1221 101.962 12.8548 101.752 12.6221C101.35 12.1505 100.981 11.6774 100.756 11.1643C100.518 10.6573 100.481 10.1048 100.652 9.63476L100.704 9.48996L100.55 9.49766C99.617 9.54306 98.779 9.22716 98.164 8.80646C97.535 8.39116 97.117 7.86806 96.842 7.41416C96.303 6.48036 96.333 5.83316 96.289 5.84626Z" fill="#455A64"/>
<path d="M80.739 58.1627C80.739 58.1627 75.131 59.488 72.701 61.7163C70.27 63.9446 50.7586 92.194 50.7586 92.194C50.7586 92.194 47.7205 91.586 47.7205 93.207H21.9941V107.792C21.9941 107.792 54.8107 111.438 58.6593 108.804C62.508 106.171 68.788 97.055 68.788 97.055L80.739 58.1627Z" fill="#EAC696"/>
<path d="M54.8919 96.415C54.8826 96.462 54.5189 96.449 53.9696 96.254C53.4217 96.063 52.7029 95.655 52.0772 95.014C51.4546 94.369 51.0694 93.638 50.8945 93.085C50.7165 92.53 50.7142 92.166 50.7612 92.158C50.8783 92.123 51.1734 93.53 52.3654 94.735C53.5327 95.961 54.9312 96.3 54.8919 96.415Z" fill="#263238"/>
<path d="M49.121 98.133C49.0632 98.218 48.0345 97.284 47.6593 95.679C47.2663 94.079 47.7595 92.78 47.8496 92.829C47.969 92.853 47.6809 94.103 48.05 95.586C48.3928 97.074 49.2165 98.058 49.121 98.133Z" fill="#263238"/>
<g opacity="0.3">
<path d="M50.7583 92.194C51.1498 92.703 51.7307 93.239 52.3995 93.605C53.0675 93.971 53.6485 94.267 54.4074 94.334C55.1656 94.401 55.9354 94.424 56.6704 94.624C57.1581 94.755 57.6798 95.026 57.8061 95.515C57.931 95.997 57.5919 96.508 57.1412 96.718C56.6912 96.929 56.1657 96.9 55.6772 96.804C53.4644 96.371 51.2723 94.39 50.7583 92.194Z" fill="black"/>
</g>
<path d="M36.4118 171.777C36.4118 171.777 22.7161 191.581 21.998 198.513C21.2799 205.446 21.6636 216.014 30.6615 217.387C39.6595 218.76 76.892 204.604 76.892 204.604L77.652 192.429L49.928 195.017L71.253 177.946L36.4118 171.777Z" fill="#263238"/>
<path d="M115.338 162.266C114.377 184.064 113.415 205.862 112.455 227.66C112.3 231.176 112.111 234.822 110.484 237.944C106.972 244.684 98.143 246.592 90.562 246.053C75.009 244.948 60.1473 236.416 51.352 223.541C48.7492 219.731 46.6604 215.584 43.949 211.851C41.2376 208.118 37.7549 204.729 33.3792 203.266C29.0829 201.829 23.422 201.777 21.5273 197.662C21.5273 197.662 24.2025 191.082 26.4401 187.194C28.6776 183.306 39.8715 164.3 39.8715 164.3L115.338 162.266Z" fill="#EAC696"/>
<path d="M30.8906 180.143C34.2939 188.51 42.4258 194.201 51.0231 196.968C59.6204 199.737 68.7862 200.016 77.8062 200.489C81.9692 200.707 86.3972 201.066 89.7242 203.579C92.7502 205.864 95.1452 209.967 98.9242 209.659C102.358 209.379 104.203 205.589 105.371 202.348C105.27 204.731 105.2 207.254 106.361 209.338C107.522 211.421 110.396 212.741 112.377 211.413C113.157 203.995 113.937 196.578 114.717 189.161L111.618 180.143L82.3322 185.677L30.8906 180.143Z" fill="#EAC696"/>
<path d="M91.881 54.5814L93.724 52.9025L95.297 69.2533L106.925 55.3288C111.599 52.9117 115.312 51.1241 115.312 51.1241L115.577 55.8943L119.492 57.3498L118.342 74.851L120.306 152.532C120.306 152.532 117.375 180.889 117.698 186.69C118.02 192.492 119.304 205.062 119.304 205.062L109.303 207.801C109.303 207.801 109.318 188.624 110.446 182.823L98.521 202.967C98.521 202.967 96.748 195.554 87.885 196.682C79.022 197.81 64.679 198.455 56.2987 196.521C47.9187 194.587 30.3535 180.084 30.3535 180.084L60.9726 129.321L80.741 69.2541L84.792 56.2518L91.881 54.5814Z" fill="#EAC696"/>
<path d="M102.055 231.008C102.069 231.007 102.093 231.18 102.127 231.515C102.15 231.683 102.163 231.891 102.14 232.137C102.132 232.384 102.121 232.67 102.048 232.983C101.848 234.242 100.995 236.035 99.192 237.489C98.298 238.212 97.185 238.847 95.892 239.26C94.6 239.696 93.122 239.784 91.614 239.657C88.567 239.385 85.444 238.03 82.437 236.323C76.399 232.895 71.339 229.133 67.89 226.179C66.164 224.702 64.82 223.446 63.92 222.551C63.463 222.11 63.128 221.748 62.8956 221.508C62.666 221.265 62.5497 221.133 62.5597 221.124C62.5697 221.114 62.7045 221.227 62.9526 221.45C63.229 221.704 63.586 222.031 64.028 222.437C64.96 223.296 66.329 224.517 68.073 225.962C71.557 228.85 76.624 232.561 82.635 235.973C85.624 237.669 88.687 239.005 91.65 239.289C93.122 239.421 94.547 239.349 95.795 238.942C97.049 238.557 98.138 237.955 99.016 237.267C100.789 235.883 101.654 234.17 101.896 232.952C102.152 231.721 101.995 231.009 102.055 231.008Z" fill="#263238"/>
<g opacity="0.3">
<path d="M91.3519 56.6401C87.6389 70.9122 83.9259 85.487 80.2139 99.759L81.6339 99.939C88.6229 86.587 91.7919 71.7058 91.3519 56.6401Z" fill="black"/>
</g>
<path d="M91.8808 54.5814C91.8808 54.5814 82.7648 56.1371 80.7388 58.1627C78.7128 60.1884 68.5848 89.156 68.5848 89.156L50.1514 139.596L67.7748 143.039C67.7748 143.039 83.5758 91.5 86.0068 83.9469C88.4378 76.3936 88.8558 73.7346 88.8558 73.7346L91.8808 54.5814Z" fill="#EF4040"/>
<path d="M118.983 57.161C118.983 57.161 134.015 63.6317 133.812 64.2396C133.609 64.8476 130.166 93.475 127.33 98.81C124.494 104.146 120.24 119.136 120.24 119.136L121.253 152.358C121.253 152.358 97.147 157.017 91.88 153.168L84.79 147.294C84.79 147.294 91.88 108.744 95.631 95.481C98.425 85.6 101.25 75.9382 106.922 69.2533C112.595 62.5684 118.983 57.161 118.983 57.161Z" fill="#EF4040"/>
<path d="M130.977 65.4556C130.977 65.4556 121.861 67.4812 120.24 76.5971C118.62 85.713 119.025 96.044 122.063 97.867C125.102 99.69 128.239 96.417 128.239 96.417L142.32 108.198C142.32 108.198 140.902 110.426 142.32 111.438L132.521 138.677L147.718 147.207C147.718 147.207 161.969 112.856 161.969 108.197C161.969 103.538 158.323 98.474 154.676 94.017C151.03 89.561 135.997 65.6513 134.824 65.4548C133.652 65.2583 130.977 65.4556 130.977 65.4556Z" fill="#EAC696"/>
<path d="M153.264 106.136C153.256 106.197 152.625 106.148 151.607 106.176C150.589 106.197 149.182 106.298 147.648 106.537C146.116 106.784 144.748 107.125 143.811 107.503C142.864 107.863 142.363 108.25 142.32 108.199C142.287 108.169 142.747 107.684 143.698 107.242C144.637 106.785 146.027 106.392 147.585 106.14C150.712 105.62 153.293 106.009 153.264 106.136Z" fill="#263238"/>
<path d="M151.677 108.293C151.662 108.359 151.08 108.24 150.138 108.222C149.198 108.201 147.892 108.335 146.542 108.816C145.195 109.305 144.102 110.035 143.392 110.65C142.677 111.264 142.305 111.727 142.251 111.686C142.216 111.663 142.511 111.132 143.199 110.441C143.882 109.752 145 108.947 146.405 108.438C147.813 107.935 149.187 107.842 150.152 107.938C151.124 108.032 151.689 108.253 151.677 108.293Z" fill="#263238"/>
<path d="M142.321 108.198C142.299 108.219 142.031 107.997 141.543 107.598C140.991 107.147 140.298 106.582 139.475 105.908C137.657 104.434 135.268 102.499 132.629 100.359C129.945 98.203 127.504 96.266 125.716 94.895C124.823 94.208 124.09 93.666 123.577 93.302C123.066 92.939 122.764 92.766 122.779 92.734C122.786 92.721 122.867 92.752 123.018 92.824C123.167 92.898 123.397 92.999 123.662 93.171C124.206 93.497 124.968 94.007 125.885 94.667C127.721 95.984 130.194 97.888 132.881 100.046C135.564 102.207 137.955 104.209 139.658 105.693C140.51 106.434 141.189 107.046 141.647 107.483C142.104 107.917 142.339 108.18 142.321 108.198Z" fill="#263238"/>
<path d="M131.813 69.2533C131.85 69.3203 130.741 69.8404 129.213 71.0524C127.69 72.2498 125.787 74.2361 124.479 76.9029C123.169 79.5703 122.761 82.2902 122.745 84.227C122.721 86.177 122.987 87.373 122.912 87.385C122.888 87.389 122.798 87.097 122.694 86.555C122.587 86.013 122.485 85.217 122.461 84.227C122.403 82.2579 122.775 79.4609 124.118 76.7249C125.461 73.9896 127.446 71.9847 129.04 70.8267C129.837 70.2403 130.53 69.8343 131.023 69.5869C131.517 69.3396 131.803 69.2317 131.813 69.2533Z" fill="#263238"/>
<g opacity="0.3">
<path d="M124.957 94.16C123.829 93.17 123.571 92.529 122.93 91.171C122.241 89.709 122.132 88.498 122.66 85.597L122.6 83.3027C120.49 86.528 120.537 91.595 123.03 94.534C124.21 95.926 126.138 96.982 127.835 96.31C127.169 95.925 125.652 94.77 124.957 94.16Z" fill="black"/>
</g>
<g opacity="0.3">
<path d="M147.708 105.137C145.626 105.502 143.795 106.684 142.321 108.198C145.606 106.124 150.143 105.612 153.98 106.214C152.078 105.291 149.79 104.773 147.708 105.137Z" fill="black"/>
</g>
<path d="M161.97 108.198C161.977 108.197 161.984 108.233 161.99 108.305C161.996 108.377 162.007 108.484 161.994 108.624C161.986 108.905 161.92 109.311 161.817 109.83C161.603 110.865 161.197 112.338 160.612 114.131C159.415 117.702 157.676 122.603 155.627 127.97C153.579 133.339 151.624 138.159 150.169 141.63C149.442 143.367 148.841 144.766 148.417 145.729C148.216 146.175 148.051 146.54 147.918 146.834C147.801 147.085 147.732 147.214 147.72 147.208C147.707 147.203 147.75 147.064 147.844 146.802C147.958 146.501 148.099 146.127 148.273 145.669C148.68 144.636 149.232 143.233 149.906 141.523C151.293 138.025 153.205 133.191 155.251 127.826C157.299 122.464 159.08 117.581 160.344 114.04C160.96 112.266 161.406 110.811 161.664 109.795C161.789 109.286 161.88 108.889 161.913 108.617C161.955 108.344 161.95 108.199 161.97 108.198Z" fill="#263238"/>
<path d="M42.6738 103.619C41.3809 104.048 26.7158 112.546 24.4929 133.563C22.4735 152.662 28.572 158.365 28.572 158.365C28.572 158.365 44.7996 174.711 66.499 176.81C88.464 178.934 104.216 180.565 109.303 177.971C114.39 175.376 124.405 144.478 123.822 131.014C123.239 117.55 115.15 111.722 115.15 111.722C115.15 111.722 83.517 90.052 42.6738 103.619Z" fill="#E48F45"/>
<path d="M123.356 147.398C126.19 129.259 123.229 113.733 116.741 112.719C110.254 111.705 102.696 125.588 99.862 143.727C97.027 161.866 99.988 177.392 106.476 178.406C112.964 179.42 120.521 165.537 123.356 147.398Z" fill="#E48F45"/>
<path d="M107.159 178.851C106.912 178.851 106.668 178.832 106.424 178.794C99.6238 177.731 96.5778 162.305 99.4908 143.674C102.403 125.043 110.023 111.295 116.811 112.345C123.612 113.408 126.658 128.835 123.745 147.465C122.367 156.28 119.841 164.382 116.632 170.276C113.601 175.845 110.266 178.851 107.159 178.851ZM116.056 113.057C109.933 113.057 102.955 126.493 100.251 143.793C97.4528 161.693 100.275 177.053 106.543 178.033C109.471 178.489 112.897 175.528 115.955 169.908C119.123 164.089 121.619 156.077 122.984 147.346C125.782 129.446 122.96 114.086 116.693 113.106C116.482 113.073 116.269 113.057 116.056 113.057Z" fill="#263238"/>
<path d="M108.388 144.043C106.978 153.071 108.451 160.798 111.68 161.303C114.909 161.808 118.67 154.899 120.082 145.871C121.492 136.843 120.019 129.115 116.79 128.611C113.561 128.106 109.799 135.015 108.388 144.043Z" fill="#F3EEEA"/>
<path d="M118.726 113.711C118.738 113.771 117.671 113.673 115.952 114.345C115.102 114.688 114.109 115.24 113.116 116.084C112.121 116.924 111.148 118.064 110.275 119.456C106.959 125.136 103.912 133.902 102.455 143.867C101.723 148.854 101.421 153.657 101.347 158.023C101.271 162.384 101.642 166.328 102.564 169.493C103.463 172.666 104.822 175.011 105.925 176.478C106.471 177.222 106.964 177.743 107.287 178.105C107.442 178.265 107.568 178.396 107.672 178.503C107.756 178.595 107.798 178.644 107.793 178.649C107.789 178.654 107.738 178.615 107.643 178.532C107.532 178.433 107.397 178.311 107.229 178.161C106.886 177.815 106.37 177.307 105.8 176.572C104.649 175.121 103.235 172.77 102.291 169.571C101.324 166.381 100.921 162.399 100.977 158.018C101.031 153.637 101.324 148.817 102.057 143.808C103.524 133.792 106.619 125.009 110.036 119.302C110.936 117.901 111.943 116.751 112.972 115.911C113.998 115.068 115.022 114.526 115.895 114.199C116.771 113.874 117.493 113.762 117.98 113.72C118.469 113.677 118.726 113.711 118.726 113.711Z" fill="#263238"/>
<path d="M41.2712 106.374C41.2812 106.383 41.1641 106.543 40.9299 106.838C40.6687 107.161 40.325 107.586 39.8951 108.117C39.6716 108.395 39.4112 108.695 39.1462 109.038C38.8896 109.392 38.6122 109.773 38.3155 110.181C38.0158 110.592 37.6961 111.028 37.3586 111.491C37.0334 111.964 36.7175 112.483 36.3693 113.017C34.9546 115.138 33.5292 117.83 32.1662 120.906C30.8031 123.988 29.6913 127.538 28.8661 131.332C28.4261 133.227 28.1988 135.113 27.9399 136.927C27.8059 138.755 27.6071 140.515 27.624 142.202C27.5138 145.572 27.8043 148.603 28.0763 151.136C28.4331 153.66 28.7621 155.701 29.0988 157.089C29.2382 157.758 29.3492 158.293 29.4339 158.7C29.5064 159.069 29.538 159.265 29.5241 159.268C29.511 159.272 29.4532 159.082 29.3554 158.719C29.2521 158.317 29.1165 157.786 28.9462 157.123C28.5625 155.742 28.1896 153.703 27.7951 151.172C27.4853 148.632 27.164 145.586 27.2542 142.195C27.228 140.497 27.4191 138.725 27.5493 136.884C27.8043 135.057 28.0309 133.157 28.4739 131.248C29.3053 127.427 30.4364 123.853 31.8271 120.758C33.2187 117.669 34.6788 114.974 36.1319 112.861C36.4895 112.33 36.8154 111.814 37.1498 111.344C37.498 110.886 37.827 110.452 38.136 110.046C38.4434 109.644 38.7301 109.268 38.9967 108.92C39.2717 108.582 39.5414 108.289 39.7757 108.017C40.2303 107.506 40.5939 107.096 40.8705 106.785C41.1225 106.506 41.2604 106.365 41.2712 106.374Z" fill="#263238"/>
<path d="M59.5801 141.404C59.577 141.417 59.4506 141.402 59.2133 141.36C58.9306 141.305 58.5892 141.238 58.1778 141.158C57.2801 140.976 55.9857 140.688 54.3923 140.309C51.2047 139.554 46.8229 138.41 42.0373 136.961C37.2509 135.51 32.97 134.031 29.8995 132.89C28.3639 132.32 27.1273 131.843 26.2789 131.495C25.8921 131.334 25.5716 131.2 25.305 131.089C25.0839 130.992 24.9706 130.935 24.9752 130.921C24.9799 130.908 25.1031 130.941 25.3335 131.013C25.6063 131.105 25.936 131.216 26.3329 131.349C27.2575 131.671 28.4941 132.101 29.9943 132.623C33.0863 133.694 37.3742 135.128 42.1528 136.577C46.9307 138.022 51.2933 139.208 54.4601 140.033C55.998 140.432 57.2647 140.76 58.2125 141.006C58.617 141.115 58.9529 141.206 59.2311 141.281C59.463 141.349 59.5832 141.391 59.5801 141.404Z" fill="#263238"/>
<path d="M62.662 122.437C62.6604 122.465 62.1897 122.46 61.3398 122.429C60.4892 122.398 59.2602 122.323 57.7454 122.195C54.7127 121.95 50.5389 121.465 45.9405 120.874C41.3398 120.283 37.1776 119.754 34.1572 119.437C32.6971 119.29 31.4913 119.168 30.579 119.076C29.733 118.997 29.266 118.94 29.2676 118.912C29.2691 118.885 29.7391 118.889 30.5898 118.921C31.4396 118.952 32.6686 119.027 34.1842 119.155C37.2169 119.4 41.3907 119.885 45.9914 120.476C50.5905 121.067 54.7528 121.596 57.7724 121.913C59.2325 122.06 60.4391 122.182 61.3506 122.273C62.1958 122.353 62.6635 122.41 62.662 122.437Z" fill="#263238"/>
<path d="M73.965 106.488C73.964 106.502 73.834 106.502 73.587 106.492C73.294 106.473 72.939 106.452 72.511 106.425C71.577 106.358 70.225 106.261 68.556 106.166C65.216 105.967 60.594 105.792 55.4933 105.928C52.9429 106.005 50.5174 106.16 48.3161 106.356C46.1186 106.586 44.1415 106.82 42.4957 107.113C41.6689 107.238 40.9277 107.386 40.2766 107.517C39.624 107.639 39.0631 107.755 38.6093 107.865C38.1901 107.956 37.8426 108.032 37.556 108.094C37.314 108.142 37.1846 108.161 37.1808 108.148C37.1769 108.135 37.2986 108.09 37.5344 108.017C37.8164 107.934 38.1585 107.835 38.5715 107.714C39.0215 107.58 39.5786 107.442 40.2296 107.298C40.8784 107.146 41.6189 106.979 42.4456 106.835C44.0914 106.503 46.0739 106.24 48.2783 105.989C50.4866 105.77 52.9214 105.604 55.481 105.527C60.5995 105.391 65.233 105.612 68.573 105.883C70.245 106.014 71.594 106.154 72.524 106.269C72.95 106.325 73.303 106.372 73.594 106.411C73.84 106.449 73.967 106.474 73.965 106.488Z" fill="#263238"/>
<path d="M102.753 140.807C102.748 140.82 102.603 140.783 102.332 140.7C102.019 140.599 101.629 140.473 101.15 140.318C100.125 139.983 98.6549 139.46 96.8499 138.782C93.2389 137.429 88.3138 135.387 82.9858 132.892C77.6568 130.394 72.9198 127.953 69.5158 126.148C67.8128 125.245 66.4418 124.501 65.5008 123.978C65.0638 123.73 64.7058 123.528 64.4208 123.366C64.1758 123.222 64.0508 123.141 64.0568 123.128C64.0638 123.116 64.2018 123.174 64.4588 123.295C64.7538 123.439 65.1218 123.619 65.5738 123.84C66.5848 124.351 67.9649 125.048 69.6469 125.898C73.0839 127.637 77.8348 130.034 83.1558 132.53C88.4768 135.021 93.3729 137.101 96.9529 138.519C98.7419 139.23 100.196 139.794 101.203 140.173C101.671 140.355 102.053 140.505 102.359 140.625C102.621 140.731 102.757 140.795 102.753 140.807Z" fill="#263238"/>
<path d="M106.393 122.888C106.393 122.902 106.246 122.905 105.97 122.897C105.648 122.883 105.248 122.867 104.76 122.847C103.653 122.791 102.148 122.715 100.314 122.623C96.56 122.441 91.372 122.248 85.639 122.199C79.904 122.152 74.713 122.258 70.956 122.377C69.121 122.439 67.616 122.489 66.508 122.526C66.019 122.538 65.618 122.548 65.297 122.557C65.02 122.559 64.874 122.554 64.873 122.54C64.873 122.526 65.017 122.504 65.292 122.476C65.613 122.448 66.012 122.413 66.499 122.37C67.548 122.285 69.066 122.189 70.945 122.094C74.702 121.902 79.9 121.751 85.642 121.797C91.383 121.847 96.576 122.085 100.33 122.34C102.207 122.467 103.724 122.588 104.771 122.692C105.257 122.742 105.655 122.784 105.976 122.817C106.25 122.85 106.394 122.874 106.393 122.888Z" fill="#263238"/>
<path d="M107.853 120.543C107.845 120.554 107.734 120.498 107.53 120.381C107.288 120.235 106.998 120.061 106.649 119.851C106.273 119.613 105.803 119.335 105.256 119.018C104.712 118.694 104.091 118.329 103.391 117.946C100.617 116.377 96.6811 114.394 92.2001 112.503C87.7151 110.619 83.5491 109.178 80.4971 108.259C78.9741 107.789 77.7301 107.443 76.8691 107.21C76.4781 107.1 76.1511 107.008 75.8801 106.932C75.6551 106.864 75.5381 106.822 75.5411 106.808C75.5441 106.795 75.6671 106.81 75.8991 106.852C76.1751 106.909 76.5081 106.976 76.9071 107.058C77.7811 107.245 79.0391 107.55 80.5771 107.986C83.6581 108.839 87.8551 110.242 92.3561 112.133C96.8521 114.031 100.785 116.063 103.532 117.7C104.225 118.099 104.838 118.484 105.373 118.827C105.91 119.164 106.37 119.462 106.734 119.721C107.067 119.956 107.344 120.151 107.576 120.314C107.764 120.452 107.861 120.531 107.853 120.543Z" fill="#263238"/>
<path d="M116.103 112.791C116.097 112.803 115.961 112.757 115.706 112.657C115.412 112.536 115.046 112.387 114.6 112.204C114.123 112 113.539 111.754 112.85 111.492C112.164 111.227 111.391 110.902 110.516 110.599C108.781 109.95 106.685 109.259 104.332 108.587C101.972 107.937 99.3529 107.311 96.5699 106.835C93.7829 106.374 91.1039 106.107 88.6609 105.976C87.4379 105.941 86.2759 105.882 85.1879 105.914C84.0999 105.907 83.0869 105.957 82.1629 106.012C81.2369 106.041 80.4059 106.144 79.6729 106.207C78.9389 106.263 78.3109 106.344 77.7979 106.419C77.3199 106.477 76.9279 106.526 76.6119 106.565C76.3399 106.594 76.1959 106.603 76.1939 106.589C76.1909 106.575 76.3309 106.54 76.5979 106.485C76.9119 106.426 77.2999 106.353 77.7739 106.264C78.2849 106.166 78.9129 106.062 79.6469 105.984C80.3809 105.899 81.2139 105.777 82.1429 105.729C83.0709 105.657 84.0879 105.59 85.1829 105.582C86.2769 105.536 87.4459 105.582 88.6769 105.607C91.1349 105.719 93.8329 105.976 96.6359 106.439C99.4359 106.919 102.067 107.559 104.432 108.232C106.791 108.927 108.887 109.649 110.615 110.334C111.487 110.656 112.256 110.999 112.936 111.286C113.618 111.569 114.195 111.836 114.663 112.062C115.096 112.272 115.452 112.445 115.739 112.584C115.984 112.707 116.11 112.778 116.103 112.791Z" fill="#263238"/>
<path d="M73.5252 103.713C74.7942 103.357 76.2722 104.157 76.6682 105.414C77.0642 106.671 76.3112 108.173 75.0682 108.609C73.8252 109.045 72.2992 108.342 71.8232 107.113C71.3472 105.885 72.0012 104.336 73.2132 103.821" fill="#776B5D"/>
<path d="M64.225 120.158C65.654 119.819 67.263 120.811 67.603 122.24C67.942 123.669 66.95 125.279 65.521 125.618C64.091 125.958 62.4817 124.965 62.142 123.536C61.8029 122.107 62.7946 120.497 64.225 120.158Z" fill="#776B5D"/>
<path d="M63.507 142.398C63.513 142.386 63.65 142.43 63.906 142.528C64.201 142.647 64.569 142.794 65.017 142.974C65.981 143.364 67.361 143.966 69.056 144.729C72.449 146.25 77.07 148.491 82.193 150.913C87.319 153.334 92.033 155.356 95.508 156.661C97.244 157.316 98.658 157.826 99.642 158.155C100.097 158.315 100.47 158.447 100.77 158.552C101.027 158.647 101.16 158.704 101.156 158.717C101.153 158.73 101.012 158.7 100.747 158.629C100.441 158.542 100.059 158.435 99.595 158.304C98.594 158.02 97.163 157.55 95.41 156.927C91.901 155.688 87.153 153.701 82.022 151.277C76.936 148.832 72.333 146.619 68.936 144.986C67.294 144.216 65.947 143.582 64.954 143.117C64.519 142.91 64.161 142.739 63.873 142.602C63.628 142.481 63.502 142.411 63.507 142.398Z" fill="#263238"/>
<path d="M102.753 140.807C102.753 140.821 102.614 140.831 102.352 140.838C102.044 140.842 101.666 140.845 101.206 140.85C100.151 140.853 98.7259 140.858 96.9919 140.862C93.4349 140.882 88.5209 140.986 83.0969 141.204C77.6979 141.443 72.8129 141.66 69.2029 141.82C67.4689 141.883 66.0449 141.936 64.9899 141.975C64.5299 141.983 64.1519 141.99 63.8429 141.995C63.5809 141.995 63.4429 141.989 63.4419 141.975C63.4409 141.961 63.5779 141.941 63.8389 141.915C64.1449 141.889 64.5229 141.858 64.9809 141.819C66.0349 141.748 67.4569 141.654 69.1879 141.537C72.7399 141.316 77.6499 141.023 83.0799 140.803C88.5089 140.586 93.4309 140.526 96.9929 140.58C98.7729 140.605 100.214 140.645 101.209 140.694C101.668 140.72 102.046 140.741 102.355 140.758C102.616 140.777 102.753 140.794 102.753 140.807Z" fill="#263238"/>
<path d="M101.156 159.712C101.157 159.726 101.032 159.745 100.791 159.77C100.505 159.794 100.158 159.823 99.7398 159.858C98.7628 159.925 97.4568 160.015 95.8728 160.124C92.6078 160.346 88.0988 160.655 83.1418 161.216C78.1838 161.782 73.7298 162.547 70.5288 163.209C68.9278 163.54 67.6338 163.821 66.7428 164.028C66.3338 164.115 65.9948 164.189 65.7128 164.249C65.4768 164.296 65.3498 164.314 65.3468 164.3C65.3428 164.287 65.4618 164.243 65.6918 164.171C65.9688 164.09 66.3028 163.993 66.7058 163.876C67.5858 163.622 68.8718 163.299 70.4698 162.931C73.6628 162.197 78.1258 161.383 83.0968 160.817C88.0668 160.254 92.5878 159.99 95.8578 159.84C97.4938 159.767 98.8188 159.721 99.7338 159.702C100.153 159.697 100.501 159.693 100.789 159.689C101.029 159.69 101.156 159.698 101.156 159.712Z" fill="#263238"/>
<path d="M104.652 174.734C104.651 174.748 104.514 174.747 104.254 174.731C103.949 174.708 103.574 174.68 103.12 174.645C102.134 174.568 100.713 174.407 98.9621 174.167C95.4611 173.688 90.6501 172.786 85.4491 171.347C80.2481 169.903 75.6501 168.237 72.3641 166.943C70.7211 166.294 69.4001 165.748 68.4961 165.351C68.0801 165.166 67.7371 165.012 67.4581 164.887C67.2221 164.777 67.1011 164.713 67.1061 164.701C67.1121 164.688 67.2441 164.727 67.4891 164.813C67.7751 164.918 68.1281 165.048 68.5551 165.206C69.5351 165.575 70.8571 166.072 72.4651 166.678C75.7731 167.902 80.3711 169.521 85.5551 170.961C90.7391 172.395 95.5221 173.337 99.0041 173.888C100.745 174.163 102.158 174.367 103.137 174.491C103.587 174.556 103.96 174.608 104.262 174.652C104.519 174.692 104.654 174.721 104.652 174.734Z" fill="#263238"/>
<path d="M63.0048 163.413C62.9998 163.426 62.8606 163.39 62.6002 163.31C62.2981 163.212 61.9237 163.091 61.4668 162.942C60.432 162.591 59.0281 162.116 57.3176 161.537C53.8172 160.342 48.97 158.722 43.6627 156.789C38.3532 154.859 33.6223 152.893 30.2822 151.292C28.6094 150.498 27.2726 149.819 26.3665 149.317C25.9465 149.083 25.6029 148.891 25.3247 148.736C25.089 148.6 24.968 148.522 24.9749 148.51C24.9811 148.497 25.1152 148.551 25.3625 148.665C25.6491 148.802 26.0043 148.971 26.4373 149.178C27.3635 149.636 28.7165 150.274 30.4008 151.034C33.7641 152.566 38.4973 154.483 43.8007 156.413C49.0909 158.3 53.8781 160.009 57.4116 161.27C59.1506 161.901 60.5553 162.42 61.5199 162.796C61.9661 162.973 62.3328 163.118 62.6279 163.235C62.8791 163.339 63.0098 163.4 63.0048 163.413Z" fill="#263238"/>
<path d="M63.3332 160.313C64.7632 159.974 66.3722 160.966 66.7122 162.395C67.0512 163.824 66.0592 165.434 64.6302 165.774C63.2012 166.113 61.5913 165.121 61.2516 163.692C60.9118 162.262 61.9034 160.652 63.3332 160.313Z" fill="#776B5D"/>
<path d="M60.9268 139.245C62.356 138.905 63.966 139.898 64.305 141.327C64.644 142.756 63.652 144.366 62.2228 144.705C60.7935 145.045 59.1839 144.052 58.8441 142.623C58.5051 141.194 59.4967 139.584 60.9268 139.245Z" fill="#776B5D"/>
<path d="M135.16 144.078C135.16 144.078 131.63 144.791 130.523 145.76C129.416 146.728 123.328 154.691 123.328 154.691C123.328 154.691 123.604 156.551 125.818 155.445C128.032 154.338 129.554 151.433 130.799 151.294C132.044 151.156 143.527 154.691 143.527 154.691L144.802 145.571L135.836 140.539L135.16 144.078Z" fill="#DC9070"/>
<path d="M112.941 127.276C112.525 126.692 111.621 126.765 111.328 127.42C110.895 128.386 110.547 129.765 111.141 131.129C112.219 133.608 120.513 152.205 128.966 157.689C137.419 163.173 143.999 166.724 143.999 166.724C143.999 166.724 147.356 164.713 146.965 162.332C146.965 162.332 131.305 155.08 126.12 148.508C120.935 141.937 114.712 130.055 114.179 129.139C113.863 128.596 113.368 127.876 112.941 127.276Z" fill="#263238"/>
<path d="M133.192 150.592L132.394 154.691L128.965 157.689L127.337 156.474C127.337 156.474 125.829 157.034 126.227 158.282C126.625 159.529 126.971 160.818 128.726 161.008C130.48 161.197 130.719 161.008 130.719 161.008C130.719 161.008 130.4 162.792 133.191 162.313C133.191 162.313 133.749 163.589 135.822 163.031C135.822 163.031 135.822 164.111 137.417 163.172C139.012 162.233 143.079 160.558 143.478 158.884C143.876 157.209 143.997 151.325 143.997 151.325L133.192 150.592Z" fill="#DC9070"/>
<path d="M136.751 157.267C136.826 157.337 135.707 158.571 133.976 159.65C132.251 160.738 130.653 161.208 130.623 161.11C130.581 160.998 132.08 160.372 133.763 159.31C135.452 158.258 136.669 157.18 136.751 157.267Z" fill="#925B4C"/>
<path d="M138.986 159.34C139.058 159.412 138 160.495 136.358 161.345C134.72 162.205 133.226 162.453 133.209 162.353C133.179 162.237 134.586 161.824 136.172 160.99C137.763 160.167 138.908 159.249 138.986 159.34Z" fill="#925B4C"/>
<path d="M139.952 160.357C140.038 160.413 139.4 161.416 138.209 162.231C137.024 163.054 135.86 163.294 135.838 163.194C135.801 163.081 136.857 162.684 137.981 161.901C139.112 161.128 139.86 160.282 139.952 160.357Z" fill="#925B4C"/>
</g>
<defs>
<clipPath id="clip0_529_281">
<rect width="162" height="321" fill="white"/>
</clipPath>
</defs>
</svg>
