<svg width="199" height="337" viewBox="0 0 199 337" fill="none" xmlns="http://www.w3.org/2000/svg">
<g clip-path="url(#clip0_529_281)">
<path d="M143.86 279.242C143.717 280.353 142.71 312.692 142.71 312.692H128.487L125.993 280.663L143.86 279.242Z" fill="#DC9070"/>
<path d="M128.451 308.068C128.451 308.068 138.438 315.157 143.273 309.021L144.537 311.994L150.216 333.178C150.584 334.55 149.941 336.061 148.618 336.579C147.601 336.977 146.479 336.753 145.712 336.023C141.604 332.115 126.563 317.664 126.709 315.704L126.767 310.502C126.78 309.424 127.446 308.461 128.451 308.068Z" fill="#EAC696"/>
<g opacity="0.6">
<path d="M148.128 336.722L126.702 313.895L126.707 315.032C126.6 316.263 127.138 316.75 127.722 317.539C129.455 319.876 134.254 325.106 145.631 336.025C146.293 336.66 147.234 336.923 148.128 336.722Z" fill="white"/>
</g>
<g opacity="0.6">
<path d="M129.841 310.511C130.515 310.973 130.738 311.988 130.305 312.68C129.871 313.372 128.841 313.608 128.159 313.158C127.478 312.708 127.171 311.498 127.68 310.859C128.188 310.22 129.413 310.009 129.967 310.609" fill="white"/>
</g>
<path d="M141.952 325.031C142.104 325.104 142.703 323.698 144.295 322.936C145.864 322.127 147.346 322.498 147.38 322.333C147.403 322.267 147.063 322.06 146.435 321.974C145.812 321.884 144.906 321.976 144.033 322.408C143.162 322.844 142.541 323.511 142.237 324.061C141.925 324.613 141.885 325.009 141.952 325.031Z" fill="#263238"/>
<path d="M143.877 328.614C144.005 328.729 144.862 327.854 146.247 327.451C147.624 327.017 148.822 327.27 148.864 327.103C148.941 326.966 147.648 326.402 146.076 326.888C144.499 327.356 143.736 328.542 143.877 328.614Z" fill="#263238"/>
<path d="M138.378 320.443C138.504 320.569 139.815 319.217 141.915 318.401C144.002 317.552 145.884 317.636 145.889 317.457C145.932 317.314 143.938 316.949 141.698 317.853C139.448 318.734 138.248 320.369 138.378 320.443Z" fill="#263238"/>
<path d="M137.901 313.994C137.974 314.155 139.452 313.53 141.38 313.452C143.306 313.348 144.837 313.831 144.894 313.665C144.967 313.533 143.423 312.757 141.352 312.863C139.281 312.953 137.817 313.87 137.901 313.994Z" fill="#263238"/>
<path d="M142.478 313.394C142.512 313.389 142.505 313.023 142.327 312.39C142.149 311.763 141.788 310.858 141.046 309.928C140.67 309.491 140.255 308.917 139.455 308.708C139.056 308.601 138.524 308.771 138.277 309.179C138.03 309.576 138.013 310.027 138.083 310.447C138.424 312.115 140.164 313.464 142.09 313.352C144.018 313.206 145.528 311.806 146.006 310.222C146.1 309.817 146.127 309.337 145.838 308.931C145.553 308.518 144.984 308.441 144.619 308.575C143.858 308.839 143.448 309.382 143.051 309.804C142.28 310.703 141.862 311.576 141.636 312.188C141.41 312.804 141.369 313.166 141.402 313.174C141.507 313.226 141.826 311.755 143.36 310.082C143.753 309.69 144.2 309.203 144.753 309.045C145.022 308.966 145.279 309.031 145.418 309.234C145.559 309.428 145.566 309.769 145.479 310.089C145.067 311.39 143.685 312.666 142.053 312.765C140.43 312.876 138.903 311.687 138.616 310.348C138.552 310.024 138.576 309.682 138.714 309.457C138.848 309.235 139.099 309.135 139.36 309.188C139.912 309.299 140.359 309.788 140.727 310.196C142.199 311.922 142.366 313.442 142.478 313.394Z" fill="#263238"/>
<path d="M122.24 257.593C121.945 258.477 127.277 297.15 127.277 297.15H143.86L149.394 237.953L122.24 257.593Z" fill="#263238"/>
<path d="M52.7138 112.877C53.0374 112.676 61.0823 112.415 61.0823 112.415L60.3726 121.68L46.133 124.148L43.8677 115.939L52.7138 112.877Z" fill="#DC9070"/>
<path d="M50.5193 108.619C49.5492 107.912 48.4266 107.428 47.2608 107.143C45.0194 106.594 42.4429 106.691 40.7323 105.142C40.3263 104.774 39.7969 104.29 39.3215 104.562C39.0311 104.728 38.9471 105.105 38.9255 105.438C38.8153 107.153 39.6729 108.898 41.0975 109.858L46.723 118.932C49.6763 118.016 52.4694 116.588 54.9427 114.732C53.7931 112.467 52.5719 110.114 50.5193 108.619Z" fill="#DC9070"/>
<path d="M43.9716 85.3943C43.8668 84.6847 43.0285 84.3395 42.4699 84.7887C41.6455 85.4513 40.7085 86.5223 40.6168 88.0063C40.4496 90.7046 39.3779 111.04 44.4116 119.768C49.4453 128.496 53.69 134.653 53.69 134.653C53.69 134.653 57.5949 134.388 58.3292 132.089C58.3292 132.089 47.6816 118.508 46.0527 110.298C44.4239 102.087 44.2852 88.6751 44.2274 87.6172C44.1927 86.9893 44.0803 86.124 43.9716 85.3943Z" fill="#263238"/>
<path d="M41.351 109.637C41.351 109.637 39.0526 109.995 38.4378 110.745C37.8237 111.497 37.6865 113.613 37.6865 113.613L39.0519 115.456C39.0519 115.456 38.3006 116.275 38.8469 117.777C38.8469 117.777 37.9593 119.825 39.1882 120.986C40.4172 122.147 39.461 121.396 39.461 121.396C39.461 121.396 38.5734 123.718 40.69 124.468C42.8065 125.219 46.5612 125.492 47.5174 124.468C48.4728 123.444 47.5174 121.533 47.5174 121.533C47.5174 121.533 49.4976 120.781 49.3604 119.689C49.2233 118.598 48.4042 118.324 48.4042 118.324C48.4042 118.324 49.0183 115.935 47.2439 116.003C47.2439 116.003 48.6092 114.296 47.3124 114.022C46.0149 113.75 43.8991 113.681 43.8991 113.681L41.5098 110.813L41.351 109.637Z" fill="#DC9070"/>
<path d="M46.744 116.119C46.7803 116.211 45.022 116.775 42.7906 116.579C40.5569 116.4 38.918 115.55 38.9689 115.466C39.0128 115.351 40.6678 116.009 42.8237 116.179C44.978 116.371 46.7202 115.997 46.744 116.119Z" fill="#925B4C"/>
<path d="M48.4051 118.503C48.422 118.546 47.9266 118.803 47.059 119.038C46.1945 119.275 44.9471 119.452 43.5725 119.354C42.1979 119.253 40.989 118.897 40.1676 118.538C39.3424 118.18 38.8893 117.855 38.9125 117.814C38.9625 117.694 40.9212 118.778 43.601 118.954C46.2777 119.167 48.3727 118.377 48.4051 118.503Z" fill="#925B4C"/>
<path d="M47.3435 121.636C47.3774 121.729 45.5782 122.302 43.2814 122.202C40.9829 122.119 39.2354 121.405 39.2771 121.315C39.3117 121.197 41.0669 121.722 43.2975 121.801C45.5266 121.899 47.318 121.516 47.3435 121.636Z" fill="#925B4C"/>
<path d="M123.538 34.5172C124.398 25.8783 131.747 19.3491 140.427 19.5116L141.289 19.5278C150.578 20.2452 155.16 28.535 154.186 37.8011L151.81 74.981L130.239 88.3084L130.79 66.255C130.79 66.255 121.876 64.6978 121.932 55.7569C121.96 51.439 122.739 42.552 123.538 34.5172Z" fill="#DC9070"/>
<path d="M130.716 66.2405C130.716 66.2405 136.417 66.6904 142.492 63.0312C142.492 63.0312 139.617 69.4127 130.713 68.4411L130.716 66.2405Z" fill="#925B4C"/>
<path d="M126.852 42.2978C126.815 42.9712 127.356 43.5575 128.059 43.6084C128.761 43.6593 129.36 43.1561 129.397 42.4819C129.433 41.8085 128.893 41.2214 128.192 41.1705C127.489 41.1197 126.889 41.6243 126.852 42.2978Z" fill="#263238"/>
<path d="M125.378 38.9261C125.533 39.0956 126.513 38.3975 127.887 38.4268C129.259 38.436 130.255 39.1618 130.407 38.9962C130.481 38.923 130.326 38.6194 129.893 38.2919C129.467 37.9653 128.735 37.6424 127.879 37.6301C127.023 37.6185 126.298 37.9206 125.878 38.2349C125.45 38.5524 125.301 38.8506 125.378 38.9261Z" fill="#263238"/>
<path d="M139.371 42.5574C139.335 43.2308 139.875 43.8172 140.577 43.868C141.279 43.9189 141.879 43.4158 141.915 42.7416C141.951 42.0681 141.411 41.481 140.709 41.4302C140.007 41.3793 139.407 41.884 139.371 42.5574Z" fill="#263238"/>
<path d="M138.875 39.4346C139.031 39.6041 140.013 38.9068 141.385 38.9361C142.757 38.9453 143.752 39.6711 143.904 39.5055C143.979 39.4323 143.825 39.1287 143.39 38.8012C142.964 38.4745 142.233 38.1517 141.378 38.1394C140.522 38.1278 139.797 38.4298 139.377 38.7442C138.948 39.0601 138.799 39.3591 138.875 39.4346Z" fill="#263238"/>
<path d="M133.7 49.529C133.708 49.4511 132.857 49.287 131.476 49.0844C131.127 49.042 130.796 48.9657 130.741 48.7253C130.663 48.4703 130.818 48.0951 130.995 47.6898C131.341 46.8476 131.702 45.9638 132.082 45.0385C133.594 41.263 134.695 38.1556 134.542 38.0955C134.39 38.0361 133.04 41.048 131.529 44.8243C131.164 45.7558 130.816 46.6434 130.485 47.4925C130.344 47.8886 130.108 48.3362 130.277 48.8656C130.366 49.1291 130.62 49.3248 130.844 49.3895C131.067 49.4619 131.264 49.4696 131.438 49.4835C132.83 49.5844 133.693 49.6068 133.7 49.529Z" fill="#263238"/>
<path d="M137.725 50.5545C137.502 50.5375 137.471 52.0284 136.175 53.0625C134.882 54.1003 133.295 53.9031 133.28 54.1111C133.257 54.2043 133.628 54.407 134.299 54.4378C134.956 54.4725 135.922 54.2791 136.715 53.6465C137.505 53.0116 137.857 52.1525 137.918 51.5415C137.986 50.9197 137.826 50.5475 137.725 50.5545Z" fill="#263238"/>
<path d="M138.621 34.0448C138.75 34.4208 140.124 34.2698 141.732 34.494C143.345 34.6859 144.636 35.1821 144.856 34.8516C144.955 34.6928 144.734 34.3376 144.216 33.9663C143.702 33.5956 142.877 33.2366 141.911 33.111C140.946 32.9869 140.057 33.1241 139.466 33.3522C138.869 33.5787 138.566 33.8669 138.621 34.0448Z" fill="#263238"/>
<path d="M125.957 34.9602C126.193 35.2769 127.145 34.9702 128.283 34.9764C129.421 34.9425 130.38 35.2253 130.608 34.9032C130.709 34.7468 130.563 34.4309 130.148 34.1281C129.739 33.826 129.049 33.5725 128.266 33.5818C127.484 33.5918 126.801 33.8622 126.399 34.1743C125.992 34.4871 125.854 34.8061 125.957 34.9602Z" fill="#263238"/>
<path d="M124.474 30.4335C124.474 30.4335 126.937 24.8797 129.66 23.6238C132.957 22.1036 134.297 25.7165 137.427 24.9043C140.558 24.0922 143.705 22.6329 146.843 25.0993C150.277 27.7991 148.61 29.6175 148.751 33.5872C149.323 49.683 152.175 54.2852 153.152 46.7266C153.259 45.8983 155.574 45.2819 155.981 41.7822C156.509 37.2447 156.786 31.7279 155.832 28.4826C155.028 25.7473 153.513 23.8395 150.771 21.7168C146.443 18.3651 140.416 18.1825 136.315 18.5176C132.213 18.8543 124.232 23.4173 124.474 30.4335Z" fill="#263238"/>
<path d="M152.587 46.474C152.67 45.0955 153.878 44.0284 155.251 44.1848C156.915 44.3743 158.752 45.356 158.578 48.7986C158.269 54.9064 152.2 53.3353 152.199 53.1596C152.198 53.0402 152.435 49.0282 152.587 46.474Z" fill="#DC9070"/>
<path d="M153.644 50.9289C153.672 50.9104 153.747 51.009 153.923 51.1007C154.094 51.1893 154.393 51.2602 154.717 51.157C155.374 50.9528 155.969 49.9565 156.055 48.857C156.099 48.3023 156.008 47.7668 155.834 47.3191C155.67 46.863 155.397 46.5363 155.075 46.4623C154.756 46.3714 154.516 46.554 154.433 46.722C154.343 46.8884 154.375 47.0124 154.342 47.0217C154.324 47.0363 154.216 46.9123 154.278 46.6626C154.309 46.5424 154.388 46.4022 154.537 46.292C154.69 46.1803 154.909 46.1302 155.134 46.1664C155.603 46.2227 156.005 46.6773 156.197 47.1696C156.415 47.665 156.529 48.2676 156.48 48.8909C156.378 50.1199 155.69 51.2394 154.794 51.4498C154.359 51.5399 154.007 51.392 153.829 51.2394C153.648 51.0776 153.623 50.9389 153.644 50.9289Z" fill="#925B4C"/>
<path d="M152.689 34.6311C151.885 35.1582 151.036 35.7014 150.078 35.7777C149.121 35.8547 148.037 35.2845 147.893 34.3345C147.829 33.9076 147.942 33.4161 147.668 33.0824C147.342 32.6841 146.724 32.795 146.211 32.8405C144.431 32.9954 142.635 31.7048 142.214 29.9681C141.749 30.6384 140.691 30.5891 140.014 30.1337C139.337 29.6791 138.908 28.9471 138.384 28.3223C137.858 27.6974 137.116 27.1341 136.306 27.2335C135.853 27.289 135.425 27.5502 134.971 27.5017C134.17 27.4154 133.796 26.4684 133.689 25.6694C133.583 24.8704 133.505 23.9396 132.834 23.4935C132.211 23.0805 131.391 23.297 130.65 23.3926C129.91 23.4873 128.959 23.2963 128.783 22.5704C128.691 22.1898 128.861 21.7938 129.078 21.4671C130.057 19.9869 132.145 19.3598 133.778 20.0563C134.413 18.0476 136.331 16.512 138.43 16.3301C140.529 16.1483 142.682 17.3318 143.654 19.201C144.968 18.053 146.853 17.5968 148.547 18.016C150.24 18.4359 151.694 19.7204 152.32 21.3484C153.814 20.9855 155.497 21.5919 156.417 22.8239C157.336 24.0567 157.437 25.8428 156.662 27.1711C157.749 27.8191 158.669 28.9286 158.668 30.1938C158.667 31.459 157.411 32.6964 156.197 32.3404C156.672 33.3344 156.246 34.6635 155.281 35.1959C154.316 35.7283 152.965 35.3808 152.376 34.4493" fill="#263238"/>
<path d="M133.289 21.8463C133.284 21.847 133.284 21.8848 133.288 21.9588C133.295 22.032 133.298 22.1437 133.321 22.2855C133.372 22.569 133.478 22.9889 133.743 23.4713C134.009 23.9467 134.427 24.4976 135.071 24.9414C135.702 25.3898 136.571 25.7373 137.561 25.7019L137.46 25.5647C137.26 26.084 137.3 26.712 137.551 27.2544C137.787 27.8053 138.166 28.2969 138.569 28.7769C138.775 29.0073 138.952 29.277 139.24 29.4912C139.519 29.6962 139.855 29.8187 140.201 29.8688C140.889 29.9697 141.671 29.7709 142.181 29.2007L141.954 29.1314C142.087 30.3488 142.755 31.5777 143.839 32.339C144.412 32.7697 145.126 33.0394 145.834 33.034C146.541 33.0401 147.202 32.8452 147.819 32.6372L147.657 32.5624C147.972 33.3283 148.464 33.9856 149.068 34.4756C149.661 34.9641 150.457 35.26 151.186 35.0951C152.634 34.8169 153.613 33.635 153.828 32.5093L153.688 32.5709C154.396 32.9739 155.164 33.0263 155.782 32.9184C156.41 32.8159 156.905 32.554 157.259 32.2928C157.615 32.0262 157.828 31.7503 157.956 31.5585C158.074 31.3589 158.123 31.2487 158.117 31.2449C158.087 31.2194 157.906 31.7056 157.199 32.2088C156.847 32.4484 156.363 32.6873 155.76 32.772C155.165 32.8622 154.439 32.7959 153.784 32.4099L153.671 32.3428L153.645 32.4715C153.432 33.5217 152.489 34.6235 151.147 34.8662C150.487 35.008 149.786 34.7445 149.225 34.2814C148.661 33.8199 148.191 33.1858 147.899 32.4661L147.853 32.3521L147.737 32.3906C147.13 32.594 146.491 32.7766 145.837 32.7682C145.183 32.7705 144.542 32.5301 143.996 32.1217C142.972 31.4013 142.345 30.2517 142.213 29.099L142.18 28.8093L141.986 29.0297C141.554 29.5182 140.855 29.7085 140.237 29.6191C139.926 29.576 139.627 29.4689 139.385 29.2916C139.147 29.1221 138.962 28.8548 138.752 28.6221C138.35 28.1505 137.981 27.6774 137.756 27.1643C137.518 26.6573 137.481 26.1048 137.652 25.6348L137.704 25.49L137.55 25.4977C136.617 25.5431 135.779 25.2272 135.164 24.8065C134.535 24.3912 134.117 23.8681 133.842 23.4142C133.303 22.4804 133.333 21.8332 133.289 21.8463Z" fill="#455A64"/>
<path d="M117.739 74.1627C117.739 74.1627 112.131 75.488 109.701 77.7163C107.27 79.9446 87.7586 108.194 87.7586 108.194C87.7586 108.194 84.7205 107.586 84.7205 109.207H58.9941V123.792C58.9941 123.792 91.8107 127.438 95.6593 124.804C99.508 122.171 105.788 113.055 105.788 113.055L117.739 74.1627Z" fill="#EAC696"/>
<path d="M91.8919 112.415C91.8826 112.462 91.5189 112.449 90.9696 112.254C90.4217 112.063 89.7029 111.655 89.0772 111.014C88.4546 110.369 88.0694 109.638 87.8945 109.085C87.7165 108.53 87.7142 108.166 87.7612 108.158C87.8783 108.123 88.1734 109.53 89.3654 110.735C90.5327 111.961 91.9312 112.3 91.8919 112.415Z" fill="#263238"/>
<path d="M86.121 114.133C86.0632 114.218 85.0345 113.284 84.6593 111.679C84.2663 110.079 84.7595 108.78 84.8496 108.829C84.969 108.853 84.6809 110.103 85.05 111.586C85.3928 113.074 86.2165 114.058 86.121 114.133Z" fill="#263238"/>
<g opacity="0.3">
<path d="M87.7583 108.194C88.1498 108.703 88.7307 109.239 89.3995 109.605C90.0675 109.971 90.6485 110.267 91.4074 110.334C92.1656 110.401 92.9354 110.424 93.6704 110.624C94.1581 110.755 94.6798 111.026 94.8061 111.515C94.931 111.997 94.5919 112.508 94.1412 112.718C93.6912 112.929 93.1657 112.9 92.6772 112.804C90.4644 112.371 88.2723 110.39 87.7583 108.194Z" fill="black"/>
</g>
<path d="M73.4118 187.777C73.4118 187.777 59.7161 207.581 58.998 214.513C58.2799 221.446 58.6636 232.014 67.6615 233.387C76.6595 234.76 113.892 220.604 113.892 220.604L114.652 208.429L86.928 211.017L108.253 193.946L73.4118 187.777Z" fill="#263238"/>
<path d="M152.338 178.266C151.377 200.064 150.415 221.862 149.455 243.66C149.3 247.176 149.111 250.822 147.484 253.944C143.972 260.684 135.143 262.592 127.562 262.053C112.009 260.948 97.1473 252.416 88.352 239.541C85.7492 235.731 83.6604 231.584 80.949 227.851C78.2376 224.118 74.7549 220.729 70.3792 219.266C66.0829 217.829 60.422 217.777 58.5273 213.662C58.5273 213.662 61.2025 207.082 63.4401 203.194C65.6776 199.306 76.8715 180.3 76.8715 180.3L152.338 178.266Z" fill="#EAC696"/>
<path d="M67.8906 196.143C71.2939 204.51 79.4258 210.201 88.0231 212.968C96.6204 215.737 105.786 216.016 114.806 216.489C118.969 216.707 123.397 217.066 126.724 219.579C129.75 221.864 132.145 225.967 135.924 225.659C139.358 225.379 141.203 221.589 142.371 218.348C142.27 220.731 142.2 223.254 143.361 225.338C144.522 227.421 147.396 228.741 149.377 227.413C150.157 219.995 150.937 212.578 151.717 205.161L148.618 196.143L119.332 201.677L67.8906 196.143Z" fill="#EAC696"/>
<path d="M128.881 70.5814L130.724 68.9025L132.297 85.2533L143.925 71.3288C148.599 68.9117 152.312 67.1241 152.312 67.1241L152.577 71.8943L156.492 73.3498L155.342 90.851L157.306 168.532C157.306 168.532 154.375 196.889 154.698 202.69C155.02 208.492 156.304 221.062 156.304 221.062L146.303 223.801C146.303 223.801 146.318 204.624 147.446 198.823L135.521 218.967C135.521 218.967 133.748 211.554 124.885 212.682C116.022 213.81 101.679 214.455 93.2987 212.521C84.9187 210.587 67.3535 196.084 67.3535 196.084L97.9726 145.321L117.741 85.2541L121.792 72.2518L128.881 70.5814Z" fill="#EAC696"/>
<path d="M139.055 247.008C139.069 247.007 139.093 247.18 139.127 247.515C139.15 247.683 139.163 247.891 139.14 248.137C139.132 248.384 139.121 248.67 139.048 248.983C138.848 250.242 137.995 252.035 136.192 253.489C135.298 254.212 134.185 254.847 132.892 255.26C131.6 255.696 130.122 255.784 128.614 255.657C125.567 255.385 122.444 254.03 119.437 252.323C113.399 248.895 108.339 245.133 104.89 242.179C103.164 240.702 101.82 239.446 100.92 238.551C100.463 238.11 100.128 237.748 99.8956 237.508C99.666 237.265 99.5497 237.133 99.5597 237.124C99.5697 237.114 99.7045 237.227 99.9526 237.45C100.229 237.704 100.586 238.031 101.028 238.437C101.96 239.296 103.329 240.517 105.073 241.962C108.557 244.85 113.624 248.561 119.635 251.973C122.624 253.669 125.687 255.005 128.65 255.289C130.122 255.421 131.547 255.349 132.795 254.942C134.049 254.557 135.138 253.955 136.016 253.267C137.789 251.883 138.654 250.17 138.896 248.952C139.152 247.721 138.995 247.009 139.055 247.008Z" fill="#263238"/>
<g opacity="0.3">
<path d="M128.352 72.6401C124.639 86.9122 120.926 101.487 117.214 115.759L118.634 115.939C125.623 102.587 128.792 87.7058 128.352 72.6401Z" fill="black"/>
</g>
<path d="M128.881 70.5814C128.881 70.5814 119.765 72.1371 117.739 74.1627C115.713 76.1884 105.585 105.156 105.585 105.156L87.1514 155.596L104.775 159.039C104.775 159.039 120.576 107.5 123.007 99.9469C125.438 92.3936 125.856 89.7346 125.856 89.7346L128.881 70.5814Z" fill="#EF4040"/>
<path d="M155.983 73.161C155.983 73.161 171.015 79.6317 170.812 80.2396C170.609 80.8476 167.166 109.475 164.33 114.81C161.494 120.146 157.24 135.136 157.24 135.136L158.253 168.358C158.253 168.358 134.147 173.017 128.88 169.168L121.79 163.294C121.79 163.294 128.88 124.744 132.631 111.481C135.425 101.6 138.25 91.9382 143.922 85.2533C149.595 78.5684 155.983 73.161 155.983 73.161Z" fill="#EF4040"/>
<path d="M167.977 81.4556C167.977 81.4556 158.861 83.4812 157.24 92.5971C155.62 101.713 156.025 112.044 159.063 113.867C162.102 115.69 165.239 112.417 165.239 112.417L179.32 124.198C179.32 124.198 177.902 126.426 179.32 127.438L169.521 154.677L184.718 163.207C184.718 163.207 198.969 128.856 198.969 124.197C198.969 119.538 195.323 114.474 191.676 110.017C188.03 105.561 172.997 81.6513 171.824 81.4548C170.652 81.2583 167.977 81.4556 167.977 81.4556Z" fill="#EAC696"/>
<path d="M190.264 122.136C190.256 122.197 189.625 122.148 188.607 122.176C187.589 122.197 186.182 122.298 184.648 122.537C183.116 122.784 181.748 123.125 180.811 123.503C179.864 123.863 179.363 124.25 179.32 124.199C179.287 124.169 179.747 123.684 180.698 123.242C181.637 122.785 183.027 122.392 184.585 122.14C187.712 121.62 190.293 122.009 190.264 122.136Z" fill="#263238"/>
<path d="M188.677 124.293C188.662 124.359 188.08 124.24 187.138 124.222C186.198 124.201 184.892 124.335 183.542 124.816C182.195 125.305 181.102 126.035 180.392 126.65C179.677 127.264 179.305 127.727 179.251 127.686C179.216 127.663 179.511 127.132 180.199 126.441C180.882 125.752 182 124.947 183.405 124.438C184.813 123.935 186.187 123.842 187.152 123.938C188.124 124.032 188.689 124.253 188.677 124.293Z" fill="#263238"/>
<path d="M179.321 124.198C179.299 124.219 179.031 123.997 178.543 123.598C177.991 123.147 177.298 122.582 176.475 121.908C174.657 120.434 172.268 118.499 169.629 116.359C166.945 114.203 164.504 112.266 162.716 110.895C161.823 110.208 161.09 109.666 160.577 109.302C160.066 108.939 159.764 108.766 159.779 108.734C159.786 108.721 159.867 108.752 160.018 108.824C160.167 108.898 160.397 108.999 160.662 109.171C161.206 109.497 161.968 110.007 162.885 110.667C164.721 111.984 167.194 113.888 169.881 116.046C172.564 118.207 174.955 120.209 176.658 121.693C177.51 122.434 178.189 123.046 178.647 123.483C179.104 123.917 179.339 124.18 179.321 124.198Z" fill="#263238"/>
<path d="M168.813 85.2533C168.85 85.3203 167.741 85.8404 166.213 87.0524C164.69 88.2498 162.787 90.2361 161.479 92.9029C160.169 95.5703 159.761 98.2902 159.745 100.227C159.721 102.177 159.987 103.373 159.912 103.385C159.888 103.389 159.798 103.097 159.694 102.555C159.587 102.013 159.485 101.217 159.461 100.227C159.403 98.2579 159.775 95.4609 161.118 92.7249C162.461 89.9896 164.446 87.9847 166.04 86.8267C166.837 86.2403 167.53 85.8343 168.023 85.5869C168.517 85.3396 168.803 85.2317 168.813 85.2533Z" fill="#263238"/>
<g opacity="0.3">
<path d="M161.957 110.16C160.829 109.17 160.571 108.529 159.93 107.171C159.241 105.709 159.132 104.498 159.66 101.597L159.6 99.3027C157.49 102.528 157.537 107.595 160.03 110.534C161.21 111.926 163.138 112.982 164.835 112.31C164.169 111.925 162.652 110.77 161.957 110.16Z" fill="black"/>
</g>
<g opacity="0.3">
<path d="M184.708 121.137C182.626 121.502 180.795 122.684 179.321 124.198C182.606 122.124 187.143 121.612 190.98 122.214C189.078 121.291 186.79 120.773 184.708 121.137Z" fill="black"/>
</g>
<path d="M198.97 124.198C198.977 124.197 198.984 124.233 198.99 124.305C198.996 124.377 199.007 124.484 198.994 124.624C198.986 124.905 198.92 125.311 198.817 125.83C198.603 126.865 198.197 128.338 197.612 130.131C196.415 133.702 194.676 138.603 192.627 143.97C190.579 149.339 188.624 154.159 187.169 157.63C186.442 159.367 185.841 160.766 185.417 161.729C185.216 162.175 185.051 162.54 184.918 162.834C184.801 163.085 184.732 163.214 184.72 163.208C184.707 163.203 184.75 163.064 184.844 162.802C184.958 162.501 185.099 162.127 185.273 161.669C185.68 160.636 186.232 159.233 186.906 157.523C188.293 154.025 190.205 149.191 192.251 143.826C194.299 138.464 196.08 133.581 197.344 130.04C197.96 128.266 198.406 126.811 198.664 125.795C198.789 125.286 198.88 124.889 198.913 124.617C198.955 124.344 198.95 124.199 198.97 124.198Z" fill="#263238"/>
<path d="M79.6738 119.619C78.3809 120.048 63.7158 128.546 61.4929 149.563C59.4735 168.662 65.572 174.365 65.572 174.365C65.572 174.365 81.7996 190.711 103.499 192.81C125.464 194.934 141.216 196.565 146.303 193.971C151.39 191.376 161.405 160.478 160.822 147.014C160.239 133.55 152.15 127.722 152.15 127.722C152.15 127.722 120.517 106.052 79.6738 119.619Z" fill="#E48F45"/>
<path d="M160.356 163.398C163.19 145.259 160.229 129.733 153.741 128.719C147.254 127.705 139.696 141.588 136.862 159.727C134.027 177.866 136.988 193.392 143.476 194.406C149.964 195.42 157.521 181.537 160.356 163.398Z" fill="#E48F45"/>
<path d="M144.159 194.851C143.912 194.851 143.668 194.832 143.424 194.794C136.624 193.731 133.578 178.305 136.491 159.674C139.403 141.043 147.023 127.295 153.811 128.345C160.612 129.408 163.658 144.835 160.745 163.465C159.367 172.28 156.841 180.382 153.632 186.276C150.601 191.845 147.266 194.851 144.159 194.851ZM153.056 129.057C146.933 129.057 139.955 142.493 137.251 159.793C134.453 177.693 137.275 193.053 143.543 194.033C146.471 194.489 149.897 191.528 152.955 185.908C156.123 180.089 158.619 172.077 159.984 163.346C162.782 145.446 159.96 130.086 153.693 129.106C153.482 129.073 153.269 129.057 153.056 129.057Z" fill="#263238"/>
<path d="M145.388 160.043C143.978 169.071 145.451 176.798 148.68 177.303C151.909 177.808 155.67 170.899 157.082 161.871C158.492 152.843 157.019 145.115 153.79 144.611C150.561 144.106 146.799 151.015 145.388 160.043Z" fill="#F3EEEA"/>
<path d="M155.726 129.711C155.738 129.771 154.671 129.673 152.952 130.345C152.102 130.688 151.109 131.24 150.116 132.084C149.121 132.924 148.148 134.064 147.275 135.456C143.959 141.136 140.912 149.902 139.455 159.867C138.723 164.854 138.421 169.657 138.347 174.023C138.271 178.384 138.642 182.328 139.564 185.493C140.463 188.666 141.822 191.011 142.925 192.478C143.471 193.222 143.964 193.743 144.287 194.105C144.442 194.265 144.568 194.396 144.672 194.503C144.756 194.595 144.798 194.644 144.793 194.649C144.789 194.654 144.738 194.615 144.643 194.532C144.532 194.433 144.397 194.311 144.229 194.161C143.886 193.815 143.37 193.307 142.8 192.572C141.649 191.121 140.235 188.77 139.291 185.571C138.324 182.381 137.921 178.399 137.977 174.018C138.031 169.637 138.324 164.817 139.057 159.808C140.524 149.792 143.619 141.009 147.036 135.302C147.936 133.901 148.943 132.751 149.972 131.911C150.998 131.068 152.022 130.526 152.895 130.199C153.771 129.874 154.493 129.762 154.98 129.72C155.469 129.677 155.726 129.711 155.726 129.711Z" fill="#263238"/>
<path d="M78.2712 122.374C78.2812 122.383 78.1641 122.543 77.9299 122.838C77.6687 123.161 77.325 123.586 76.8951 124.117C76.6716 124.395 76.4112 124.695 76.1462 125.038C75.8896 125.392 75.6122 125.773 75.3155 126.181C75.0158 126.592 74.6961 127.028 74.3586 127.491C74.0334 127.964 73.7175 128.483 73.3693 129.017C71.9546 131.138 70.5292 133.83 69.1662 136.906C67.8031 139.988 66.6913 143.538 65.8661 147.332C65.4261 149.227 65.1988 151.113 64.9399 152.927C64.8059 154.755 64.6071 156.515 64.624 158.202C64.5138 161.572 64.8043 164.603 65.0763 167.136C65.4331 169.66 65.7621 171.701 66.0988 173.089C66.2382 173.758 66.3492 174.293 66.4339 174.7C66.5064 175.069 66.538 175.265 66.5241 175.268C66.511 175.272 66.4532 175.082 66.3554 174.719C66.2521 174.317 66.1165 173.786 65.9462 173.123C65.5625 171.742 65.1896 169.703 64.7951 167.172C64.4853 164.632 64.164 161.586 64.2542 158.195C64.228 156.497 64.4191 154.725 64.5493 152.884C64.8043 151.057 65.0309 149.157 65.4739 147.248C66.3053 143.427 67.4364 139.853 68.8271 136.758C70.2187 133.669 71.6788 130.974 73.1319 128.861C73.4895 128.33 73.8154 127.814 74.1498 127.344C74.498 126.886 74.827 126.452 75.136 126.046C75.4434 125.644 75.7301 125.268 75.9967 124.92C76.2717 124.582 76.5414 124.289 76.7757 124.017C77.2303 123.506 77.5939 123.096 77.8705 122.785C78.1225 122.506 78.2604 122.365 78.2712 122.374Z" fill="#263238"/>
<path d="M96.5801 157.404C96.577 157.417 96.4506 157.402 96.2133 157.36C95.9306 157.305 95.5892 157.238 95.1778 157.158C94.2801 156.976 92.9857 156.688 91.3923 156.309C88.2047 155.554 83.8229 154.41 79.0373 152.961C74.2509 151.51 69.97 150.031 66.8995 148.89C65.3639 148.32 64.1273 147.843 63.2789 147.495C62.8921 147.334 62.5716 147.2 62.305 147.089C62.0839 146.992 61.9706 146.935 61.9752 146.921C61.9799 146.908 62.1031 146.941 62.3335 147.013C62.6063 147.105 62.936 147.216 63.3329 147.349C64.2575 147.671 65.4941 148.101 66.9943 148.623C70.0863 149.694 74.3742 151.128 79.1528 152.577C83.9307 154.022 88.2933 155.208 91.4601 156.033C92.998 156.432 94.2647 156.76 95.2125 157.006C95.617 157.115 95.9529 157.206 96.2311 157.281C96.463 157.349 96.5832 157.391 96.5801 157.404Z" fill="#263238"/>
<path d="M99.662 138.437C99.6604 138.465 99.1897 138.46 98.3398 138.429C97.4892 138.398 96.2602 138.323 94.7454 138.195C91.7127 137.95 87.5389 137.465 82.9405 136.874C78.3398 136.283 74.1776 135.754 71.1572 135.437C69.6971 135.29 68.4913 135.168 67.579 135.076C66.733 134.997 66.266 134.94 66.2676 134.912C66.2691 134.885 66.7391 134.889 67.5898 134.921C68.4396 134.952 69.6686 135.027 71.1842 135.155C74.2169 135.4 78.3907 135.885 82.9914 136.476C87.5905 137.067 91.7528 137.596 94.7724 137.913C96.2325 138.06 97.4391 138.182 98.3506 138.273C99.1958 138.353 99.6635 138.41 99.662 138.437Z" fill="#263238"/>
<path d="M110.965 122.488C110.964 122.502 110.834 122.502 110.587 122.492C110.294 122.473 109.939 122.452 109.511 122.425C108.577 122.358 107.225 122.261 105.556 122.166C102.216 121.967 97.594 121.792 92.4933 121.928C89.9429 122.005 87.5174 122.16 85.3161 122.356C83.1186 122.586 81.1415 122.82 79.4957 123.113C78.6689 123.238 77.9277 123.386 77.2766 123.517C76.624 123.639 76.0631 123.755 75.6093 123.865C75.1901 123.956 74.8426 124.032 74.556 124.094C74.314 124.142 74.1846 124.161 74.1808 124.148C74.1769 124.135 74.2986 124.09 74.5344 124.017C74.8164 123.934 75.1585 123.835 75.5715 123.714C76.0215 123.58 76.5786 123.442 77.2296 123.298C77.8784 123.146 78.6189 122.979 79.4456 122.835C81.0914 122.503 83.0739 122.24 85.2783 121.989C87.4866 121.77 89.9214 121.604 92.481 121.527C97.5995 121.391 102.233 121.612 105.573 121.883C107.245 122.014 108.594 122.154 109.524 122.269C109.95 122.325 110.303 122.372 110.594 122.411C110.84 122.449 110.967 122.474 110.965 122.488Z" fill="#263238"/>
<path d="M139.753 156.807C139.748 156.82 139.603 156.783 139.332 156.7C139.019 156.599 138.629 156.473 138.15 156.318C137.125 155.983 135.655 155.46 133.85 154.782C130.239 153.429 125.314 151.387 119.986 148.892C114.657 146.394 109.92 143.953 106.516 142.148C104.813 141.245 103.442 140.501 102.501 139.978C102.064 139.73 101.706 139.528 101.421 139.366C101.176 139.222 101.051 139.141 101.057 139.128C101.064 139.116 101.202 139.174 101.459 139.295C101.754 139.439 102.122 139.619 102.574 139.84C103.585 140.351 104.965 141.048 106.647 141.898C110.084 143.637 114.835 146.034 120.156 148.53C125.477 151.021 130.373 153.101 133.953 154.519C135.742 155.23 137.196 155.794 138.203 156.173C138.671 156.355 139.053 156.505 139.359 156.625C139.621 156.731 139.757 156.795 139.753 156.807Z" fill="#263238"/>
<path d="M143.393 138.888C143.393 138.902 143.246 138.905 142.97 138.897C142.648 138.883 142.248 138.867 141.76 138.847C140.653 138.791 139.148 138.715 137.314 138.623C133.56 138.441 128.372 138.248 122.639 138.199C116.904 138.152 111.713 138.258 107.956 138.377C106.121 138.439 104.616 138.489 103.508 138.526C103.019 138.538 102.618 138.548 102.297 138.557C102.02 138.559 101.874 138.554 101.873 138.54C101.873 138.526 102.017 138.504 102.292 138.476C102.613 138.448 103.012 138.413 103.499 138.37C104.548 138.285 106.066 138.189 107.945 138.094C111.702 137.902 116.9 137.751 122.642 137.797C128.383 137.847 133.576 138.085 137.33 138.34C139.207 138.467 140.724 138.588 141.771 138.692C142.257 138.742 142.655 138.784 142.976 138.817C143.25 138.85 143.394 138.874 143.393 138.888Z" fill="#263238"/>
<path d="M144.853 136.543C144.845 136.554 144.734 136.498 144.53 136.381C144.288 136.235 143.998 136.061 143.649 135.851C143.273 135.613 142.803 135.335 142.256 135.018C141.712 134.694 141.091 134.329 140.391 133.946C137.617 132.377 133.681 130.394 129.2 128.503C124.715 126.619 120.549 125.178 117.497 124.259C115.974 123.789 114.73 123.443 113.869 123.21C113.478 123.1 113.151 123.008 112.88 122.932C112.655 122.864 112.538 122.822 112.541 122.808C112.544 122.795 112.667 122.81 112.899 122.852C113.175 122.909 113.508 122.976 113.907 123.058C114.781 123.245 116.039 123.55 117.577 123.986C120.658 124.839 124.855 126.242 129.356 128.133C133.852 130.031 137.785 132.063 140.532 133.7C141.225 134.099 141.838 134.484 142.373 134.827C142.91 135.164 143.37 135.462 143.734 135.721C144.067 135.956 144.344 136.151 144.576 136.314C144.764 136.452 144.861 136.531 144.853 136.543Z" fill="#263238"/>
<path d="M153.103 128.791C153.097 128.803 152.961 128.757 152.706 128.657C152.412 128.536 152.046 128.387 151.6 128.204C151.123 128 150.539 127.754 149.85 127.492C149.164 127.227 148.391 126.902 147.516 126.599C145.781 125.95 143.685 125.259 141.332 124.587C138.972 123.937 136.353 123.311 133.57 122.835C130.783 122.374 128.104 122.107 125.661 121.976C124.438 121.941 123.276 121.882 122.188 121.914C121.1 121.907 120.087 121.957 119.163 122.012C118.237 122.041 117.406 122.144 116.673 122.207C115.939 122.263 115.311 122.344 114.798 122.419C114.32 122.477 113.928 122.526 113.612 122.565C113.34 122.594 113.196 122.603 113.194 122.589C113.191 122.575 113.331 122.54 113.598 122.485C113.912 122.426 114.3 122.353 114.774 122.264C115.285 122.166 115.913 122.062 116.647 121.984C117.381 121.899 118.214 121.777 119.143 121.729C120.071 121.657 121.088 121.59 122.183 121.582C123.277 121.536 124.446 121.582 125.677 121.607C128.135 121.719 130.833 121.976 133.636 122.439C136.436 122.919 139.067 123.559 141.432 124.232C143.791 124.927 145.887 125.649 147.615 126.334C148.487 126.656 149.256 126.999 149.936 127.286C150.618 127.569 151.195 127.836 151.663 128.062C152.096 128.272 152.452 128.445 152.739 128.584C152.984 128.707 153.11 128.778 153.103 128.791Z" fill="#263238"/>
<path d="M110.525 119.713C111.794 119.357 113.272 120.157 113.668 121.414C114.064 122.671 113.311 124.173 112.068 124.609C110.825 125.045 109.299 124.342 108.823 123.113C108.347 121.885 109.001 120.336 110.213 119.821" fill="#776B5D"/>
<path d="M101.225 136.158C102.654 135.819 104.263 136.811 104.603 138.24C104.942 139.669 103.95 141.279 102.521 141.618C101.091 141.958 99.4817 140.965 99.142 139.536C98.8029 138.107 99.7946 136.497 101.225 136.158Z" fill="#776B5D"/>
<path d="M100.507 158.398C100.513 158.386 100.65 158.43 100.906 158.528C101.201 158.647 101.569 158.794 102.017 158.974C102.981 159.364 104.361 159.966 106.056 160.729C109.449 162.25 114.07 164.491 119.193 166.913C124.319 169.334 129.033 171.356 132.508 172.661C134.244 173.316 135.658 173.826 136.642 174.155C137.097 174.315 137.47 174.447 137.77 174.552C138.027 174.647 138.16 174.704 138.156 174.717C138.153 174.73 138.012 174.7 137.747 174.629C137.441 174.542 137.059 174.435 136.595 174.304C135.594 174.02 134.163 173.55 132.41 172.927C128.901 171.688 124.153 169.701 119.022 167.277C113.936 164.832 109.333 162.619 105.936 160.986C104.294 160.216 102.947 159.582 101.954 159.117C101.519 158.91 101.161 158.739 100.873 158.602C100.628 158.481 100.502 158.411 100.507 158.398Z" fill="#263238"/>
<path d="M139.753 156.807C139.753 156.821 139.614 156.831 139.352 156.838C139.044 156.842 138.666 156.845 138.206 156.85C137.151 156.853 135.726 156.858 133.992 156.862C130.435 156.882 125.521 156.986 120.097 157.204C114.698 157.443 109.813 157.66 106.203 157.82C104.469 157.883 103.045 157.936 101.99 157.975C101.53 157.983 101.152 157.99 100.843 157.995C100.581 157.995 100.443 157.989 100.442 157.975C100.441 157.961 100.578 157.941 100.839 157.915C101.145 157.889 101.523 157.858 101.981 157.819C103.035 157.748 104.457 157.654 106.188 157.537C109.74 157.316 114.65 157.023 120.08 156.803C125.509 156.586 130.431 156.526 133.993 156.58C135.773 156.605 137.214 156.645 138.209 156.694C138.668 156.72 139.046 156.741 139.355 156.758C139.616 156.777 139.753 156.794 139.753 156.807Z" fill="#263238"/>
<path d="M138.156 175.712C138.157 175.726 138.032 175.745 137.791 175.77C137.505 175.794 137.158 175.823 136.74 175.858C135.763 175.925 134.457 176.015 132.873 176.124C129.608 176.346 125.099 176.655 120.142 177.216C115.184 177.782 110.73 178.547 107.529 179.209C105.928 179.54 104.634 179.821 103.743 180.028C103.334 180.115 102.995 180.189 102.713 180.249C102.477 180.296 102.35 180.314 102.347 180.3C102.343 180.287 102.462 180.243 102.692 180.171C102.969 180.09 103.303 179.993 103.706 179.876C104.586 179.622 105.872 179.299 107.47 178.931C110.663 178.197 115.126 177.383 120.097 176.817C125.067 176.254 129.588 175.99 132.858 175.84C134.494 175.767 135.819 175.721 136.734 175.702C137.153 175.697 137.501 175.693 137.789 175.689C138.029 175.69 138.156 175.698 138.156 175.712Z" fill="#263238"/>
<path d="M141.652 190.734C141.651 190.748 141.514 190.747 141.254 190.731C140.949 190.708 140.574 190.68 140.12 190.645C139.134 190.568 137.713 190.407 135.962 190.167C132.461 189.688 127.65 188.786 122.449 187.347C117.248 185.903 112.65 184.237 109.364 182.943C107.721 182.294 106.4 181.748 105.496 181.351C105.08 181.166 104.737 181.012 104.458 180.887C104.222 180.777 104.101 180.713 104.106 180.701C104.112 180.688 104.244 180.727 104.489 180.813C104.775 180.918 105.128 181.048 105.555 181.206C106.535 181.575 107.857 182.072 109.465 182.678C112.773 183.902 117.371 185.521 122.555 186.961C127.739 188.395 132.522 189.337 136.004 189.888C137.745 190.163 139.158 190.367 140.137 190.491C140.587 190.556 140.96 190.608 141.262 190.652C141.519 190.692 141.654 190.721 141.652 190.734Z" fill="#263238"/>
<path d="M100.005 179.413C99.9998 179.426 99.8606 179.39 99.6002 179.31C99.2981 179.212 98.9237 179.091 98.4668 178.942C97.432 178.591 96.0281 178.116 94.3176 177.537C90.8172 176.342 85.97 174.722 80.6627 172.789C75.3532 170.859 70.6223 168.893 67.2822 167.292C65.6094 166.498 64.2726 165.819 63.3665 165.317C62.9465 165.083 62.6029 164.891 62.3247 164.736C62.089 164.6 61.968 164.522 61.9749 164.51C61.9811 164.497 62.1152 164.551 62.3625 164.665C62.6491 164.802 63.0043 164.971 63.4373 165.178C64.3635 165.636 65.7165 166.274 67.4008 167.034C70.7641 168.566 75.4973 170.483 80.8007 172.413C86.0909 174.3 90.8781 176.009 94.4116 177.27C96.1506 177.901 97.5553 178.42 98.5199 178.796C98.9661 178.973 99.3328 179.118 99.6279 179.235C99.8791 179.339 100.01 179.4 100.005 179.413Z" fill="#263238"/>
<path d="M100.333 176.313C101.763 175.974 103.372 176.966 103.712 178.395C104.051 179.824 103.059 181.434 101.63 181.774C100.201 182.113 98.5913 181.121 98.2516 179.692C97.9118 178.262 98.9034 176.652 100.333 176.313Z" fill="#776B5D"/>
<path d="M97.9268 155.245C99.356 154.905 100.966 155.898 101.305 157.327C101.644 158.756 100.652 160.366 99.2228 160.705C97.7935 161.045 96.1839 160.052 95.8441 158.623C95.5051 157.194 96.4967 155.584 97.9268 155.245Z" fill="#776B5D"/>
<path d="M172.16 160.078C172.16 160.078 168.63 160.791 167.523 161.76C166.416 162.728 160.328 170.691 160.328 170.691C160.328 170.691 160.604 172.551 162.818 171.445C165.032 170.338 166.554 167.433 167.799 167.294C169.044 167.156 180.527 170.691 180.527 170.691L181.802 161.571L172.836 156.539L172.16 160.078Z" fill="#DC9070"/>
<path d="M149.941 143.276C149.525 142.692 148.621 142.765 148.328 143.42C147.895 144.386 147.547 145.765 148.141 147.129C149.219 149.608 157.513 168.205 165.966 173.689C174.419 179.173 180.999 182.724 180.999 182.724C180.999 182.724 184.356 180.713 183.965 178.332C183.965 178.332 168.305 171.08 163.12 164.508C157.935 157.937 151.712 146.055 151.179 145.139C150.863 144.596 150.368 143.876 149.941 143.276Z" fill="#263238"/>
<path d="M170.192 166.592L169.394 170.691L165.965 173.689L164.337 172.474C164.337 172.474 162.829 173.034 163.227 174.282C163.625 175.529 163.971 176.818 165.726 177.008C167.48 177.197 167.719 177.008 167.719 177.008C167.719 177.008 167.4 178.792 170.191 178.313C170.191 178.313 170.749 179.589 172.822 179.031C172.822 179.031 172.822 180.111 174.417 179.172C176.012 178.233 180.079 176.558 180.478 174.884C180.876 173.209 180.997 167.325 180.997 167.325L170.192 166.592Z" fill="#DC9070"/>
<path d="M173.751 173.267C173.826 173.337 172.707 174.571 170.976 175.65C169.251 176.738 167.653 177.208 167.623 177.11C167.581 176.998 169.08 176.372 170.763 175.31C172.452 174.258 173.669 173.18 173.751 173.267Z" fill="#925B4C"/>
<path d="M175.986 175.34C176.058 175.412 175 176.495 173.358 177.345C171.72 178.205 170.226 178.453 170.209 178.353C170.179 178.237 171.586 177.824 173.172 176.99C174.763 176.167 175.908 175.249 175.986 175.34Z" fill="#925B4C"/>
<path d="M176.952 176.357C177.038 176.413 176.4 177.416 175.209 178.231C174.024 179.054 172.86 179.294 172.838 179.194C172.801 179.081 173.857 178.684 174.981 177.901C176.112 177.128 176.86 176.282 176.952 176.357Z" fill="#925B4C"/>
</g>
<defs>
<clipPath id="clip0_529_281">
<rect width="199" height="337" fill="white"/>
</clipPath>
</defs>
</svg>
